0
SECTION
2
HEADER
9
$ACADVER
1
AC1009
9
$INSBASE
10
0.0
20
0.0
30
0.0
9
$EXTMIN
10
0.0
20
0.0
30
0.0
9
$EXTMAX
10
10000.0
20
5000.0
30
0.0
0
ENDSEC
0
SECTION
2
TABLES
0
TABLE
2
LTYPE
70
1
0
LTYPE
2
CONTINUOUS
70
64
3
Solid line
72
65
73
0
40
0.0
0
ENDTAB
0
TABLE
2
LAYER
70
1
0
LAYER
2
0
70
0
62
7
6
CONTINUOUS
0
ENDTAB
0
ENDSEC
0
SECTION
2
ENTITIES
0
LINE
8
0
62
7
10
0
20
0
11
1220
21
0
0
LINE
8
0
62
7
10
1220
20
0
11
1220
21
2440
0
LINE
8
0
62
7
10
1220
20
2440
11
0
21
2440
0
LINE
8
0
62
7
10
0
20
2440
11
0
21
0
0
LINE
8
0
62
7
10
10
20
2440
11
22.1
21
2427.9
0
LINE
8
0
62
7
10
60
20
2440
11
71.6
21
2428.4
0
LINE
8
0
62
7
10
110
20
2440
11
121.1
21
2428.9
0
LINE
8
0
62
7
10
160
20
2440
11
170.6
21
2429.4
0
LINE
8
0
62
7
10
210
20
2440
11
220.1
21
2429.9
0
LINE
8
0
62
7
10
260
20
2440
11
279.2
21
2420.8
0
LINE
8
0
62
7
10
310
20
2440
11
328.2
21
2421.8
0
LINE
8
0
62
7
10
360
20
2440
11
377.2
21
2422.8
0
LINE
8
0
62
7
10
410
20
2440
11
426.2
21
2423.8
0
LINE
8
0
62
7
10
460
20
2440
11
475.2
21
2424.8
0
LINE
8
0
62
7
10
510
20
2440
11
524.2
21
2425.8
0
LINE
8
0
62
7
10
560
20
2440
11
579.8
21
2420.2
0
LINE
8
0
62
7
10
610
20
2440
11
628.3
21
2421.7
0
LINE
8
0
62
7
10
660
20
2440
11
676.8
21
2423.2
0
LINE
8
0
62
7
10
710
20
2440
11
725.3
21
2424.7
0
LINE
8
0
62
7
10
760
20
2440
11
778.4
21
2421.6
0
LINE
8
0
62
7
10
810
20
2440
11
826.4
21
2423.6
0
LINE
8
0
62
7
10
860
20
2440
11
878
21
2422
0
LINE
8
0
62
7
10
910
20
2440
11
928.6
21
2421.4
0
LINE
8
0
62
7
10
960
20
2440
11
978.2
21
2421.8
0
LINE
8
0
62
7
10
1010
20
2440
11
1028.9
21
2421.1
0
LINE
8
0
62
7
10
1060
20
2440
11
1079.2
21
2420.8
0
LINE
8
0
62
7
10
1110
20
2440
11
1129.8
21
2420.2
0
LINE
8
0
62
7
10
1160
20
2440
11
1179.8
21
2420.2
0
LINE
8
0
62
7
10
1210
20
2440
11
1220
21
2430
0
LINE
8
0
62
30
10
5
20
5
11
605
21
5
0
LINE
8
0
62
30
10
605
20
5
11
605
21
1787
0
LINE
8
0
62
30
10
605
20
1787
11
5
21
1787
0
LINE
8
0
62
30
10
5
20
1787
11
5
21
5
0
TEXT
8
0
62
7
10
305
20
40
30
0
40
25
1
600
72
1
11
305
21
40
31
0
0
TEXT
8
0
62
7
10
40
20
896
30
0
40
25
1
1782
50
90
72
1
11
40
21
896
31
0
0
LINE
8
0
62
30
10
5
20
1792
11
605
21
1792
0
LINE
8
0
62
30
10
605
20
1792
11
605
21
2410
0
LINE
8
0
62
30
10
605
20
2410
11
5
21
2410
0
LINE
8
0
62
30
10
5
20
2410
11
5
21
1792
0
TEXT
8
0
62
7
10
305
20
1827
30
0
40
25
1
600
72
1
11
305
21
1827
31
0
0
TEXT
8
0
62
7
10
40
20
2101
30
0
40
25
1
618
50
90
72
1
11
40
21
2101
31
0
0
LINE
8
0
62
30
10
610
20
5
11
1210
21
5
0
LINE
8
0
62
30
10
1210
20
5
11
1210
21
1787
0
LINE
8
0
62
30
10
1210
20
1787
11
610
21
1787
0
LINE
8
0
62
30
10
610
20
1787
11
610
21
5
0
TEXT
8
0
62
7
10
910
20
40
30
0
40
25
1
600
72
1
11
910
21
40
31
0
0
TEXT
8
0
62
7
10
645
20
896
30
0
40
25
1
1782
50
90
72
1
11
645
21
896
31
0
0
LINE
8
0
62
30
10
610
20
1792
11
1210
21
1792
0
LINE
8
0
62
30
10
1210
20
1792
11
1210
21
2410
0
LINE
8
0
62
30
10
1210
20
2410
11
610
21
2410
0
LINE
8
0
62
30
10
610
20
2410
11
610
21
1792
0
TEXT
8
0
62
7
10
910
20
1827
30
0
40
25
1
600
72
1
11
910
21
1827
31
0
0
TEXT
8
0
62
7
10
645
20
2101
30
0
40
25
1
618
50
90
72
1
11
645
21
2101
31
0
0
TEXT
8
0
10
10
20
-30
40
15
1
Sheet 1
0
LINE
8
0
62
7
10
1420
20
0
11
2640
21
0
0
LINE
8
0
62
7
10
2640
20
0
11
2640
21
2440
0
LINE
8
0
62
7
10
2640
20
2440
11
1420
21
2440
0
LINE
8
0
62
7
10
1420
20
2440
11
1420
21
0
0
LINE
8
0
62
7
10
2584
20
36
11
2620
21
0
0
LINE
8
0
62
7
10
2579
20
91
11
2640
21
30
0
LINE
8
0
62
7
10
2579
20
141
11
2640
21
80
0
LINE
8
0
62
7
10
2579
20
191
11
2640
21
130
0
LINE
8
0
62
7
10
2579
20
241
11
2640
21
180
0
LINE
8
0
62
7
10
2579
20
291
11
2640
21
230
0
LINE
8
0
62
7
10
2579
20
341
11
2640
21
280
0
LINE
8
0
62
7
10
2579
20
391
11
2640
21
330
0
LINE
8
0
62
7
10
2579
20
441
11
2640
21
380
0
LINE
8
0
62
7
10
2579
20
491
11
2640
21
430
0
LINE
8
0
62
7
10
2579
20
541
11
2640
21
480
0
LINE
8
0
62
7
10
2579
20
591
11
2640
21
530
0
LINE
8
0
62
7
10
2579
20
641
11
2640
21
580
0
LINE
8
0
62
7
10
2579
20
691
11
2640
21
630
0
LINE
8
0
62
7
10
2579
20
741
11
2640
21
680
0
LINE
8
0
62
7
10
2579
20
791
11
2640
21
730
0
LINE
8
0
62
7
10
2579
20
841
11
2640
21
780
0
LINE
8
0
62
7
10
2579
20
891
11
2640
21
830
0
LINE
8
0
62
7
10
2579
20
941
11
2640
21
880
0
LINE
8
0
62
7
10
2579
20
991
11
2640
21
930
0
LINE
8
0
62
7
10
2579
20
1041
11
2640
21
980
0
LINE
8
0
62
7
10
2579
20
1091
11
2640
21
1030
0
LINE
8
0
62
7
10
2579
20
1141
11
2640
21
1080
0
LINE
8
0
62
7
10
1420
20
2350
11
1468.8
21
2301.2
0
LINE
8
0
62
7
10
2579
20
1191
11
2640
21
1130
0
LINE
8
0
62
7
10
1420
20
2400
11
1517.6
21
2302.4
0
LINE
8
0
62
7
10
2579
20
1241
11
2640
21
1180
0
LINE
8
0
62
7
10
1430
20
2440
11
1575.2
21
2294.8
0
LINE
8
0
62
7
10
2579.5
20
1290.5
11
2640
21
1230
0
LINE
8
0
62
7
10
1480
20
2440
11
1619.2
21
2300.8
0
LINE
8
0
62
7
10
2582
20
1338
11
2640
21
1280
0
LINE
8
0
62
7
10
1530
20
2440
11
1674.3
21
2295.7
0
LINE
8
0
62
7
10
2584.5
20
1385.5
11
2640
21
1330
0
LINE
8
0
62
7
10
1580
20
2440
11
1717.8
21
2302.2
0
LINE
8
0
62
7
10
2587
20
1433
11
2640
21
1380
0
LINE
8
0
62
7
10
1630
20
2440
11
1771.4
21
2298.6
0
LINE
8
0
62
7
10
2579.4
20
1490.6
11
2640
21
1430
0
LINE
8
0
62
7
10
1680
20
2440
11
1824
21
2296
0
LINE
8
0
62
7
10
2582.4
20
1537.6
11
2640
21
1480
0
LINE
8
0
62
7
10
1730
20
2440
11
1875.6
21
2294.4
0
LINE
8
0
62
7
10
2585.4
20
1584.6
11
2640
21
1530
0
LINE
8
0
62
7
10
1780
20
2440
11
1926.2
21
2293.8
0
LINE
8
0
62
7
10
2579.8
20
1640.1999999999998
11
2640
21
1580
0
LINE
8
0
62
7
10
1830
20
2440
11
1975.8
21
2294.2
0
LINE
8
0
62
7
10
2583.3
20
1686.6999999999998
11
2640
21
1630
0
LINE
8
0
62
7
10
1880
20
2440
11
2024.4
21
2295.6
0
LINE
8
0
62
7
10
2586.8
20
1733.1999999999998
11
2640
21
1680
0
LINE
8
0
62
7
10
1930
20
2440
11
2072
21
2298
0
LINE
8
0
62
7
10
2583.2
20
1786.8
11
2640
21
1730
0
LINE
8
0
62
7
10
1980
20
2440
11
2125.2
21
2294.8
0
LINE
8
0
62
7
10
2587.2
20
1832.8
11
2640
21
1780
0
LINE
8
0
62
7
10
2030
20
2440
11
2176.4
21
2293.6
0
LINE
8
0
62
7
10
2585.1
20
1884.9
11
2640
21
1830
0
LINE
8
0
62
7
10
2080
20
2440
11
2225.6
21
2294.4
0
LINE
8
0
62
7
10
2584
20
1936
11
2640
21
1880
0
LINE
8
0
62
7
10
2130
20
2440
11
2277.9
21
2292.1
0
LINE
8
0
62
7
10
2583.9
20
1986.1
11
2640
21
1930
0
LINE
8
0
62
7
10
2180
20
2440
11
2327.2
21
2292.8
0
LINE
8
0
62
7
10
2584.8
20
2035.2
11
2640
21
1980
0
LINE
8
0
62
7
10
2230
20
2440
11
2377.6
21
2292.4
0
LINE
8
0
62
7
10
2586.7
20
2083.3
11
2640
21
2030
0
LINE
8
0
62
7
10
2280
20
2440
11
2427.6
21
2292.4
0
LINE
8
0
62
7
10
2586
20
2134
11
2640
21
2080
0
LINE
8
0
62
7
10
2330
20
2440
11
2475.7
21
2294.3
0
LINE
8
0
62
7
10
2587.3
20
2182.7
11
2640
21
2130
0
LINE
8
0
62
7
10
2380
20
2440
11
2525.6
21
2294.4
0
LINE
8
0
62
7
10
2588
20
2232
11
2640
21
2180
0
LINE
8
0
62
7
10
2430
20
2440
11
2577
21
2293
0
LINE
8
0
62
7
10
2587.5
20
2282.5
11
2640
21
2230
0
LINE
8
0
62
7
10
2480
20
2440
11
2640
21
2280
0
LINE
8
0
62
7
10
2530
20
2440
11
2640
21
2330
0
LINE
8
0
62
7
10
2580
20
2440
11
2640
21
2380
0
LINE
8
0
62
7
10
2630
20
2440
11
2640
21
2430
0
LINE
8
0
62
30
10
1425
20
5
11
1999
21
5
0
LINE
8
0
62
30
10
1999
20
5
11
1999
21
1141
0
LINE
8
0
62
30
10
1999
20
1141
11
1425
21
1141
0
LINE
8
0
62
30
10
1425
20
1141
11
1425
21
5
0
TEXT
8
0
62
7
10
1712
20
40
30
0
40
25
1
574
72
1
11
1712
21
40
31
0
0
TEXT
8
0
62
7
10
1460
20
573
30
0
40
25
1
1136
50
90
72
1
11
1460
21
573
31
0
0
LINE
8
0
62
30
10
1425
20
1146
11
1999
21
1146
0
LINE
8
0
62
30
10
1999
20
1146
11
1999
21
2282
0
LINE
8
0
62
30
10
1999
20
2282
11
1425
21
2282
0
LINE
8
0
62
30
10
1425
20
2282
11
1425
21
1146
0
TEXT
8
0
62
7
10
1712
20
1181
30
0
40
25
1
574
72
1
11
1712
21
1181
31
0
0
TEXT
8
0
62
7
10
1460
20
1714
30
0
40
25
1
1136
50
90
72
1
11
1460
21
1714
31
0
0
LINE
8
0
62
30
10
2004
20
5
11
2578
21
5
0
LINE
8
0
62
30
10
2578
20
5
11
2578
21
1141
0
LINE
8
0
62
30
10
2578
20
1141
11
2004
21
1141
0
LINE
8
0
62
30
10
2004
20
1141
11
2004
21
5
0
TEXT
8
0
62
7
10
2291
20
40
30
0
40
25
1
574
72
1
11
2291
21
40
31
0
0
TEXT
8
0
62
7
10
2039
20
573
30
0
40
25
1
1136
50
90
72
1
11
2039
21
573
31
0
0
LINE
8
0
62
30
10
2004
20
1146
11
2578
21
1146
0
LINE
8
0
62
30
10
2578
20
1146
11
2578
21
2282
0
LINE
8
0
62
30
10
2578
20
2282
11
2004
21
2282
0
LINE
8
0
62
30
10
2004
20
2282
11
2004
21
1146
0
TEXT
8
0
62
7
10
2291
20
1181
30
0
40
25
1
574
72
1
11
2291
21
1181
31
0
0
TEXT
8
0
62
7
10
2039
20
1714
30
0
40
25
1
1136
50
90
72
1
11
2039
21
1714
31
0
0
TEXT
8
0
10
1430
20
-30
40
15
1
Sheet 2
0
LINE
8
0
62
7
10
2840
20
0
11
4060
21
0
0
LINE
8
0
62
7
10
4060
20
0
11
4060
21
2440
0
LINE
8
0
62
7
10
4060
20
2440
11
2840
21
2440
0
LINE
8
0
62
7
10
2840
20
2440
11
2840
21
0
0
LINE
8
0
62
7
10
3428
20
12
11
3440
21
0
0
LINE
8
0
62
7
10
3425
20
65
11
3490
21
0
0
LINE
8
0
62
7
10
3428
20
112
11
3540
21
0
0
LINE
8
0
62
7
10
3425
20
165
11
3590
21
0
0
LINE
8
0
62
7
10
3424
20
216
11
3640
21
0
0
LINE
8
0
62
7
10
3426.5
20
263.5
11
3690
21
0
0
LINE
8
0
62
7
10
3425
20
315
11
3740
21
0
0
LINE
8
0
62
7
10
3429
20
361
11
3790
21
0
0
LINE
8
0
62
7
10
3420
20
420
11
3840
21
0
0
LINE
8
0
62
7
10
3428
20
462
11
3890
21
0
0
LINE
8
0
62
7
10
3423
20
517
11
3940
21
0
0
LINE
8
0
62
7
10
3426.5
20
563.5
11
3990
21
0
0
LINE
8
0
62
7
10
2840
20
1200
11
2888
21
1152
0
LINE
8
0
62
7
10
3428
20
612
11
4040
21
0
0
LINE
8
0
62
7
10
2840
20
1250
11
2937.6
21
1152.4
0
LINE
8
0
62
7
10
3425.6
20
664.4
11
4060
21
30
0
LINE
8
0
62
7
10
2840
20
1300
11
2986.4
21
1153.6
0
LINE
8
0
62
7
10
3425.6
20
714.4
11
4060
21
80
0
LINE
8
0
62
7
10
2840
20
1350
11
3035.2
21
1154.8
0
LINE
8
0
62
7
10
3425.6
20
764.4
11
4060
21
130
0
LINE
8
0
62
7
10
2840
20
1400
11
3084
21
1156
0
LINE
8
0
62
7
10
3425.6
20
814.4
11
4060
21
180
0
LINE
8
0
62
7
10
2840
20
1450
11
3132.8
21
1157.2
0
LINE
8
0
62
7
10
3425.6
20
864.4
11
4060
21
230
0
LINE
8
0
62
7
10
2840
20
1500
11
3181.6
21
1158.4
0
LINE
8
0
62
7
10
3425.6
20
914.4
11
4060
21
280
0
LINE
8
0
62
7
10
2840
20
1550
11
3230.4
21
1159.6
0
LINE
8
0
62
7
10
3425.6
20
964.4
11
4060
21
330
0
LINE
8
0
62
7
10
2840
20
1600
11
3279.2
21
1160.8
0
LINE
8
0
62
7
10
3425.6
20
1014.4
11
4060
21
380
0
LINE
8
0
62
7
10
2840
20
1650
11
3328
21
1162
0
LINE
8
0
62
7
10
3425.6
20
1064.4
11
4060
21
430
0
LINE
8
0
62
7
10
2840
20
1700
11
3376.8
21
1163.2
0
LINE
8
0
62
7
10
3425.6
20
1114.4
11
4060
21
480
0
LINE
8
0
62
7
10
2840
20
1750
11
4060
21
530
0
LINE
8
0
62
7
10
2840
20
1800
11
4060
21
580
0
LINE
8
0
62
7
10
2840
20
1850
11
4060
21
630
0
LINE
8
0
62
7
10
2840
20
1900
11
4060
21
680
0
LINE
8
0
62
7
10
2840
20
1950
11
4060
21
730
0
LINE
8
0
62
7
10
2840
20
2000
11
4060
21
780
0
LINE
8
0
62
7
10
2840
20
2050
11
4060
21
830
0
LINE
8
0
62
7
10
2840
20
2100
11
4060
21
880
0
LINE
8
0
62
7
10
2840
20
2150
11
4060
21
930
0
LINE
8
0
62
7
10
2840
20
2200
11
4060
21
980
0
LINE
8
0
62
7
10
2840
20
2250
11
4060
21
1030
0
LINE
8
0
62
7
10
2840
20
2300
11
4060
21
1080
0
LINE
8
0
62
7
10
2840
20
2350
11
4060
21
1130
0
LINE
8
0
62
7
10
2840
20
2400
11
4060
21
1180
0
LINE
8
0
62
7
10
2850
20
2440
11
4060
21
1230
0
LINE
8
0
62
7
10
2900
20
2440
11
4060
21
1280
0
LINE
8
0
62
7
10
2950
20
2440
11
4060
21
1330
0
LINE
8
0
62
7
10
3000
20
2440
11
4060
21
1380
0
LINE
8
0
62
7
10
3050
20
2440
11
4060
21
1430
0
LINE
8
0
62
7
10
3100
20
2440
11
4060
21
1480
0
LINE
8
0
62
7
10
3150
20
2440
11
4060
21
1530
0
LINE
8
0
62
7
10
3200
20
2440
11
4060
21
1580
0
LINE
8
0
62
7
10
3250
20
2440
11
4060
21
1630
0
LINE
8
0
62
7
10
3300
20
2440
11
4060
21
1680
0
LINE
8
0
62
7
10
3350
20
2440
11
4060
21
1730
0
LINE
8
0
62
7
10
3400
20
2440
11
4060
21
1780
0
LINE
8
0
62
7
10
3450
20
2440
11
4060
21
1830
0
LINE
8
0
62
7
10
3500
20
2440
11
4060
21
1880
0
LINE
8
0
62
7
10
3550
20
2440
11
4060
21
1930
0
LINE
8
0
62
7
10
3600
20
2440
11
4060
21
1980
0
LINE
8
0
62
7
10
3650
20
2440
11
4060
21
2030
0
LINE
8
0
62
7
10
3700
20
2440
11
4060
21
2080
0
LINE
8
0
62
7
10
3750
20
2440
11
4060
21
2130
0
LINE
8
0
62
7
10
3800
20
2440
11
4060
21
2180
0
LINE
8
0
62
7
10
3850
20
2440
11
4060
21
2230
0
LINE
8
0
62
7
10
3900
20
2440
11
4060
21
2280
0
LINE
8
0
62
7
10
3950
20
2440
11
4060
21
2330
0
LINE
8
0
62
7
10
4000
20
2440
11
4060
21
2380
0
LINE
8
0
62
7
10
4050
20
2440
11
4060
21
2430
0
LINE
8
0
62
30
10
2845
20
5
11
3419
21
5
0
LINE
8
0
62
30
10
3419
20
5
11
3419
21
1141
0
LINE
8
0
62
30
10
3419
20
1141
11
2845
21
1141
0
LINE
8
0
62
30
10
2845
20
1141
11
2845
21
5
0
TEXT
8
0
62
7
10
3132
20
40
30
0
40
25
1
574
72
1
11
3132
21
40
31
0
0
TEXT
8
0
62
7
10
2880
20
573
30
0
40
25
1
1136
50
90
72
1
11
2880
21
573
31
0
0
TEXT
8
0
10
2850
20
-30
40
15
1
Sheet 3
0
LINE
8
0
62
7
10
4260
20
0
11
5480
21
0
0
LINE
8
0
62
7
10
5480
20
0
11
5480
21
2440
0
LINE
8
0
62
7
10
5480
20
2440
11
4260
21
2440
0
LINE
8
0
62
7
10
4260
20
2440
11
4260
21
0
0
LINE
8
0
62
7
10
5412
20
48
11
5460
21
0
0
LINE
8
0
62
7
10
5419
20
91
11
5480
21
30
0
LINE
8
0
62
7
10
5419
20
141
11
5480
21
80
0
LINE
8
0
62
7
10
5419
20
191
11
5480
21
130
0
LINE
8
0
62
7
10
5419
20
241
11
5480
21
180
0
LINE
8
0
62
7
10
5419
20
291
11
5480
21
230
0
LINE
8
0
62
7
10
5419
20
341
11
5480
21
280
0
LINE
8
0
62
7
10
5419
20
391
11
5480
21
330
0
LINE
8
0
62
7
10
5419
20
441
11
5480
21
380
0
LINE
8
0
62
7
10
5419
20
491
11
5480
21
430
0
LINE
8
0
62
7
10
5419
20
541
11
5480
21
480
0
LINE
8
0
62
7
10
5419
20
591
11
5480
21
530
0
LINE
8
0
62
7
10
5419
20
641
11
5480
21
580
0
LINE
8
0
62
7
10
4260
20
1850
11
4308.8
21
1801.2
0
LINE
8
0
62
7
10
5419
20
691
11
5480
21
630
0
LINE
8
0
62
7
10
4260
20
1900
11
4369.8
21
1790.2
0
LINE
8
0
62
7
10
5419
20
741
11
5480
21
680
0
LINE
8
0
62
7
10
4260
20
1950
11
4418.6
21
1791.4
0
LINE
8
0
62
7
10
5419
20
791
11
5480
21
730
0
LINE
8
0
62
7
10
4260
20
2000
11
4467.4
21
1792.6
0
LINE
8
0
62
7
10
5419
20
841
11
5480
21
780
0
LINE
8
0
62
7
10
4260
20
2050
11
4516.2
21
1793.8
0
LINE
8
0
62
7
10
5419
20
891
11
5480
21
830
0
LINE
8
0
62
7
10
4260
20
2100
11
4565
21
1795
0
LINE
8
0
62
7
10
5419
20
941
11
5480
21
880
0
LINE
8
0
62
7
10
4260
20
2150
11
4613.8
21
1796.2
0
LINE
8
0
62
7
10
5419
20
991
11
5480
21
930
0
LINE
8
0
62
7
10
4260
20
2200
11
4662.6
21
1797.4
0
LINE
8
0
62
7
10
5419
20
1041
11
5480
21
980
0
LINE
8
0
62
7
10
4260
20
2250
11
4711.4
21
1798.6
0
LINE
8
0
62
7
10
5419
20
1091
11
5480
21
1030
0
LINE
8
0
62
7
10
4260
20
2300
11
4760.2
21
1799.8
0
LINE
8
0
62
7
10
5419
20
1141
11
5480
21
1080
0
LINE
8
0
62
7
10
4260
20
2350
11
4809
21
1801
0
LINE
8
0
62
7
10
5419
20
1191
11
5480
21
1130
0
LINE
8
0
62
7
10
4260
20
2400
11
4870
21
1790
0
LINE
8
0
62
7
10
5419
20
1241
11
5480
21
1180
0
LINE
8
0
62
7
10
4270
20
2440
11
4911.3
21
1798.6999999999998
0
LINE
8
0
62
7
10
5419.5
20
1290.5
11
5480
21
1230
0
LINE
8
0
62
7
10
4320
20
2440
11
4969.6
21
1790.4
0
LINE
8
0
62
7
10
5410.4
20
1349.6000000000001
11
5480
21
1280
0
LINE
8
0
62
7
10
4370
20
2440
11
5013.8
21
1796.2
0
LINE
8
0
62
7
10
5413.4
20
1396.6000000000001
11
5480
21
1330
0
LINE
8
0
62
7
10
4420
20
2440
11
5066.6
21
1793.4
0
LINE
8
0
62
7
10
5416.4
20
1443.6
11
5480
21
1380
0
LINE
8
0
62
7
10
4470
20
2440
11
5116.4
21
1793.6
0
LINE
8
0
62
7
10
5419.4
20
1490.6
11
5480
21
1430
0
LINE
8
0
62
7
10
4520
20
2440
11
5163.2
21
1796.8
0
LINE
8
0
62
7
10
5412.8
20
1547.1999999999998
11
5480
21
1480
0
LINE
8
0
62
7
10
4570
20
2440
11
5216.1
21
1793.9
0
LINE
8
0
62
7
10
5416.3
20
1593.6999999999998
11
5480
21
1530
0
LINE
8
0
62
7
10
4620
20
2440
11
5265
21
1795
0
LINE
8
0
62
7
10
5419.8
20
1640.1999999999998
11
5480
21
1580
0
LINE
8
0
62
7
10
4670
20
2440
11
5318
21
1792
0
LINE
8
0
62
7
10
5415.2
20
1694.8
11
5480
21
1630
0
LINE
8
0
62
7
10
4720
20
2440
11
5366
21
1794
0
LINE
8
0
62
7
10
5419.2
20
1740.8
11
5480
21
1680
0
LINE
8
0
62
7
10
4770
20
2440
11
5480
21
1730
0
LINE
8
0
62
7
10
4820
20
2440
11
5480
21
1780
0
LINE
8
0
62
7
10
4870
20
2440
11
5480
21
1830
0
LINE
8
0
62
7
10
4920
20
2440
11
5480
21
1880
0
LINE
8
0
62
7
10
4970
20
2440
11
5480
21
1930
0
LINE
8
0
62
7
10
5020
20
2440
11
5480
21
1980
0
LINE
8
0
62
7
10
5070
20
2440
11
5480
21
2030
0
LINE
8
0
62
7
10
5120
20
2440
11
5480
21
2080
0
LINE
8
0
62
7
10
5170
20
2440
11
5480
21
2130
0
LINE
8
0
62
7
10
5220
20
2440
11
5480
21
2180
0
LINE
8
0
62
7
10
5270
20
2440
11
5480
21
2230
0
LINE
8
0
62
7
10
5320
20
2440
11
5480
21
2280
0
LINE
8
0
62
7
10
5370
20
2440
11
5480
21
2330
0
LINE
8
0
62
7
10
5420
20
2440
11
5480
21
2380
0
LINE
8
0
62
7
10
5470
20
2440
11
5480
21
2430
0
LINE
8
0
62
30
10
4265
20
5
11
5411
21
5
0
LINE
8
0
62
30
10
5411
20
5
11
5411
21
1779
0
LINE
8
0
62
30
10
5411
20
1779
11
4265
21
1779
0
LINE
8
0
62
30
10
4265
20
1779
11
4265
21
5
0
TEXT
8
0
62
7
10
4838
20
40
30
0
40
25
1
1146
72
1
11
4838
21
40
31
0
0
TEXT
8
0
62
7
10
4300
20
892
30
0
40
25
1
1774
50
90
72
1
11
4300
21
892
31
0
0
TEXT
8
0
10
4270
20
-30
40
15
1
Sheet 4
0
LINE
8
0
62
7
10
5680
20
0
11
6900
21
0
0
LINE
8
0
62
7
10
6900
20
0
11
6900
21
2440
0
LINE
8
0
62
7
10
6900
20
2440
11
5680
21
2440
0
LINE
8
0
62
7
10
5680
20
2440
11
5680
21
0
0
LINE
8
0
62
7
10
6268
20
12
11
6280
21
0
0
LINE
8
0
62
7
10
6265
20
65
11
6330
21
0
0
LINE
8
0
62
7
10
6268
20
112
11
6380
21
0
0
LINE
8
0
62
7
10
6265
20
165
11
6430
21
0
0
LINE
8
0
62
7
10
6264
20
216
11
6480
21
0
0
LINE
8
0
62
7
10
6266.5
20
263.5
11
6530
21
0
0
LINE
8
0
62
7
10
6265
20
315
11
6580
21
0
0
LINE
8
0
62
7
10
6269
20
361
11
6630
21
0
0
LINE
8
0
62
7
10
6260
20
420
11
6680
21
0
0
LINE
8
0
62
7
10
6268
20
462
11
6730
21
0
0
LINE
8
0
62
7
10
6263
20
517
11
6780
21
0
0
LINE
8
0
62
7
10
6266.5
20
563.5
11
6830
21
0
0
LINE
8
0
62
7
10
5680
20
1200
11
5716
21
1164
0
LINE
8
0
62
7
10
6268
20
612
11
6880
21
0
0
LINE
8
0
62
7
10
5680
20
1250
11
5765.4
21
1164.6
0
LINE
8
0
62
7
10
6265.6
20
664.4
11
6900
21
30
0
LINE
8
0
62
7
10
5680
20
1300
11
5814.2
21
1165.8
0
LINE
8
0
62
7
10
6265.6
20
714.4
11
6900
21
80
0
LINE
8
0
62
7
10
5680
20
1350
11
5863
21
1167
0
LINE
8
0
62
7
10
6265.6
20
764.4
11
6900
21
130
0
LINE
8
0
62
7
10
5680
20
1400
11
5911.8
21
1168.2
0
LINE
8
0
62
7
10
6265.6
20
814.4
11
6900
21
180
0
LINE
8
0
62
7
10
5680
20
1450
11
5960.6
21
1169.4
0
LINE
8
0
62
7
10
6265.6
20
864.4
11
6900
21
230
0
LINE
8
0
62
7
10
5680
20
1500
11
6009.4
21
1170.6
0
LINE
8
0
62
7
10
6265.6
20
914.4
11
6900
21
280
0
LINE
8
0
62
7
10
5680
20
1550
11
6058.2
21
1171.8
0
LINE
8
0
62
7
10
6265.6
20
964.4
11
6900
21
330
0
LINE
8
0
62
7
10
5680
20
1600
11
6107
21
1173
0
LINE
8
0
62
7
10
6265.6
20
1014.4
11
6900
21
380
0
LINE
8
0
62
7
10
5680
20
1650
11
6168
21
1162
0
LINE
8
0
62
7
10
6265.6
20
1064.4
11
6900
21
430
0
LINE
8
0
62
7
10
5680
20
1700
11
6216.8
21
1163.2
0
LINE
8
0
62
7
10
6265.6
20
1114.4
11
6900
21
480
0
LINE
8
0
62
7
10
5680
20
1750
11
6900
21
530
0
LINE
8
0
62
7
10
5680
20
1800
11
6900
21
580
0
LINE
8
0
62
7
10
5680
20
1850
11
6900
21
630
0
LINE
8
0
62
7
10
5680
20
1900
11
6900
21
680
0
LINE
8
0
62
7
10
5680
20
1950
11
6900
21
730
0
LINE
8
0
62
7
10
5680
20
2000
11
6900
21
780
0
LINE
8
0
62
7
10
5680
20
2050
11
6900
21
830
0
LINE
8
0
62
7
10
5680
20
2100
11
6900
21
880
0
LINE
8
0
62
7
10
5680
20
2150
11
6900
21
930
0
LINE
8
0
62
7
10
5680
20
2200
11
6900
21
980
0
LINE
8
0
62
7
10
5680
20
2250
11
6900
21
1030
0
LINE
8
0
62
7
10
5680
20
2300
11
6900
21
1080
0
LINE
8
0
62
7
10
5680
20
2350
11
6900
21
1130
0
LINE
8
0
62
7
10
5680
20
2400
11
6900
21
1180
0
LINE
8
0
62
7
10
5690
20
2440
11
6900
21
1230
0
LINE
8
0
62
7
10
5740
20
2440
11
6900
21
1280
0
LINE
8
0
62
7
10
5790
20
2440
11
6900
21
1330
0
LINE
8
0
62
7
10
5840
20
2440
11
6900
21
1380
0
LINE
8
0
62
7
10
5890
20
2440
11
6900
21
1430
0
LINE
8
0
62
7
10
5940
20
2440
11
6900
21
1480
0
LINE
8
0
62
7
10
5990
20
2440
11
6900
21
1530
0
LINE
8
0
62
7
10
6040
20
2440
11
6900
21
1580
0
LINE
8
0
62
7
10
6090
20
2440
11
6900
21
1630
0
LINE
8
0
62
7
10
6140
20
2440
11
6900
21
1680
0
LINE
8
0
62
7
10
6190
20
2440
11
6900
21
1730
0
LINE
8
0
62
7
10
6240
20
2440
11
6900
21
1780
0
LINE
8
0
62
7
10
6290
20
2440
11
6900
21
1830
0
LINE
8
0
62
7
10
6340
20
2440
11
6900
21
1880
0
LINE
8
0
62
7
10
6390
20
2440
11
6900
21
1930
0
LINE
8
0
62
7
10
6440
20
2440
11
6900
21
1980
0
LINE
8
0
62
7
10
6490
20
2440
11
6900
21
2030
0
LINE
8
0
62
7
10
6540
20
2440
11
6900
21
2080
0
LINE
8
0
62
7
10
6590
20
2440
11
6900
21
2130
0
LINE
8
0
62
7
10
6640
20
2440
11
6900
21
2180
0
LINE
8
0
62
7
10
6690
20
2440
11
6900
21
2230
0
LINE
8
0
62
7
10
6740
20
2440
11
6900
21
2280
0
LINE
8
0
62
7
10
6790
20
2440
11
6900
21
2330
0
LINE
8
0
62
7
10
6840
20
2440
11
6900
21
2380
0
LINE
8
0
62
7
10
6890
20
2440
11
6900
21
2430
0
LINE
8
0
62
30
10
5685
20
5
11
6259
21
5
0
LINE
8
0
62
30
10
6259
20
5
11
6259
21
1151
0
LINE
8
0
62
30
10
6259
20
1151
11
5685
21
1151
0
LINE
8
0
62
30
10
5685
20
1151
11
5685
21
5
0
TEXT
8
0
62
7
10
5972
20
40
30
0
40
25
1
574
72
1
11
5972
21
40
31
0
0
TEXT
8
0
62
7
10
5720
20
578
30
0
40
25
1
1146
50
90
72
1
11
5720
21
578
31
0
0
TEXT
8
0
10
5690
20
-30
40
15
1
Sheet 5
0
LINE
8
0
62
7
10
7100
20
0
11
8320
21
0
0
LINE
8
0
62
7
10
8320
20
0
11
8320
21
2440
0
LINE
8
0
62
7
10
8320
20
2440
11
7100
21
2440
0
LINE
8
0
62
7
10
7100
20
2440
11
7100
21
0
0
LINE
8
0
62
7
10
7924.5
20
25.5
11
7950
21
0
0
LINE
8
0
62
7
10
7928
20
72
11
8000
21
0
0
LINE
8
0
62
7
10
7926.5
20
123.5
11
8050
21
0
0
LINE
8
0
62
7
10
7930
20
170
11
8100
21
0
0
LINE
8
0
62
7
10
7929.5
20
220.5
11
8150
21
0
0
LINE
8
0
62
7
10
7925
20
275
11
8200
21
0
0
LINE
8
0
62
7
10
7928
20
322
11
8250
21
0
0
LINE
8
0
62
7
10
7928
20
372.0000000000001
11
8300
21
0
0
LINE
8
0
62
7
10
7929.6
20
420.4
11
8320
21
30
0
LINE
8
0
62
7
10
7929.6
20
470.4
11
8320
21
80
0
LINE
8
0
62
7
10
7929.6
20
520.4
11
8320
21
130
0
LINE
8
0
62
7
10
7929.6
20
570.4
11
8320
21
180
0
LINE
8
0
62
7
10
7929.6
20
620.4
11
8320
21
230
0
LINE
8
0
62
7
10
7929.6
20
670.4
11
8320
21
280
0
LINE
8
0
62
7
10
7929.6
20
720.4
11
8320
21
330
0
LINE
8
0
62
7
10
7929.6
20
770.4
11
8320
21
380
0
LINE
8
0
62
7
10
7929.6
20
820.4
11
8320
21
430
0
LINE
8
0
62
7
10
7929.6
20
870.4
11
8320
21
480
0
LINE
8
0
62
7
10
7929.6
20
920.4
11
8320
21
530
0
LINE
8
0
62
7
10
7929.6
20
970.4
11
8320
21
580
0
LINE
8
0
62
7
10
7929.6
20
1020.4
11
8320
21
630
0
LINE
8
0
62
7
10
7929.6
20
1070.4
11
8320
21
680
0
LINE
8
0
62
7
10
7929.6
20
1120.4
11
8320
21
730
0
LINE
8
0
62
7
10
7929.6
20
1170.4
11
8320
21
780
0
LINE
8
0
62
7
10
7929.6
20
1220.4
11
8320
21
830
0
LINE
8
0
62
7
10
7929.6
20
1270.4
11
8320
21
880
0
LINE
8
0
62
7
10
7929.6
20
1320.4
11
8320
21
930
0
LINE
8
0
62
7
10
7929.6
20
1370.4
11
8320
21
980
0
LINE
8
0
62
7
10
7929.6
20
1420.4
11
8320
21
1030
0
LINE
8
0
62
7
10
7234.2
20
2165.8
11
7295.2
21
2104.8
0
LINE
8
0
62
7
10
7929.6
20
1470.4
11
8320
21
1080
0
LINE
8
0
62
7
10
7100
20
2350
11
7148.8
21
2301.2
0
LINE
8
0
62
7
10
7234.2
20
2215.8
11
7344
21
2106
0
LINE
8
0
62
7
10
7929.6
20
1520.4
11
8320
21
1130
0
LINE
8
0
62
7
10
7100
20
2400
11
7209.8
21
2290.2
0
LINE
8
0
62
7
10
7234.2
20
2265.8
11
7392.8
21
2107.2
0
LINE
8
0
62
7
10
7929.6
20
1570.4
11
8320
21
1180
0
LINE
8
0
62
7
10
7110
20
2440
11
7436.7
21
2113.3
0
LINE
8
0
62
7
10
7920.7
20
1629.3
11
8320
21
1230
0
LINE
8
0
62
7
10
7160
20
2440
11
7484.8
21
2115.2
0
LINE
8
0
62
7
10
7925.6
20
1674.4
11
8320
21
1280
0
LINE
8
0
62
7
10
7210
20
2440
11
7543
21
2107
0
LINE
8
0
62
7
10
7920.4
20
1729.6
11
8320
21
1330
0
LINE
8
0
62
7
10
7260
20
2440
11
7588.6
21
2111.4
0
LINE
8
0
62
7
10
7927.8
20
1772.2
11
8320
21
1380
0
LINE
8
0
62
7
10
7310
20
2440
11
7643.3
21
2106.7
0
LINE
8
0
62
7
10
7926.1
20
1823.9
11
8320
21
1430
0
LINE
8
0
62
7
10
7360
20
2440
11
7676.8
21
2123.2
0
LINE
8
0
62
7
10
7926.4
20
1873.6
11
8320
21
1480
0
LINE
8
0
62
7
10
7410
20
2440
11
7683
21
2167
0
LINE
8
0
62
7
10
7928.7
20
1921.3000000000002
11
8320
21
1530
0
LINE
8
0
62
7
10
7460
20
2440
11
7726.6
21
2173.4
0
LINE
8
0
62
7
10
7924.4
20
1975.6
11
8320
21
1580
0
LINE
8
0
62
7
10
7510
20
2440
11
7777.3
21
2172.7
0
LINE
8
0
62
7
10
7923.1
20
2026.9
11
8320
21
1630
0
LINE
8
0
62
7
10
7560
20
2440
11
7826
21
2174
0
LINE
8
0
62
7
10
7924.8
20
2075.2
11
8320
21
1680
0
LINE
8
0
62
7
10
7610
20
2440
11
7879.8
21
2170.2
0
LINE
8
0
62
7
10
7929.5
20
2120.5
11
8320
21
1730
0
LINE
8
0
62
7
10
7660
20
2440
11
8320
21
1780
0
LINE
8
0
62
7
10
7710
20
2440
11
8320
21
1830
0
LINE
8
0
62
7
10
7760
20
2440
11
8320
21
1880
0
LINE
8
0
62
7
10
7810
20
2440
11
8320
21
1930
0
LINE
8
0
62
7
10
7860
20
2440
11
8320
21
1980
0
LINE
8
0
62
7
10
7910
20
2440
11
8320
21
2030
0
LINE
8
0
62
7
10
7960
20
2440
11
8320
21
2080
0
LINE
8
0
62
7
10
8010
20
2440
11
8320
21
2130
0
LINE
8
0
62
7
10
8060
20
2440
11
8320
21
2180
0
LINE
8
0
62
7
10
8110
20
2440
11
8320
21
2230
0
LINE
8
0
62
7
10
8160
20
2440
11
8320
21
2280
0
LINE
8
0
62
7
10
8210
20
2440
11
8320
21
2330
0
LINE
8
0
62
7
10
8260
20
2440
11
8320
21
2380
0
LINE
8
0
62
7
10
8310
20
2440
11
8320
21
2430
0
LINE
8
0
62
30
10
7105
20
5
11
7165
21
5
0
LINE
8
0
62
30
10
7165
20
5
11
7165
21
1140
0
LINE
8
0
62
30
10
7165
20
1140
11
7105
21
1140
0
LINE
8
0
62
30
10
7105
20
1140
11
7105
21
5
0
TEXT
8
0
62
7
10
7135
20
40
30
0
40
25
1
60
72
1
11
7135
21
40
31
0
0
TEXT
8
0
62
7
10
7140
20
572.5
30
0
40
25
1
1135
50
90
72
1
11
7140
21
572.5
31
0
0
LINE
8
0
62
30
10
7105
20
1145
11
7165
21
1145
0
LINE
8
0
62
30
10
7165
20
1145
11
7165
21
2280
0
LINE
8
0
62
30
10
7165
20
2280
11
7105
21
2280
0
LINE
8
0
62
30
10
7105
20
2280
11
7105
21
1145
0
TEXT
8
0
62
7
10
7135
20
1180
30
0
40
25
1
60
72
1
11
7135
21
1180
31
0
0
TEXT
8
0
62
7
10
7140
20
1712.5
30
0
40
25
1
1135
50
90
72
1
11
7140
21
1712.5
31
0
0
LINE
8
0
62
30
10
7170
20
5
11
7230
21
5
0
LINE
8
0
62
30
10
7230
20
5
11
7230
21
1140
0
LINE
8
0
62
30
10
7230
20
1140
11
7170
21
1140
0
LINE
8
0
62
30
10
7170
20
1140
11
7170
21
5
0
TEXT
8
0
62
7
10
7200
20
40
30
0
40
25
1
60
72
1
11
7200
21
40
31
0
0
TEXT
8
0
62
7
10
7205
20
572.5
30
0
40
25
1
1135
50
90
72
1
11
7205
21
572.5
31
0
0
LINE
8
0
62
30
10
7170
20
1145
11
7230
21
1145
0
LINE
8
0
62
30
10
7230
20
1145
11
7230
21
2280
0
LINE
8
0
62
30
10
7230
20
2280
11
7170
21
2280
0
LINE
8
0
62
30
10
7170
20
2280
11
7170
21
1145
0
TEXT
8
0
62
7
10
7200
20
1180
30
0
40
25
1
60
72
1
11
7200
21
1180
31
0
0
TEXT
8
0
62
7
10
7205
20
1712.5
30
0
40
25
1
1135
50
90
72
1
11
7205
21
1712.5
31
0
0
LINE
8
0
62
30
10
7235
20
5
11
7460
21
5
0
LINE
8
0
62
30
10
7460
20
5
11
7460
21
1047
0
LINE
8
0
62
30
10
7460
20
1047
11
7235
21
1047
0
LINE
8
0
62
30
10
7235
20
1047
11
7235
21
5
0
TEXT
8
0
62
7
10
7347.5
20
40
30
0
40
25
1
225
72
1
11
7347.5
21
40
31
0
0
TEXT
8
0
62
7
10
7270
20
526
30
0
40
25
1
1042
50
90
72
1
11
7270
21
526
31
0
0
LINE
8
0
62
30
10
7235
20
1052
11
7460
21
1052
0
LINE
8
0
62
30
10
7460
20
1052
11
7460
21
2094
0
LINE
8
0
62
30
10
7460
20
2094
11
7235
21
2094
0
LINE
8
0
62
30
10
7235
20
2094
11
7235
21
1052
0
TEXT
8
0
62
7
10
7347.5
20
1087
30
0
40
25
1
225
72
1
11
7347.5
21
1087
31
0
0
TEXT
8
0
62
7
10
7270
20
1573
30
0
40
25
1
1042
50
90
72
1
11
7270
21
1573
31
0
0
LINE
8
0
62
30
10
7465
20
5
11
7690
21
5
0
LINE
8
0
62
30
10
7690
20
5
11
7690
21
1047
0
LINE
8
0
62
30
10
7690
20
1047
11
7465
21
1047
0
LINE
8
0
62
30
10
7465
20
1047
11
7465
21
5
0
TEXT
8
0
62
7
10
7577.5
20
40
30
0
40
25
1
225
72
1
11
7577.5
21
40
31
0
0
TEXT
8
0
62
7
10
7500
20
526
30
0
40
25
1
1042
50
90
72
1
11
7500
21
526
31
0
0
LINE
8
0
62
30
10
7465
20
1052
11
7690
21
1052
0
LINE
8
0
62
30
10
7690
20
1052
11
7690
21
2094
0
LINE
8
0
62
30
10
7690
20
2094
11
7465
21
2094
0
LINE
8
0
62
30
10
7465
20
2094
11
7465
21
1052
0
TEXT
8
0
62
7
10
7577.5
20
1087
30
0
40
25
1
225
72
1
11
7577.5
21
1087
31
0
0
TEXT
8
0
62
7
10
7500
20
1573
30
0
40
25
1
1042
50
90
72
1
11
7500
21
1573
31
0
0
LINE
8
0
62
30
10
7695
20
5
11
7920
21
5
0
LINE
8
0
62
30
10
7920
20
5
11
7920
21
540
0
LINE
8
0
62
30
10
7920
20
540
11
7695
21
540
0
LINE
8
0
62
30
10
7695
20
540
11
7695
21
5
0
TEXT
8
0
62
7
10
7807.5
20
40
30
0
40
25
1
225
72
1
11
7807.5
21
40
31
0
0
TEXT
8
0
62
7
10
7730
20
272.5
30
0
40
25
1
535
50
90
72
1
11
7730
21
272.5
31
0
0
LINE
8
0
62
30
10
7695
20
545
11
7920
21
545
0
LINE
8
0
62
30
10
7920
20
545
11
7920
21
1080
0
LINE
8
0
62
30
10
7920
20
1080
11
7695
21
1080
0
LINE
8
0
62
30
10
7695
20
1080
11
7695
21
545
0
TEXT
8
0
62
7
10
7807.5
20
580
30
0
40
25
1
225
72
1
11
7807.5
21
580
31
0
0
TEXT
8
0
62
7
10
7730
20
812.5
30
0
40
25
1
535
50
90
72
1
11
7730
21
812.5
31
0
0
LINE
8
0
62
30
10
7695
20
1085
11
7920
21
1085
0
LINE
8
0
62
30
10
7920
20
1085
11
7920
21
1620
0
LINE
8
0
62
30
10
7920
20
1620
11
7695
21
1620
0
LINE
8
0
62
30
10
7695
20
1620
11
7695
21
1085
0
TEXT
8
0
62
7
10
7807.5
20
1120
30
0
40
25
1
225
72
1
11
7807.5
21
1120
31
0
0
TEXT
8
0
62
7
10
7730
20
1352.5
30
0
40
25
1
535
50
90
72
1
11
7730
21
1352.5
31
0
0
LINE
8
0
62
30
10
7695
20
1625
11
7920
21
1625
0
LINE
8
0
62
30
10
7920
20
1625
11
7920
21
2160
0
LINE
8
0
62
30
10
7920
20
2160
11
7695
21
2160
0
LINE
8
0
62
30
10
7695
20
2160
11
7695
21
1625
0
TEXT
8
0
62
7
10
7807.5
20
1660
30
0
40
25
1
225
72
1
11
7807.5
21
1660
31
0
0
TEXT
8
0
62
7
10
7730
20
1892.5
30
0
40
25
1
535
50
90
72
1
11
7730
21
1892.5
31
0
0
TEXT
8
0
10
7110
20
-30
40
15
1
Sheet 6
0
LINE
8
0
62
7
10
8520
20
0
11
9740
21
0
0
LINE
8
0
62
7
10
9740
20
0
11
9740
21
2440
0
LINE
8
0
62
7
10
9740
20
2440
11
8520
21
2440
0
LINE
8
0
62
7
10
8520
20
2440
11
8520
21
0
0
LINE
8
0
62
7
10
8790
20
30
11
8820
21
0
0
LINE
8
0
62
7
10
8789.5
20
80.5
11
8870
21
0
0
LINE
8
0
62
7
10
8788
20
132
11
8920
21
0
0
LINE
8
0
62
7
10
8790
20
180
11
8970
21
0
0
LINE
8
0
62
7
10
8790
20
230
11
9020
21
0
0
LINE
8
0
62
7
10
8789.5
20
280.5
11
9070
21
0
0
LINE
8
0
62
7
10
8790
20
330
11
9120
21
0
0
LINE
8
0
62
7
10
8786.5
20
383.5
11
9170
21
0
0
LINE
8
0
62
7
10
8786
20
434
11
9220
21
0
0
LINE
8
0
62
7
10
8790
20
480
11
9270
21
0
0
LINE
8
0
62
7
10
8784
20
536
11
9320
21
0
0
LINE
8
0
62
7
10
8783.5
20
586.5
11
9370
21
0
0
LINE
8
0
62
7
10
8790
20
630
11
9420
21
0
0
LINE
8
0
62
7
10
8786
20
684
11
9470
21
0
0
LINE
8
0
62
7
10
8790
20
730
11
9520
21
0
0
LINE
8
0
62
7
10
8782.5
20
787.5
11
9570
21
0
0
LINE
8
0
62
7
10
8784
20
836
11
9620
21
0
0
LINE
8
0
62
7
10
8784.5
20
885.5
11
9670
21
0
0
LINE
8
0
62
7
10
8784
20
936
11
9720
21
0
0
LINE
8
0
62
7
10
8788.4
20
981.6
11
9740
21
30
0
LINE
8
0
62
7
10
8788.4
20
1031.6
11
9740
21
80
0
LINE
8
0
62
7
10
8788.4
20
1081.6
11
9740
21
130
0
LINE
8
0
62
7
10
8788.4
20
1131.6
11
9740
21
180
0
LINE
8
0
62
7
10
8788.4
20
1181.6
11
9740
21
230
0
LINE
8
0
62
7
10
8788.4
20
1231.6
11
9740
21
280
0
LINE
8
0
62
7
10
8788.4
20
1281.6
11
9740
21
330
0
LINE
8
0
62
7
10
8788.4
20
1331.6
11
9740
21
380
0
LINE
8
0
62
7
10
8788.4
20
1381.6
11
9740
21
430
0
LINE
8
0
62
7
10
8788.4
20
1431.6
11
9740
21
480
0
LINE
8
0
62
7
10
8788.4
20
1481.6
11
9740
21
530
0
LINE
8
0
62
7
10
8788.4
20
1531.6
11
9740
21
580
0
LINE
8
0
62
7
10
8788.4
20
1581.6
11
9740
21
630
0
LINE
8
0
62
7
10
8788.4
20
1631.6
11
9740
21
680
0
LINE
8
0
62
7
10
8788.4
20
1681.6
11
9740
21
730
0
LINE
8
0
62
7
10
8788.4
20
1731.6
11
9740
21
780
0
LINE
8
0
62
7
10
8788.4
20
1781.6
11
9740
21
830
0
LINE
8
0
62
7
10
8788.4
20
1831.6
11
9740
21
880
0
LINE
8
0
62
7
10
8788.4
20
1881.6
11
9740
21
930
0
LINE
8
0
62
7
10
8788.4
20
1931.6
11
9740
21
980
0
LINE
8
0
62
7
10
8788.4
20
1981.6
11
9740
21
1030
0
LINE
8
0
62
7
10
8788.4
20
2031.6
11
9740
21
1080
0
LINE
8
0
62
7
10
8788.4
20
2081.6
11
9740
21
1130
0
LINE
8
0
62
7
10
8520
20
2400
11
8544.4
21
2375.6
0
LINE
8
0
62
7
10
8788.4
20
2131.6
11
9740
21
1180
0
LINE
8
0
62
7
10
8530
20
2440
11
8602.6
21
2367.4
0
LINE
8
0
62
7
10
8784.1
20
2185.9
11
9740
21
1230
0
LINE
8
0
62
7
10
8580
20
2440
11
8649.6
21
2370.4
0
LINE
8
0
62
7
10
8788.8
20
2231.2
11
9740
21
1280
0
LINE
8
0
62
7
10
8630
20
2440
11
8696.6
21
2373.4
0
LINE
8
0
62
7
10
8785.4
20
2284.6
11
9740
21
1330
0
LINE
8
0
62
7
10
8680
20
2440
11
8754.2
21
2365.8
0
LINE
8
0
62
7
10
8786
20
2334
11
9740
21
1380
0
LINE
8
0
62
7
10
8730
20
2440
11
9740
21
1430
0
LINE
8
0
62
7
10
8780
20
2440
11
9740
21
1480
0
LINE
8
0
62
7
10
8830
20
2440
11
9740
21
1530
0
LINE
8
0
62
7
10
8880
20
2440
11
9740
21
1580
0
LINE
8
0
62
7
10
8930
20
2440
11
9740
21
1630
0
LINE
8
0
62
7
10
8980
20
2440
11
9740
21
1680
0
LINE
8
0
62
7
10
9030
20
2440
11
9740
21
1730
0
LINE
8
0
62
7
10
9080
20
2440
11
9740
21
1780
0
LINE
8
0
62
7
10
9130
20
2440
11
9740
21
1830
0
LINE
8
0
62
7
10
9180
20
2440
11
9740
21
1880
0
LINE
8
0
62
7
10
9230
20
2440
11
9740
21
1930
0
LINE
8
0
62
7
10
9280
20
2440
11
9740
21
1980
0
LINE
8
0
62
7
10
9330
20
2440
11
9740
21
2030
0
LINE
8
0
62
7
10
9380
20
2440
11
9740
21
2080
0
LINE
8
0
62
7
10
9430
20
2440
11
9740
21
2130
0
LINE
8
0
62
7
10
9480
20
2440
11
9740
21
2180
0
LINE
8
0
62
7
10
9530
20
2440
11
9740
21
2230
0
LINE
8
0
62
7
10
9580
20
2440
11
9740
21
2280
0
LINE
8
0
62
7
10
9630
20
2440
11
9740
21
2330
0
LINE
8
0
62
7
10
9680
20
2440
11
9740
21
2380
0
LINE
8
0
62
7
10
9730
20
2440
11
9740
21
2430
0
LINE
8
0
62
30
10
8525
20
5
11
8780
21
5
0
LINE
8
0
62
30
10
8780
20
5
11
8780
21
1177
0
LINE
8
0
62
30
10
8780
20
1177
11
8525
21
1177
0
LINE
8
0
62
30
10
8525
20
1177
11
8525
21
5
0
TEXT
8
0
62
7
10
8652.5
20
40
30
0
40
25
1
255
72
1
11
8652.5
21
40
31
0
0
TEXT
8
0
62
7
10
8560
20
591
30
0
40
25
1
1172
50
90
72
1
11
8560
21
591
31
0
0
LINE
8
0
62
30
10
8525
20
1182
11
8780
21
1182
0
LINE
8
0
62
30
10
8780
20
1182
11
8780
21
2354
0
LINE
8
0
62
30
10
8780
20
2354
11
8525
21
2354
0
LINE
8
0
62
30
10
8525
20
2354
11
8525
21
1182
0
TEXT
8
0
62
7
10
8652.5
20
1217
30
0
40
25
1
255
72
1
11
8652.5
21
1217
31
0
0
TEXT
8
0
62
7
10
8560
20
1768
30
0
40
25
1
1172
50
90
72
1
11
8560
21
1768
31
0
0
TEXT
8
0
10
8530
20
-30
40
15
1
Sheet 7
0
LINE
8
0
62
7
10
9940
20
0
11
11160
21
0
0
LINE
8
0
62
7
10
11160
20
0
11
11160
21
2440
0
LINE
8
0
62
7
10
11160
20
2440
11
9940
21
2440
0
LINE
8
0
62
7
10
9940
20
2440
11
9940
21
0
0
LINE
8
0
62
7
10
10468
20
22
11
10490
21
0
0
LINE
8
0
62
7
10
10468
20
72
11
10540
21
0
0
LINE
8
0
62
7
10
10466.5
20
123.5
11
10590
21
0
0
LINE
8
0
62
7
10
10465
20
175
11
10640
21
0
0
LINE
8
0
62
7
10
10465
20
225
11
10690
21
0
0
LINE
8
0
62
7
10
10468
20
272
11
10740
21
0
0
LINE
8
0
62
7
10
10467
20
323
11
10790
21
0
0
LINE
8
0
62
7
10
10462
20
378
11
10840
21
0
0
LINE
8
0
62
7
10
10462.5
20
427.5
11
10890
21
0
0
LINE
8
0
62
7
10
10470
20
470
11
10940
21
0
0
LINE
8
0
62
7
10
10465
20
525
11
10990
21
0
0
LINE
8
0
62
7
10
10468
20
572
11
11040
21
0
0
LINE
8
0
62
7
10
10469
20
621
11
11090
21
0
0
LINE
8
0
62
7
10
10468
20
672
11
11140
21
0
0
LINE
8
0
62
7
10
10464.6
20
725.4
11
11160
21
30
0
LINE
8
0
62
7
10
10464.6
20
775.4
11
11160
21
80
0
LINE
8
0
62
7
10
10464.6
20
825.4
11
11160
21
130
0
LINE
8
0
62
7
10
10464.6
20
875.4
11
11160
21
180
0
LINE
8
0
62
7
10
10464.6
20
925.4
11
11160
21
230
0
LINE
8
0
62
7
10
10464.6
20
975.4
11
11160
21
280
0
LINE
8
0
62
7
10
10464.6
20
1025.4
11
11160
21
330
0
LINE
8
0
62
7
10
10464.6
20
1075.4
11
11160
21
380
0
LINE
8
0
62
7
10
10464.6
20
1125.4
11
11160
21
430
0
LINE
8
0
62
7
10
10464.6
20
1175.4
11
11160
21
480
0
LINE
8
0
62
7
10
10464.6
20
1225.4
11
11160
21
530
0
LINE
8
0
62
7
10
10464.6
20
1275.4
11
11160
21
580
0
LINE
8
0
62
7
10
10464.6
20
1325.4
11
11160
21
630
0
LINE
8
0
62
7
10
10464.6
20
1375.4
11
11160
21
680
0
LINE
8
0
62
7
10
10464.6
20
1425.4
11
11160
21
730
0
LINE
8
0
62
7
10
10464.6
20
1475.4
11
11160
21
780
0
LINE
8
0
62
7
10
10464.6
20
1525.4
11
11160
21
830
0
LINE
8
0
62
7
10
10464.6
20
1575.4
11
11160
21
880
0
LINE
8
0
62
7
10
9940
20
2150
11
9964.4
21
2125.6
0
LINE
8
0
62
7
10
10464.6
20
1625.4
11
11160
21
930
0
LINE
8
0
62
7
10
9940
20
2200
11
10013.2
21
2126.8
0
LINE
8
0
62
7
10
10464.6
20
1675.4
11
11160
21
980
0
LINE
8
0
62
7
10
9940
20
2250
11
10062
21
2128
0
LINE
8
0
62
7
10
10464.6
20
1725.4
11
11160
21
1030
0
LINE
8
0
62
7
10
9940
20
2300
11
10110.8
21
2129.2
0
LINE
8
0
62
7
10
10464.6
20
1775.4
11
11160
21
1080
0
LINE
8
0
62
7
10
9940
20
2350
11
10159.6
21
2130.4
0
LINE
8
0
62
7
10
10464.6
20
1825.4
11
11160
21
1130
0
LINE
8
0
62
7
10
9940
20
2400
11
10208.4
21
2131.6
0
LINE
8
0
62
7
10
10464.6
20
1875.4
11
11160
21
1180
0
LINE
8
0
62
7
10
9950
20
2440
11
10264.6
21
2125.4
0
LINE
8
0
62
7
10
10458.2
20
1931.8
11
11160
21
1230
0
LINE
8
0
62
7
10
10000
20
2440
11
10313.2
21
2126.8
0
LINE
8
0
62
7
10
10464
20
1976
11
11160
21
1280
0
LINE
8
0
62
7
10
10050
20
2440
11
10360.8
21
2129.2
0
LINE
8
0
62
7
10
10460.7
20
2029.3
11
11160
21
1330
0
LINE
8
0
62
7
10
10100
20
2440
11
10407.4
21
2132.6
0
LINE
8
0
62
7
10
10460.4
20
2079.6
11
11160
21
1380
0
LINE
8
0
62
7
10
10150
20
2440
11
11160
21
1430
0
LINE
8
0
62
7
10
10200
20
2440
11
11160
21
1480
0
LINE
8
0
62
7
10
10250
20
2440
11
11160
21
1530
0
LINE
8
0
62
7
10
10300
20
2440
11
11160
21
1580
0
LINE
8
0
62
7
10
10350
20
2440
11
11160
21
1630
0
LINE
8
0
62
7
10
10400
20
2440
11
11160
21
1680
0
LINE
8
0
62
7
10
10450
20
2440
11
11160
21
1730
0
LINE
8
0
62
7
10
10500
20
2440
11
11160
21
1780
0
LINE
8
0
62
7
10
10550
20
2440
11
11160
21
1830
0
LINE
8
0
62
7
10
10600
20
2440
11
11160
21
1880
0
LINE
8
0
62
7
10
10650
20
2440
11
11160
21
1930
0
LINE
8
0
62
7
10
10700
20
2440
11
11160
21
1980
0
LINE
8
0
62
7
10
10750
20
2440
11
11160
21
2030
0
LINE
8
0
62
7
10
10800
20
2440
11
11160
21
2080
0
LINE
8
0
62
7
10
10850
20
2440
11
11160
21
2130
0
LINE
8
0
62
7
10
10900
20
2440
11
11160
21
2180
0
LINE
8
0
62
7
10
10950
20
2440
11
11160
21
2230
0
LINE
8
0
62
7
10
11000
20
2440
11
11160
21
2280
0
LINE
8
0
62
7
10
11050
20
2440
11
11160
21
2330
0
LINE
8
0
62
7
10
11100
20
2440
11
11160
21
2380
0
LINE
8
0
62
7
10
11150
20
2440
11
11160
21
2430
0
LINE
8
0
62
30
10
9945
20
5
11
10460
21
5
0
LINE
8
0
62
30
10
10460
20
5
11
10460
21
1057
0
LINE
8
0
62
30
10
10460
20
1057
11
9945
21
1057
0
LINE
8
0
62
30
10
9945
20
1057
11
9945
21
5
0
TEXT
8
0
62
7
10
10202.5
20
40
30
0
40
25
1
515
72
1
11
10202.5
21
40
31
0
0
TEXT
8
0
62
7
10
9980
20
531
30
0
40
25
1
1052
50
90
72
1
11
9980
21
531
31
0
0
LINE
8
0
62
30
10
9945
20
1062
11
10460
21
1062
0
LINE
8
0
62
30
10
10460
20
1062
11
10460
21
2114
0
LINE
8
0
62
30
10
10460
20
2114
11
9945
21
2114
0
LINE
8
0
62
30
10
9945
20
2114
11
9945
21
1062
0
TEXT
8
0
62
7
10
10202.5
20
1097
30
0
40
25
1
515
72
1
11
10202.5
21
1097
31
0
0
TEXT
8
0
62
7
10
9980
20
1588
30
0
40
25
1
1052
50
90
72
1
11
9980
21
1588
31
0
0
TEXT
8
0
10
9950
20
-30
40
15
1
Sheet 8
0
ENDSEC
0
EOF