<?xml version="1.0" encoding="UTF-8"?>
<svg xmlns="http://www.w3.org/2000/svg" viewBox="0 0 80 55" stroke="#FF00FF" fill="none" stroke-width="1">
  <defs>
    <g id="screw_cross">
      <!-- 십자 나사 헤드 패턴 -->
      <circle cx="0" cy="0" r="3.5"/>
      <line x1="0" y1="-3.5" x2="0" y2="3.5"/>
      <line x1="-3.5" y1="0" x2="3.5" y2="0"/>
    </g>
  </defs>

  <!-- 좌측 베이스 플레이트 (12mm 돌출 직사각형) -->
  <rect x="0" y="10" width="12" height="35" rx="1" ry="1"/>

  <!-- 좌측 원형 플레이트 (직경 35mm) -->
  <circle cx="17.5" cy="27.5" r="17.5"/>

  <!-- 메인 바디 (수평 막대, 두께 16.5mm) -->
  <rect x="12" y="19.25" width="56" height="16.5" rx="2" ry="2"/>

  <!-- 좌측 나사 디테일 (원 + 십자) -->
  <use href="#screw_cross" x="20" y="27.5"/>

  <!-- 중앙 타원형 슬롯 -->
  <ellipse cx="35" cy="27.5" rx="10" ry="2.5"/>

  <!-- 우측 슬롯 (23mm 길이) -->
  <ellipse cx="57" cy="27.5" rx="11.5" ry="2.5"/>

  <!-- 우측 나사 디테일 -->
  <use href="#screw_cross" x="57" y="27.5"/>

  <!-- 우측 끝단 캡 -->
  <rect x="68" y="25.5" width="5" height="4" rx="1" ry="1"/>

  <!-- 상부 패드 (라운드 사각형) -->
  <g id="upper_pad">
    <!-- 외곽 -->
    <rect x="40" y="0" width="18" height="10" rx="3" ry="3"/>
    <!-- 내부 이중선 -->
    <rect x="41" y="1" width="16" height="8" rx="2.5" ry="2.5"/>
    <!-- 중앙 슬롯 -->
    <ellipse cx="49" cy="5" rx="5.5" ry="2.5"/>
    <ellipse cx="49" cy="5" rx="3" ry="1.5"/>
    <!-- 리브 (수평선들) -->
    <line x1="42" y1="3" x2="47" y2="3"/>
    <line x1="42" y1="4" x2="47" y2="4"/>
    <line x1="42" y1="5" x2="47" y2="5"/>
    <line x1="42" y1="6" x2="47" y2="6"/>
    <line x1="42" y1="7" x2="47" y2="7"/>
    <line x1="51" y1="3" x2="56" y2="3"/>
    <line x1="51" y1="4" x2="56" y2="4"/>
    <line x1="51" y1="5" x2="56" y2="5"/>
    <line x1="51" y1="6" x2="56" y2="6"/>
    <line x1="51" y1="7" x2="56" y2="7"/>
    <!-- 중심 원 -->
    <circle cx="49" cy="5" r="1.2"/>
  </g>

  <!-- 하부 패드 (상부와 대칭) -->
  <g id="lower_pad">
    <!-- 외곽 -->
    <rect x="40" y="45" width="18" height="10" rx="3" ry="3"/>
    <!-- 내부 이중선 -->
    <rect x="41" y="46" width="16" height="8" rx="2.5" ry="2.5"/>
    <!-- 중앙 슬롯 -->
    <ellipse cx="49" cy="50" rx="5.5" ry="2.5"/>
    <ellipse cx="49" cy="50" rx="3" ry="1.5"/>
    <!-- 리브 (수평선들) -->
    <line x1="42" y1="47" x2="47" y2="47"/>
    <line x1="42" y1="48" x2="47" y2="48"/>
    <line x1="42" y1="49" x2="47" y2="49"/>
    <line x1="42" y1="50" x2="47" y2="50"/>
    <line x1="42" y1="51" x2="47" y2="51"/>
    <line x1="42" y1="52" x2="47" y2="52"/>
    <line x1="51" y1="47" x2="56" y2="47"/>
    <line x1="51" y1="48" x2="56" y2="48"/>
    <line x1="51" y1="49" x2="56" y2="49"/>
    <line x1="51" y1="50" x2="56" y2="50"/>
    <line x1="51" y1="51" x2="56" y2="51"/>
    <line x1="51" y1="52" x2="56" y2="52"/>
    <!-- 중심 원 -->
    <circle cx="49" cy="50" r="1.2"/>
  </g>

  <!-- 상부 좌측 플레어 (삼각 보강) -->
  <polygon points="12,19.25 30,10 40,10 40,19.25"/>

  <!-- 상부 우측 플레어 -->
  <polygon points="58,10 68,19.25 58,19.25"/>

  <!-- 하부 좌측 플레어 -->
  <polygon points="12,35.75 30,45 40,45 40,35.75"/>

  <!-- 하부 우측 플레어 -->
  <polygon points="58,35.75 58,45 68,35.75"/>
</svg>
