<?xml version="1.0" encoding="UTF-8"?>
<svg xmlns="http://www.w3.org/2000/svg" viewBox="0 0 80 55" stroke="#FF00FF" fill="none" stroke-width="0.5">
  <!-- 좌측 원형 플레이트 (Ø35mm, 중심 x=17.5, y=27.5) -->
  <circle cx="17.5" cy="27.5" r="17.5"/>

  <!-- 좌측 직사각 베이스 (12mm 돌출) -->
  <path d="M 0,10.5 L 12,10.5 L 12,44.5 L 0,44.5 Z"/>

  <!-- 메인 바디 (중앙 암, 두께 16.5mm, 센터 y=27.5) -->
  <!-- 상단: y=27.5-8.25=19.25, 하단: y=27.5+8.25=35.75 -->
  <path d="M 12,19.25 L 73,19.25 L 73,35.75 L 12,35.75 Z"/>

  <!-- 바디 우측 끝단 캡 (rounded) -->
  <path d="M 73,19.25 L 76,19.25 A 2,2 0 0 1 78,21.25 L 78,33.75 A 2,2 0 0 1 76,35.75 L 73,35.75"/>

  <!-- 좌측 나사 디테일 (원 + 십자, 중심 x=22, y=27.5) -->
  <circle cx="22" cy="27.5" r="3.5"/>
  <line x1="22" y1="24" x2="22" y2="31"/>
  <line x1="18.5" y1="27.5" x2="25.5" y2="27.5"/>

  <!-- 중앙 타원형 슬롯 (x=37, y=27.5) -->
  <ellipse cx="37" cy="27.5" rx="10" ry="2.5"/>

  <!-- 우측 슬롯 (23mm 길이, 중심 x=60) -->
  <ellipse cx="60" cy="27.5" rx="11.5" ry="2.5"/>

  <!-- 우측 나사 디테일 (원 + 십자, 중심 x=60, y=27.5) -->
  <circle cx="60" cy="27.5" r="3.5"/>
  <line x1="60" y1="24" x2="60" y2="31"/>
  <line x1="56.5" y1="27.5" x2="63.5" y2="27.5"/>

  <!-- 상부 패드 (rounded rectangle) -->
  <rect x="42" y="0.5" width="18" height="10" rx="3" ry="3"/>

  <!-- 상부 패드 내부 이중선 -->
  <rect x="43" y="1.5" width="16" height="8" rx="2.5" ry="2.5"/>

  <!-- 상부 패드 중앙 슬롯 (세로 타원) -->
  <ellipse cx="51" cy="5.5" rx="2.5" ry="5"/>
  <ellipse cx="51" cy="5.5" rx="1.5" ry="3"/>
  <circle cx="51" cy="5.5" r="1.2"/>

  <!-- 상부 패드 리브 (수평선들) -->
  <line x1="43.5" y1="2.5" x2="48.5" y2="2.5"/>
  <line x1="43.5" y1="3.5" x2="48.5" y2="3.5"/>
  <line x1="43.5" y1="4.5" x2="48.5" y2="4.5"/>
  <line x1="43.5" y1="5.5" x2="48.5" y2="5.5"/>
  <line x1="43.5" y1="6.5" x2="48.5" y2="6.5"/>
  <line x1="43.5" y1="7.5" x2="48.5" y2="7.5"/>
  <line x1="43.5" y1="8.5" x2="48.5" y2="8.5"/>
  <line x1="53.5" y1="2.5" x2="58.5" y2="2.5"/>
  <line x1="53.5" y1="3.5" x2="58.5" y2="3.5"/>
  <line x1="53.5" y1="4.5" x2="58.5" y2="4.5"/>
  <line x1="53.5" y1="5.5" x2="58.5" y2="5.5"/>
  <line x1="53.5" y1="6.5" x2="58.5" y2="6.5"/>
  <line x1="53.5" y1="7.5" x2="58.5" y2="7.5"/>
  <line x1="53.5" y1="8.5" x2="58.5" y2="8.5"/>

  <!-- 하부 패드 (rounded rectangle, 상부와 대칭) -->
  <rect x="42" y="44.5" width="18" height="10" rx="3" ry="3"/>

  <!-- 하부 패드 내부 이중선 -->
  <rect x="43" y="45.5" width="16" height="8" rx="2.5" ry="2.5"/>

  <!-- 하부 패드 중앙 슬롯 (세로 타원) -->
  <ellipse cx="51" cy="49.5" rx="2.5" ry="5"/>
  <ellipse cx="51" cy="49.5" rx="1.5" ry="3"/>
  <circle cx="51" cy="49.5" r="1.2"/>

  <!-- 하부 패드 리브 (수평선들) -->
  <line x1="43.5" y1="46.5" x2="48.5" y2="46.5"/>
  <line x1="43.5" y1="47.5" x2="48.5" y2="47.5"/>
  <line x1="43.5" y1="48.5" x2="48.5" y2="48.5"/>
  <line x1="43.5" y1="49.5" x2="48.5" y2="49.5"/>
  <line x1="43.5" y1="50.5" x2="48.5" y2="50.5"/>
  <line x1="43.5" y1="51.5" x2="48.5" y2="51.5"/>
  <line x1="43.5" y1="52.5" x2="48.5" y2="52.5"/>
  <line x1="53.5" y1="46.5" x2="58.5" y2="46.5"/>
  <line x1="53.5" y1="47.5" x2="58.5" y2="47.5"/>
  <line x1="53.5" y1="48.5" x2="58.5" y2="48.5"/>
  <line x1="53.5" y1="49.5" x2="58.5" y2="49.5"/>
  <line x1="53.5" y1="50.5" x2="58.5" y2="50.5"/>
  <line x1="53.5" y1="51.5" x2="58.5" y2="51.5"/>
  <line x1="53.5" y1="52.5" x2="58.5" y2="52.5"/>

  <!-- 상부 좌측 플레어 (삼각 보강) -->
  <path d="M 12,19.25 L 32,10.5 L 42,10.5 L 42,19.25 Z"/>

  <!-- 상부 우측 플레어 -->
  <path d="M 60,10.5 L 71,19.25 L 60,19.25 Z"/>

  <!-- 하부 좌측 플레어 -->
  <path d="M 12,35.75 L 32,44.5 L 42,44.5 L 42,35.75 Z"/>

  <!-- 하부 우측 플레어 -->
  <path d="M 60,35.75 L 60,44.5 L 71,35.75 Z"/>

  <!-- 좌측 플레이트와 바디 연결 라운딩 -->
  <path d="M 12,19.25 Q 17.5,19.25 17.5,10"/>
  <path d="M 12,35.75 Q 17.5,35.75 17.5,45"/>
</svg>
