<svg xmlns="http://www.w3.org/2000/svg" viewBox="0 0 440 310" width="440" height="310">
  <!-- dual-upper-cabinet-open: 상부장 기본 듀얼 - 오픈형 빈 박스 + 칸막이 -->
  <!-- 듀얼은 가로가 더 넓음 -->

  <!-- 좌표: 앞좌(48,70)→앞우(360,34)→뒤우(392,10)→뒤좌(80,46) -->

  <!-- 백패널 -->
  <polygon fill="#BABABA" stroke="#909090" stroke-width="0.5"
    points="80,46 392,10 392,200 80,236"/>
  <!-- 좌측 내벽 -->
  <polygon fill="#B0B0B0" stroke="#909090" stroke-width="0.5"
    points="48,70 80,46 80,236 48,260"/>
  <!-- 바닥 내면 -->
  <polygon fill="#C5C5C5" stroke="#909090" stroke-width="0.5"
    points="48,260 80,236 392,200 360,224"/>

  <!-- 칸막이 (중앙) -->
  <polygon fill="#C0C0C0" stroke="#888" stroke-width="0.8"
    points="200,70 236,46 236,218 200,242"/>
  <polygon fill="#B0B0B0" stroke="#888" stroke-width="0.5"
    points="200,70 200,242 204,240 204,68"/>

  <!-- 우측판 -->
  <polygon fill="#9A9A9A" stroke="#757575" stroke-width="1.2"
    points="360,34 392,10 392,200 360,224"/>

  <!-- 상판 윗면 -->
  <polygon fill="#DCDCDC" stroke="#757575" stroke-width="1.2"
    points="48,70 80,46 392,10 360,34 360,26 48,26"/>
  <polygon fill="#C5C5C5" stroke="#757575" stroke-width="1"
    points="48,26 48,70 360,34 360,26"/>

  <!-- 좌측판 -->
  <polygon fill="#CCCCCC" stroke="#757575" stroke-width="1.2"
    points="40,26 48,26 48,260 40,268"/>

  <!-- 하판 -->
  <polygon fill="#C5C5C5" stroke="#757575" stroke-width="1"
    points="40,268 48,260 360,224 360,232"/>
  <polygon fill="#A8A8A8" stroke="#757575" stroke-width="0.6"
    points="40,268 360,232 392,208 392,200 360,224 48,260 40,268"/>
  <polygon fill="#949494" stroke="#757575" stroke-width="0.6"
    points="360,224 360,232 392,208 392,200"/>

  <!-- 하단 마감판 -->
  <polygon fill="#E2D9CD" stroke="#B0A090" stroke-width="1"
    points="39,276 47,268 361,232 361,240"/>
  <polygon fill="#D5CCBF" stroke="#B0A090" stroke-width="0.6"
    points="39,276 361,240 393,216 393,208 361,232 47,268 39,276"/>
  <polygon fill="#C8BFB2" stroke="#B0A090" stroke-width="0.6"
    points="361,232 361,240 393,216 393,208"/>
</svg>