<svg xmlns="http://www.w3.org/2000/svg" viewBox="0 0 440 310" width="440" height="310">
  <!-- dual-upper-cabinet-shelf: 상부장 3단형 듀얼 - 선반 2개 + 칸막이, 도어 닫힘 -->

  <!-- 우측판 -->
  <polygon fill="#9A9A9A" stroke="#757575" stroke-width="1.2"
    points="360,34 392,10 392,200 360,224"/>

  <!-- 상판 윗면 -->
  <polygon fill="#DCDCDC" stroke="#757575" stroke-width="1.2"
    points="48,70 80,46 392,10 360,34 360,26 48,26"/>
  <polygon fill="#C5C5C5" stroke="#757575" stroke-width="1"
    points="48,26 48,70 360,34 360,26"/>

  <!-- 좌측판 -->
  <polygon fill="#CCCCCC" stroke="#757575" stroke-width="1.2"
    points="40,26 48,26 48,260 40,268"/>

  <!-- 도어 (전면 전체) -->
  <polygon fill="#E8E0D4" stroke="#A89880" stroke-width="1.5"
    points="48,34 360,0 360,196 48,230"/>
  <polygon fill="#F2EAE0" stroke="#A89880" stroke-width="0.8"
    points="48,30 360,-4 360,0 48,34"/>
  <polygon fill="#D5CCBF" stroke="#A89880" stroke-width="0.8"
    points="360,-4 364,-6 364,194 360,196"/>

  <!-- 도어 핸들 -->
  <line x1="350" y1="130" x2="350" y2="160" stroke="#8A8A8A" stroke-width="2.5" stroke-linecap="round"/>

  <!-- 하판 -->
  <polygon fill="#C5C5C5" stroke="#757575" stroke-width="1"
    points="40,268 48,260 360,224 360,232"/>
  <polygon fill="#A8A8A8" stroke="#757575" stroke-width="0.6"
    points="40,268 360,232 392,208 392,200 360,224 48,260 40,268"/>
  <polygon fill="#949494" stroke="#757575" stroke-width="0.6"
    points="360,224 360,232 392,208 392,200"/>

  <!-- 하단 마감판 -->
  <polygon fill="#E2D9CD" stroke="#B0A090" stroke-width="1"
    points="39,276 47,268 361,232 361,240"/>
  <polygon fill="#D5CCBF" stroke="#B0A090" stroke-width="0.6"
    points="39,276 361,240 393,216 393,208 361,232 47,268 39,276"/>
  <polygon fill="#C8BFB2" stroke="#B0A090" stroke-width="0.6"
    points="361,232 361,240 393,216 393,208"/>
</svg>