<svg xmlns="http://www.w3.org/2000/svg" viewBox="0 0 300 340" width="300" height="340">
  <!-- upper-cabinet-shelf: 상부장 3단형 (싱글) - 도어 닫힌 캐비넷 (hasDoor=true) -->
  <!-- 도어가 닫혀있어 내부 안 보임. 도어 면 + 본체 상판/측판만 보임 -->

  <!-- 우측판 (도어 뒤로 보임) -->
  <polygon fill="#9A9A9A" stroke="#757575" stroke-width="1.2"
    points="244,52 276,28 276,228 244,252"/>

  <!-- 상판 윗면 -->
  <polygon fill="#DCDCDC" stroke="#757575" stroke-width="1.2"
    points="48,80 80,56 276,28 244,52 244,44 48,44"/>
  <!-- 상판 앞면 두께 -->
  <polygon fill="#C5C5C5" stroke="#757575" stroke-width="1"
    points="48,44 48,80 244,52 244,44"/>

  <!-- 좌측판 -->
  <polygon fill="#CCCCCC" stroke="#757575" stroke-width="1.2"
    points="40,44 48,44 48,280 40,288"/>

  <!-- ===== 도어 (정면 전체 덮음) ===== -->
  <!-- 도어 앞면 (따뜻한 우드톤) -->
  <polygon fill="#E8E0D4" stroke="#A89880" stroke-width="1.5"
    points="48,52 244,24 244,224 48,252"/>
  <!-- 도어 윗면 두께 (4px) -->
  <polygon fill="#F2EAE0" stroke="#A89880" stroke-width="0.8"
    points="48,48 244,20 244,24 48,52"/>
  <!-- 도어 우측면 두께 -->
  <polygon fill="#D5CCBF" stroke="#A89880" stroke-width="0.8"
    points="244,20 248,18 248,222 244,224"/>

  <!-- 도어 핸들 (우측 하단 쪽) -->
  <line x1="236" y1="160" x2="236" y2="190" stroke="#8A8A8A" stroke-width="2.5" stroke-linecap="round"/>

  <!-- 하판 앞면 -->
  <polygon fill="#C5C5C5" stroke="#757575" stroke-width="1"
    points="40,288 48,280 244,252 244,260"/>
  <polygon fill="#A8A8A8" stroke="#757575" stroke-width="0.6"
    points="40,288 244,260 276,236 276,228 244,252 48,280 40,288"/>
  <polygon fill="#949494" stroke="#757575" stroke-width="0.6"
    points="244,252 244,260 276,236 276,228"/>

  <!-- 하단 마감판 -->
  <polygon fill="#E2D9CD" stroke="#B0A090" stroke-width="1"
    points="39,296 47,288 245,260 245,268"/>
  <polygon fill="#D5CCBF" stroke="#B0A090" stroke-width="0.6"
    points="39,296 245,268 277,244 277,236 245,260 47,288 39,296"/>
  <polygon fill="#C8BFB2" stroke="#B0A090" stroke-width="0.6"
    points="245,260 245,268 277,244 277,236"/>
</svg>