0
SECTION
2
HEADER
9
$ACADVER
1
AC1021
9
$LASTSAVEDBY
1
@tarikjabiri/dxf
9
$HANDSEED
5
3CB
9
$INSUNITS
70
0
9
$CLAYER
8
DIMENSIONS
9
$VIEWCTR
10
1820
20
1423.75
0
ENDSEC
0
SECTION
2
CLASSES
0
ENDSEC
0
SECTION
2
TABLES
0
TABLE
2
VPORT
5
1
330
0
100
AcDbSymbolTable
70
1
0
VPORT
5
19
330
1
100
AcDbSymbolTableRecord
100
AcDbViewportTableRecord
2
*Active
70
0
10
0
20
0
11
1
21
1
12
1820
22
1423.75
13
0
23
0
14
10
24
10
15
10
25
10
16
0
26
0
36
1
17
0
27
0
37
0
40
2982.5
41
2
42
50
43
0
44
0
50
0
51
0
71
0
72
100
73
1
74
3
75
0
76
1
77
0
78
0
281
0
65
1
110
0
120
0
130
0
111
1
121
0
131
0
112
0
122
1
132
0
79
0
146
0
348
10020
60
7
61
5
292
1
282
1
141
0
142
0
63
250
421
3358443
0
ENDTAB
0
TABLE
2
LTYPE
5
2
330
0
100
AcDbSymbolTable
70
3
0
LTYPE
5
12
330
2
100
AcDbSymbolTableRecord
100
AcDbLinetypeTableRecord
2
ByBlock
70
0
3

72
65
73
0
40
0
0
LTYPE
5
13
330
2
100
AcDbSymbolTableRecord
100
AcDbLinetypeTableRecord
2
ByLayer
70
0
3

72
65
73
0
40
0
0
LTYPE
5
14
330
2
100
AcDbSymbolTableRecord
100
AcDbLinetypeTableRecord
2
Continuous
70
0
3
Solid line
72
65
73
0
40
0
0
ENDTAB
0
TABLE
2
LAYER
5
3
330
0
100
AcDbSymbolTable
70
10
0
LAYER
5
15
330
3
100
AcDbSymbolTableRecord
100
AcDbLayerTableRecord
2
0
70
0
62
7
6
Continuous
370
0
390
0
0
LAYER
5
1A
330
3
100
AcDbSymbolTableRecord
100
AcDbLayerTableRecord
2
SPACE_FRAME
70
0
62
3
6
Continuous
370
0
390
0
0
LAYER
5
1B
330
3
100
AcDbSymbolTableRecord
100
AcDbLayerTableRecord
2
FURNITURE_PANEL
70
0
62
30
6
Continuous
370
0
390
0
0
LAYER
5
1C
330
3
100
AcDbSymbolTableRecord
100
AcDbLayerTableRecord
2
DOOR
70
0
62
3
6
Continuous
370
0
390
0
0
LAYER
5
1D
330
3
100
AcDbSymbolTableRecord
100
AcDbLayerTableRecord
2
BACK_PANEL
70
0
62
254
6
Continuous
370
0
390
0
0
LAYER
5
1E
330
3
100
AcDbSymbolTableRecord
100
AcDbLayerTableRecord
2
CLOTHING_ROD
70
0
62
7
6
Continuous
370
0
390
0
0
LAYER
5
1F
330
3
100
AcDbSymbolTableRecord
100
AcDbLayerTableRecord
2
ACCESSORIES
70
0
62
8
6
Continuous
370
0
390
0
0
LAYER
5
20
330
3
100
AcDbSymbolTableRecord
100
AcDbLayerTableRecord
2
VENTILATION
70
0
62
6
6
Continuous
370
0
390
0
0
LAYER
5
21
330
3
100
AcDbSymbolTableRecord
100
AcDbLayerTableRecord
2
END_PANEL
70
0
62
3
6
Continuous
370
0
390
0
0
LAYER
5
22
330
3
100
AcDbSymbolTableRecord
100
AcDbLayerTableRecord
2
DIMENSIONS
70
0
62
7
6
Continuous
370
0
390
0
0
ENDTAB
0
TABLE
2
STYLE
5
4
330
0
100
AcDbSymbolTable
70
1
0
STYLE
5
16
330
4
100
AcDbSymbolTableRecord
100
AcDbTextStyleTableRecord
2
Standard
70
0
40
0
41
1
50
0
71
0
42
1
3
txt
4

0
ENDTAB
0
TABLE
2
VIEW
5
5
330
0
100
AcDbSymbolTable
70
0
0
ENDTAB
0
TABLE
2
UCS
5
6
330
0
100
AcDbSymbolTable
70
0
0
ENDTAB
0
TABLE
2
APPID
5
7
330
0
100
AcDbSymbolTable
70
1
0
APPID
5
17
330
7
100
AcDbSymbolTableRecord
100
AcDbRegAppTableRecord
2
ACAD
70
0
0
ENDTAB
0
TABLE
2
DIMSTYLE
5
8
330
0
100
AcDbSymbolTable
70
1
100
AcDbDimStyleTable
0
DIMSTYLE
105
18
330
8
100
AcDbSymbolTableRecord
100
AcDbDimStyleTableRecord
2
Standard
70
0
340
16
0
ENDTAB
0
TABLE
2
BLOCK_RECORD
5
9
330
0
100
AcDbSymbolTable
70
2
0
BLOCK_RECORD
5
C
330
9
100
AcDbSymbolTableRecord
100
AcDbBlockTableRecord
2
*Model_Space
70
0
280
1
281
0
0
BLOCK_RECORD
5
F
330
9
100
AcDbSymbolTableRecord
100
AcDbBlockTableRecord
2
*Paper_Space
70
0
280
1
281
0
0
ENDTAB
0
ENDSEC
0
SECTION
2
BLOCKS
0
BLOCK
5
D
330
C
100
AcDbEntity
8
DIMENSIONS
100
AcDbBlockBegin
2
*Model_Space
70
0
10
0
20
0
30
0
3
*Model_Space
1

0
ENDBLK
5
E
100
AcDbEntity
8
0
100
AcDbBlockEnd
0
BLOCK
5
10
330
F
100
AcDbEntity
8
0
100
AcDbBlockBegin
2
*Paper_Space
70
0
10
0
20
0
30
0
3
*Paper_Space
1

0
ENDBLK
5
11
100
AcDbEntity
8
0
100
AcDbBlockEnd
0
ENDSEC
0
SECTION
2
ENTITIES
0
LINE
5
23
330
C
100
AcDbEntity
8
FURNITURE_PANEL
62
7
100
AcDbLine
10
41.999999642371904
20
665
30
0
11
41.999999642371904
21
65.00000000000003
31
0
0
LINE
5
24
330
C
100
AcDbEntity
8
FURNITURE_PANEL
62
7
100
AcDbLine
10
60.00000035762764
20
665
30
0
11
41.999999642371904
21
665
31
0
0
LINE
5
25
330
C
100
AcDbEntity
8
FURNITURE_PANEL
62
7
100
AcDbLine
10
41.999999642371904
20
65.00000000000003
30
0
11
60.00000035762764
21
65.00000000000003
31
0
0
LINE
5
26
330
C
100
AcDbEntity
8
FURNITURE_PANEL
62
7
100
AcDbLine
10
60.00000035762764
20
65.00000000000003
30
0
11
60.00000035762764
21
665
31
0
0
LINE
5
27
330
C
100
AcDbEntity
8
FURNITURE_PANEL
62
7
100
AcDbLine
10
60.00000035762764
20
665
30
0
11
60.00000035762764
21
65.00000000000003
31
0
0
LINE
5
28
330
C
100
AcDbEntity
8
FURNITURE_PANEL
62
7
100
AcDbLine
10
41.999999642371904
20
665
30
0
11
60.00000035762764
21
665
31
0
0
LINE
5
29
330
C
100
AcDbEntity
8
FURNITURE_PANEL
62
7
100
AcDbLine
10
60.00000035762764
20
65.00000000000003
30
0
11
41.999999642371904
21
65.00000000000003
31
0
0
LINE
5
2A
330
C
100
AcDbEntity
8
FURNITURE_PANEL
62
7
100
AcDbLine
10
41.999999642371904
20
65.00000000000003
30
0
11
41.999999642371904
21
665
31
0
0
LINE
5
2B
330
C
100
AcDbEntity
8
FURNITURE_PANEL
62
7
100
AcDbLine
10
41.999999642371904
20
2390
30
0
11
41.999999642371904
21
665
31
0
0
LINE
5
2C
330
C
100
AcDbEntity
8
FURNITURE_PANEL
62
7
100
AcDbLine
10
60.00000035762764
20
2390
30
0
11
41.999999642371904
21
2390
31
0
0
LINE
5
2D
330
C
100
AcDbEntity
8
FURNITURE_PANEL
62
7
100
AcDbLine
10
41.999999642371904
20
665
30
0
11
60.00000035762764
21
665
31
0
0
LINE
5
2E
330
C
100
AcDbEntity
8
FURNITURE_PANEL
62
7
100
AcDbLine
10
60.00000035762764
20
665
30
0
11
60.00000035762764
21
2390
31
0
0
LINE
5
2F
330
C
100
AcDbEntity
8
FURNITURE_PANEL
62
7
100
AcDbLine
10
60.00000035762764
20
2390
30
0
11
60.00000035762764
21
665
31
0
0
LINE
5
30
330
C
100
AcDbEntity
8
FURNITURE_PANEL
62
7
100
AcDbLine
10
41.999999642371904
20
2390
30
0
11
60.00000035762764
21
2390
31
0
0
LINE
5
31
330
C
100
AcDbEntity
8
FURNITURE_PANEL
62
7
100
AcDbLine
10
60.00000035762764
20
665
30
0
11
41.999999642371904
21
665
31
0
0
LINE
5
32
330
C
100
AcDbEntity
8
FURNITURE_PANEL
62
7
100
AcDbLine
10
41.999999642371904
20
665
30
0
11
41.999999642371904
21
2390
31
0
0
LINE
5
33
330
C
100
AcDbEntity
8
FURNITURE_PANEL
62
7
100
AcDbLine
10
609.9999996423721
20
665
30
0
11
609.9999996423721
21
65.00000000000003
31
0
0
LINE
5
34
330
C
100
AcDbEntity
8
FURNITURE_PANEL
62
7
100
AcDbLine
10
628.0000003576279
20
665
30
0
11
609.9999996423721
21
665
31
0
0
LINE
5
35
330
C
100
AcDbEntity
8
FURNITURE_PANEL
62
7
100
AcDbLine
10
609.9999996423721
20
65.00000000000003
30
0
11
628.0000003576279
21
65.00000000000003
31
0
0
LINE
5
36
330
C
100
AcDbEntity
8
FURNITURE_PANEL
62
7
100
AcDbLine
10
628.0000003576279
20
65.00000000000003
30
0
11
628.0000003576279
21
665
31
0
0
LINE
5
37
330
C
100
AcDbEntity
8
FURNITURE_PANEL
62
7
100
AcDbLine
10
628.0000003576279
20
665
30
0
11
628.0000003576279
21
65.00000000000003
31
0
0
LINE
5
38
330
C
100
AcDbEntity
8
FURNITURE_PANEL
62
7
100
AcDbLine
10
609.9999996423721
20
665
30
0
11
628.0000003576279
21
665
31
0
0
LINE
5
39
330
C
100
AcDbEntity
8
FURNITURE_PANEL
62
7
100
AcDbLine
10
628.0000003576279
20
65.00000000000003
30
0
11
609.9999996423721
21
65.00000000000003
31
0
0
LINE
5
3A
330
C
100
AcDbEntity
8
FURNITURE_PANEL
62
7
100
AcDbLine
10
609.9999996423721
20
65.00000000000003
30
0
11
609.9999996423721
21
665
31
0
0
LINE
5
3B
330
C
100
AcDbEntity
8
FURNITURE_PANEL
62
7
100
AcDbLine
10
609.9999996423721
20
2390
30
0
11
609.9999996423721
21
665
31
0
0
LINE
5
3C
330
C
100
AcDbEntity
8
FURNITURE_PANEL
62
7
100
AcDbLine
10
628.0000003576279
20
2390
30
0
11
609.9999996423721
21
2390
31
0
0
LINE
5
3D
330
C
100
AcDbEntity
8
FURNITURE_PANEL
62
7
100
AcDbLine
10
609.9999996423721
20
665
30
0
11
628.0000003576279
21
665
31
0
0
LINE
5
3E
330
C
100
AcDbEntity
8
FURNITURE_PANEL
62
7
100
AcDbLine
10
628.0000003576279
20
665
30
0
11
628.0000003576279
21
2390
31
0
0
LINE
5
3F
330
C
100
AcDbEntity
8
FURNITURE_PANEL
62
7
100
AcDbLine
10
628.0000003576279
20
2390
30
0
11
628.0000003576279
21
665
31
0
0
LINE
5
40
330
C
100
AcDbEntity
8
FURNITURE_PANEL
62
7
100
AcDbLine
10
609.9999996423721
20
2390
30
0
11
628.0000003576279
21
2390
31
0
0
LINE
5
41
330
C
100
AcDbEntity
8
FURNITURE_PANEL
62
7
100
AcDbLine
10
628.0000003576279
20
665
30
0
11
609.9999996423721
21
665
31
0
0
LINE
5
42
330
C
100
AcDbEntity
8
FURNITURE_PANEL
62
7
100
AcDbLine
10
609.9999996423721
20
665
30
0
11
609.9999996423721
21
2390
31
0
0
LINE
5
43
330
C
100
AcDbEntity
8
FURNITURE_PANEL
62
7
100
AcDbLine
10
60.00000000000023
20
664.9000002563
30
0
11
60.00000000000023
21
646.9999997437001
31
0
0
LINE
5
44
330
C
100
AcDbEntity
8
FURNITURE_PANEL
62
7
100
AcDbLine
10
610
20
664.9000002563
30
0
11
60.00000000000023
21
664.9000002563
31
0
0
LINE
5
45
330
C
100
AcDbEntity
8
FURNITURE_PANEL
62
7
100
AcDbLine
10
60.00000000000023
20
646.9999997437001
30
0
11
610
21
646.9999997437001
31
0
0
LINE
5
46
330
C
100
AcDbEntity
8
FURNITURE_PANEL
62
7
100
AcDbLine
10
610
20
646.9999997437001
30
0
11
610
21
664.9000002563
31
0
0
LINE
5
47
330
C
100
AcDbEntity
8
FURNITURE_PANEL
62
7
100
AcDbLine
10
610
20
664.9000002563
30
0
11
610
21
646.9999997437001
31
0
0
LINE
5
48
330
C
100
AcDbEntity
8
FURNITURE_PANEL
62
7
100
AcDbLine
10
60.00000000000023
20
664.9000002563
30
0
11
610
21
664.9000002563
31
0
0
LINE
5
49
330
C
100
AcDbEntity
8
FURNITURE_PANEL
62
7
100
AcDbLine
10
610
20
646.9999997437001
30
0
11
60.00000000000023
21
646.9999997437001
31
0
0
LINE
5
4A
330
C
100
AcDbEntity
8
FURNITURE_PANEL
62
7
100
AcDbLine
10
60.00000000000023
20
646.9999997437001
30
0
11
60.00000000000023
21
664.9000002563
31
0
0
LINE
5
4B
330
C
100
AcDbEntity
8
FURNITURE_PANEL
62
7
100
AcDbLine
10
60.00000000000023
20
683.0500003576278
30
0
11
60.00000000000023
21
665.0499996423721
31
0
0
LINE
5
4C
330
C
100
AcDbEntity
8
FURNITURE_PANEL
62
7
100
AcDbLine
10
610
20
683.0500003576278
30
0
11
60.00000000000023
21
683.0500003576278
31
0
0
LINE
5
4D
330
C
100
AcDbEntity
8
FURNITURE_PANEL
62
7
100
AcDbLine
10
60.00000000000023
20
665.0499996423721
30
0
11
610
21
665.0499996423721
31
0
0
LINE
5
4E
330
C
100
AcDbEntity
8
FURNITURE_PANEL
62
7
100
AcDbLine
10
610
20
665.0499996423721
30
0
11
610
21
683.0500003576278
31
0
0
LINE
5
4F
330
C
100
AcDbEntity
8
FURNITURE_PANEL
62
7
100
AcDbLine
10
610
20
683.0500003576278
30
0
11
610
21
665.0499996423721
31
0
0
LINE
5
50
330
C
100
AcDbEntity
8
FURNITURE_PANEL
62
7
100
AcDbLine
10
60.00000000000023
20
683.0500003576278
30
0
11
610
21
683.0500003576278
31
0
0
LINE
5
51
330
C
100
AcDbEntity
8
FURNITURE_PANEL
62
7
100
AcDbLine
10
610
20
665.0499996423721
30
0
11
60.00000000000023
21
665.0499996423721
31
0
0
LINE
5
52
330
C
100
AcDbEntity
8
FURNITURE_PANEL
62
7
100
AcDbLine
10
60.00000000000023
20
665.0499996423721
30
0
11
60.00000000000023
21
683.0500003576278
31
0
0
LINE
5
53
330
C
100
AcDbEntity
8
FURNITURE_PANEL
62
7
100
AcDbLine
10
60.00000000000023
20
2390.000000357628
30
0
11
60.00000000000023
21
2371.999999642372
31
0
0
LINE
5
54
330
C
100
AcDbEntity
8
FURNITURE_PANEL
62
7
100
AcDbLine
10
610
20
2390.000000357628
30
0
11
60.00000000000023
21
2390.000000357628
31
0
0
LINE
5
55
330
C
100
AcDbEntity
8
FURNITURE_PANEL
62
7
100
AcDbLine
10
60.00000000000023
20
2371.999999642372
30
0
11
610
21
2371.999999642372
31
0
0
LINE
5
56
330
C
100
AcDbEntity
8
FURNITURE_PANEL
62
7
100
AcDbLine
10
610
20
2371.999999642372
30
0
11
610
21
2390.000000357628
31
0
0
LINE
5
57
330
C
100
AcDbEntity
8
FURNITURE_PANEL
62
7
100
AcDbLine
10
610
20
2390.000000357628
30
0
11
610
21
2371.999999642372
31
0
0
LINE
5
58
330
C
100
AcDbEntity
8
FURNITURE_PANEL
62
7
100
AcDbLine
10
60.00000000000023
20
2390.000000357628
30
0
11
610
21
2390.000000357628
31
0
0
LINE
5
59
330
C
100
AcDbEntity
8
FURNITURE_PANEL
62
7
100
AcDbLine
10
610
20
2371.999999642372
30
0
11
60.00000000000023
21
2371.999999642372
31
0
0
LINE
5
5A
330
C
100
AcDbEntity
8
FURNITURE_PANEL
62
7
100
AcDbLine
10
60.00000000000023
20
2371.999999642372
30
0
11
60.00000000000023
21
2390.000000357628
31
0
0
LINE
5
5B
330
C
100
AcDbEntity
8
FURNITURE_PANEL
62
7
100
AcDbLine
10
252.5000011920929
20
2390
30
0
11
252.5000011920929
21
2371.999969482422
31
0
0
LINE
5
5C
330
C
100
AcDbEntity
8
FURNITURE_PANEL
62
7
100
AcDbLine
10
60.00000000000023
20
83.0000003576279
30
0
11
60.00000000000023
21
64.99999964237216
31
0
0
LINE
5
5D
330
C
100
AcDbEntity
8
FURNITURE_PANEL
62
7
100
AcDbLine
10
610
20
83.0000003576279
30
0
11
60.00000000000023
21
83.0000003576279
31
0
0
LINE
5
5E
330
C
100
AcDbEntity
8
FURNITURE_PANEL
62
7
100
AcDbLine
10
60.00000000000023
20
64.99999964237216
30
0
11
610
21
64.99999964237216
31
0
0
LINE
5
5F
330
C
100
AcDbEntity
8
FURNITURE_PANEL
62
7
100
AcDbLine
10
610
20
64.99999964237216
30
0
11
610
21
83.0000003576279
31
0
0
LINE
5
60
330
C
100
AcDbEntity
8
FURNITURE_PANEL
62
7
100
AcDbLine
10
610
20
83.0000003576279
30
0
11
610
21
64.99999964237216
31
0
0
LINE
5
61
330
C
100
AcDbEntity
8
FURNITURE_PANEL
62
7
100
AcDbLine
10
60.00000000000023
20
83.0000003576279
30
0
11
610
21
83.0000003576279
31
0
0
LINE
5
62
330
C
100
AcDbEntity
8
FURNITURE_PANEL
62
7
100
AcDbLine
10
610
20
64.99999964237216
30
0
11
60.00000000000023
21
64.99999964237216
31
0
0
LINE
5
63
330
C
100
AcDbEntity
8
FURNITURE_PANEL
62
7
100
AcDbLine
10
60.00000000000023
20
64.99999964237216
30
0
11
60.00000000000023
21
83.0000003576279
31
0
0
LINE
5
64
330
C
100
AcDbEntity
8
FURNITURE_PANEL
62
7
100
AcDbLine
10
252.5000011920929
20
65.00000000000003
30
0
11
252.5000011920929
21
83.00003051757815
31
0
0
LINE
5
65
330
C
100
AcDbEntity
8
BACK_PANEL
62
30
100
AcDbLine
10
55.00000476837181
20
651.9499885559081
30
0
11
55.00000476837181
21
77.95001144409177
31
0
0
LINE
5
66
330
C
100
AcDbEntity
8
BACK_PANEL
62
30
100
AcDbLine
10
614.9999952316284
20
651.9499885559081
30
0
11
55.00000476837181
21
651.9499885559081
31
0
0
LINE
5
67
330
C
100
AcDbEntity
8
BACK_PANEL
62
30
100
AcDbLine
10
55.00000476837181
20
77.95001144409177
30
0
11
614.9999952316284
21
77.95001144409177
31
0
0
LINE
5
68
330
C
100
AcDbEntity
8
BACK_PANEL
62
30
100
AcDbLine
10
614.9999952316284
20
77.95001144409177
30
0
11
614.9999952316284
21
651.9499885559081
31
0
0
LINE
5
69
330
C
100
AcDbEntity
8
BACK_PANEL
62
30
100
AcDbLine
10
614.9999952316284
20
651.9499885559081
30
0
11
614.9999952316284
21
77.95001144409177
31
0
0
LINE
5
6A
330
C
100
AcDbEntity
8
BACK_PANEL
62
30
100
AcDbLine
10
55.00000476837181
20
651.9499885559081
30
0
11
614.9999952316284
21
651.9499885559081
31
0
0
LINE
5
6B
330
C
100
AcDbEntity
8
BACK_PANEL
62
30
100
AcDbLine
10
614.9999952316284
20
77.95001144409177
30
0
11
55.00000476837181
21
77.95001144409177
31
0
0
LINE
5
6C
330
C
100
AcDbEntity
8
BACK_PANEL
62
30
100
AcDbLine
10
55.00000476837181
20
77.95001144409177
30
0
11
55.00000476837181
21
651.9499885559081
31
0
0
LINE
5
6D
330
C
100
AcDbEntity
8
BACK_PANEL
62
30
100
AcDbLine
10
55.00000476837181
20
2376.999988555908
30
0
11
55.00000476837181
21
678.0000114440918
31
0
0
LINE
5
6E
330
C
100
AcDbEntity
8
BACK_PANEL
62
30
100
AcDbLine
10
614.9999952316284
20
2376.999988555908
30
0
11
55.00000476837181
21
2376.999988555908
31
0
0
LINE
5
6F
330
C
100
AcDbEntity
8
BACK_PANEL
62
30
100
AcDbLine
10
55.00000476837181
20
678.0000114440918
30
0
11
614.9999952316284
21
678.0000114440918
31
0
0
LINE
5
70
330
C
100
AcDbEntity
8
BACK_PANEL
62
30
100
AcDbLine
10
614.9999952316284
20
678.0000114440918
30
0
11
614.9999952316284
21
2376.999988555908
31
0
0
LINE
5
71
330
C
100
AcDbEntity
8
BACK_PANEL
62
30
100
AcDbLine
10
614.9999952316284
20
2376.999988555908
30
0
11
614.9999952316284
21
678.0000114440918
31
0
0
LINE
5
72
330
C
100
AcDbEntity
8
BACK_PANEL
62
30
100
AcDbLine
10
55.00000476837181
20
2376.999988555908
30
0
11
614.9999952316284
21
2376.999988555908
31
0
0
LINE
5
73
330
C
100
AcDbEntity
8
BACK_PANEL
62
30
100
AcDbLine
10
614.9999952316284
20
678.0000114440918
30
0
11
55.00000476837181
21
678.0000114440918
31
0
0
LINE
5
74
330
C
100
AcDbEntity
8
BACK_PANEL
62
30
100
AcDbLine
10
55.00000476837181
20
678.0000114440918
30
0
11
55.00000476837181
21
2376.999988555908
31
0
0
LINE
5
75
330
C
100
AcDbEntity
8
VENTILATION
62
6
100
AcDbLine
10
527.6418863534927
20
2257
30
0
11
525.9503810405731
21
2269.8482654690742
31
0
0
LINE
5
76
330
C
100
AcDbEntity
8
VENTILATION
62
6
100
AcDbLine
10
525.9503810405731
20
2269.8482654690742
30
0
11
520.9911345243454
21
2281.8209431767464
31
0
0
LINE
5
77
330
C
100
AcDbEntity
8
VENTILATION
62
6
100
AcDbLine
10
520.9911345243454
20
2281.8209431767464
30
0
11
513.1021140813828
21
2292.1021140813828
31
0
0
LINE
5
78
330
C
100
AcDbEntity
8
VENTILATION
62
6
100
AcDbLine
10
513.1021140813828
20
2292.1021140813828
30
0
11
502.82094317674637
21
2299.9911345243454
31
0
0
LINE
5
79
330
C
100
AcDbEntity
8
VENTILATION
62
6
100
AcDbLine
10
502.82094317674637
20
2299.9911345243454
30
0
11
490.84826546907425
21
2304.950381040573
31
0
0
LINE
5
7A
330
C
100
AcDbEntity
8
VENTILATION
62
6
100
AcDbLine
10
490.84826546907425
20
2304.950381040573
30
0
11
478
21
2306.6418863534927
31
0
0
LINE
5
7B
330
C
100
AcDbEntity
8
VENTILATION
62
6
100
AcDbLine
10
478
20
2306.6418863534927
30
0
11
465.15173453092575
21
2304.950381040573
31
0
0
LINE
5
7C
330
C
100
AcDbEntity
8
VENTILATION
62
6
100
AcDbLine
10
465.15173453092575
20
2304.950381040573
30
0
11
453.17905682325363
21
2299.9911345243454
31
0
0
LINE
5
7D
330
C
100
AcDbEntity
8
VENTILATION
62
6
100
AcDbLine
10
453.17905682325363
20
2299.9911345243454
30
0
11
442.89788591861725
21
2292.1021140813828
31
0
0
LINE
5
7E
330
C
100
AcDbEntity
8
VENTILATION
62
6
100
AcDbLine
10
442.89788591861725
20
2292.1021140813828
30
0
11
435.0088654756546
21
2281.8209431767464
31
0
0
LINE
5
7F
330
C
100
AcDbEntity
8
VENTILATION
62
6
100
AcDbLine
10
435.0088654756546
20
2281.8209431767464
30
0
11
430.0496189594269
21
2269.8482654690742
31
0
0
LINE
5
80
330
C
100
AcDbEntity
8
VENTILATION
62
6
100
AcDbLine
10
430.0496189594269
20
2269.8482654690742
30
0
11
428.35811364650726
21
2257
31
0
0
LINE
5
81
330
C
100
AcDbEntity
8
VENTILATION
62
6
100
AcDbLine
10
428.35811364650726
20
2257
30
0
11
430.0496189594269
21
2244.1517345309258
31
0
0
LINE
5
82
330
C
100
AcDbEntity
8
VENTILATION
62
6
100
AcDbLine
10
430.0496189594269
20
2244.1517345309258
30
0
11
435.0088654756546
21
2232.1790568232536
31
0
0
LINE
5
83
330
C
100
AcDbEntity
8
VENTILATION
62
6
100
AcDbLine
10
435.0088654756546
20
2232.1790568232536
30
0
11
442.89788591861725
21
2221.8978859186172
31
0
0
LINE
5
84
330
C
100
AcDbEntity
8
VENTILATION
62
6
100
AcDbLine
10
442.89788591861725
20
2221.8978859186172
30
0
11
453.17905682325363
21
2214.0088654756546
31
0
0
LINE
5
85
330
C
100
AcDbEntity
8
VENTILATION
62
6
100
AcDbLine
10
453.17905682325363
20
2214.0088654756546
30
0
11
465.15173453092575
21
2209.049618959427
31
0
0
LINE
5
86
330
C
100
AcDbEntity
8
VENTILATION
62
6
100
AcDbLine
10
465.15173453092575
20
2209.049618959427
30
0
11
478
21
2207.3581136465073
31
0
0
LINE
5
87
330
C
100
AcDbEntity
8
VENTILATION
62
6
100
AcDbLine
10
478
20
2207.3581136465073
30
0
11
490.84826546907425
21
2209.049618959427
31
0
0
LINE
5
88
330
C
100
AcDbEntity
8
VENTILATION
62
6
100
AcDbLine
10
490.84826546907425
20
2209.049618959427
30
0
11
502.82094317674637
21
2214.0088654756546
31
0
0
LINE
5
89
330
C
100
AcDbEntity
8
VENTILATION
62
6
100
AcDbLine
10
502.82094317674637
20
2214.0088654756546
30
0
11
513.1021140813828
21
2221.8978859186172
31
0
0
LINE
5
8A
330
C
100
AcDbEntity
8
VENTILATION
62
6
100
AcDbLine
10
513.1021140813828
20
2221.8978859186172
30
0
11
520.9911345243454
21
2232.1790568232536
31
0
0
LINE
5
8B
330
C
100
AcDbEntity
8
VENTILATION
62
6
100
AcDbLine
10
520.9911345243454
20
2232.1790568232536
30
0
11
525.9503810405731
21
2244.1517345309258
31
0
0
LINE
5
8C
330
C
100
AcDbEntity
8
VENTILATION
62
6
100
AcDbLine
10
525.9503810405731
20
2244.1517345309258
30
0
11
527.6418863534927
21
2257
31
0
0
LINE
5
8D
330
C
100
AcDbEntity
8
VENTILATION
62
6
100
AcDbLine
10
512.8929136991501
20
2257
30
0
11
511.7039649486542
21
2247.9690499305725
31
0
0
LINE
5
8E
330
C
100
AcDbEntity
8
VENTILATION
62
6
100
AcDbLine
10
511.7039649486542
20
2247.9690499305725
30
0
11
508.21814823150635
21
2239.553543150425
31
0
0
LINE
5
8F
330
C
100
AcDbEntity
8
VENTILATION
62
6
100
AcDbLine
10
508.21814823150635
20
2239.553543150425
30
0
11
502.6730148792267
21
2232.3269851207733
31
0
0
LINE
5
90
330
C
100
AcDbEntity
8
VENTILATION
62
6
100
AcDbLine
10
502.6730148792267
20
2232.3269851207733
30
0
11
495.44645684957504
21
2226.7818517684937
31
0
0
LINE
5
91
330
C
100
AcDbEntity
8
VENTILATION
62
6
100
AcDbLine
10
495.44645684957504
20
2226.7818517684937
30
0
11
487.0309500694275
21
2223.296035051346
31
0
0
LINE
5
92
330
C
100
AcDbEntity
8
VENTILATION
62
6
100
AcDbLine
10
487.0309500694275
20
2223.296035051346
30
0
11
478
21
2222.10708630085
31
0
0
LINE
5
93
330
C
100
AcDbEntity
8
VENTILATION
62
6
100
AcDbLine
10
478
20
2222.10708630085
30
0
11
468.9690499305725
21
2223.296035051346
31
0
0
LINE
5
94
330
C
100
AcDbEntity
8
VENTILATION
62
6
100
AcDbLine
10
468.9690499305725
20
2223.296035051346
30
0
11
460.55354315042496
21
2226.7818517684937
31
0
0
LINE
5
95
330
C
100
AcDbEntity
8
VENTILATION
62
6
100
AcDbLine
10
460.55354315042496
20
2226.7818517684937
30
0
11
453.3269851207733
21
2232.3269851207733
31
0
0
LINE
5
96
330
C
100
AcDbEntity
8
VENTILATION
62
6
100
AcDbLine
10
453.3269851207733
20
2232.3269851207733
30
0
11
447.78185176849365
21
2239.553543150425
31
0
0
LINE
5
97
330
C
100
AcDbEntity
8
VENTILATION
62
6
100
AcDbLine
10
447.78185176849365
20
2239.553543150425
30
0
11
444.2960350513458
21
2247.9690499305725
31
0
0
LINE
5
98
330
C
100
AcDbEntity
8
VENTILATION
62
6
100
AcDbLine
10
444.2960350513458
20
2247.9690499305725
30
0
11
443.1070863008499
21
2257
31
0
0
LINE
5
99
330
C
100
AcDbEntity
8
VENTILATION
62
6
100
AcDbLine
10
443.1070863008499
20
2257
30
0
11
444.2960350513458
21
2266.0309500694275
31
0
0
LINE
5
9A
330
C
100
AcDbEntity
8
VENTILATION
62
6
100
AcDbLine
10
444.2960350513458
20
2266.0309500694275
30
0
11
447.78185176849365
21
2274.446456849575
31
0
0
LINE
5
9B
330
C
100
AcDbEntity
8
VENTILATION
62
6
100
AcDbLine
10
447.78185176849365
20
2274.446456849575
30
0
11
453.3269851207733
21
2281.6730148792267
31
0
0
LINE
5
9C
330
C
100
AcDbEntity
8
VENTILATION
62
6
100
AcDbLine
10
453.3269851207733
20
2281.6730148792267
30
0
11
460.55354315042496
21
2287.2181482315063
31
0
0
LINE
5
9D
330
C
100
AcDbEntity
8
VENTILATION
62
6
100
AcDbLine
10
460.55354315042496
20
2287.2181482315063
30
0
11
468.9690499305725
21
2290.703964948654
31
0
0
LINE
5
9E
330
C
100
AcDbEntity
8
VENTILATION
62
6
100
AcDbLine
10
468.9690499305725
20
2290.703964948654
30
0
11
478
21
2291.89291369915
31
0
0
LINE
5
9F
330
C
100
AcDbEntity
8
VENTILATION
62
6
100
AcDbLine
10
478
20
2291.89291369915
30
0
11
487.0309500694275
21
2290.703964948654
31
0
0
LINE
5
A0
330
C
100
AcDbEntity
8
VENTILATION
62
6
100
AcDbLine
10
487.0309500694275
20
2290.703964948654
30
0
11
495.44645684957504
21
2287.2181482315063
31
0
0
LINE
5
A1
330
C
100
AcDbEntity
8
VENTILATION
62
6
100
AcDbLine
10
495.44645684957504
20
2287.2181482315063
30
0
11
502.6730148792267
21
2281.6730148792267
31
0
0
LINE
5
A2
330
C
100
AcDbEntity
8
VENTILATION
62
6
100
AcDbLine
10
502.6730148792267
20
2281.6730148792267
30
0
11
508.21814823150635
21
2274.446456849575
31
0
0
LINE
5
A3
330
C
100
AcDbEntity
8
VENTILATION
62
6
100
AcDbLine
10
508.21814823150635
20
2274.446456849575
30
0
11
511.7039649486542
21
2266.0309500694275
31
0
0
LINE
5
A4
330
C
100
AcDbEntity
8
VENTILATION
62
6
100
AcDbLine
10
511.7039649486542
20
2266.0309500694275
30
0
11
512.8929136991501
21
2257
31
0
0
LINE
5
A5
330
C
100
AcDbEntity
8
VENTILATION
62
6
100
AcDbLine
10
513.0244700908661
20
2266.3847788870335
30
0
11
514.259999871254
21
2257
31
0
0
LINE
5
A6
330
C
100
AcDbEntity
8
VENTILATION
62
6
100
AcDbLine
10
509.4020812511444
20
2275.129999935627
30
0
11
513.0244700908661
21
2266.3847788870335
31
0
0
LINE
5
A7
330
C
100
AcDbEntity
8
VENTILATION
62
6
100
AcDbLine
10
503.6396919488907
20
2282.6396919488907
30
0
11
509.4020812511444
21
2275.129999935627
31
0
0
LINE
5
A8
330
C
100
AcDbEntity
8
VENTILATION
62
6
100
AcDbLine
10
496.129999935627
20
2288.4020812511444
30
0
11
503.6396919488907
21
2282.6396919488907
31
0
0
LINE
5
A9
330
C
100
AcDbEntity
8
VENTILATION
62
6
100
AcDbLine
10
487.38477888703346
20
2292.024470090866
30
0
11
496.129999935627
21
2288.4020812511444
31
0
0
LINE
5
AA
330
C
100
AcDbEntity
8
VENTILATION
62
6
100
AcDbLine
10
478
20
2293.259999871254
30
0
11
487.38477888703346
21
2292.024470090866
31
0
0
LINE
5
AB
330
C
100
AcDbEntity
8
VENTILATION
62
6
100
AcDbLine
10
468.61522111296654
20
2292.024470090866
30
0
11
478
21
2293.259999871254
31
0
0
LINE
5
AC
330
C
100
AcDbEntity
8
VENTILATION
62
6
100
AcDbLine
10
459.870000064373
20
2288.4020812511444
30
0
11
468.61522111296654
21
2292.024470090866
31
0
0
LINE
5
AD
330
C
100
AcDbEntity
8
VENTILATION
62
6
100
AcDbLine
10
452.3603080511093
20
2282.6396919488907
30
0
11
459.870000064373
21
2288.4020812511444
31
0
0
LINE
5
AE
330
C
100
AcDbEntity
8
VENTILATION
62
6
100
AcDbLine
10
446.5979187488556
20
2275.129999935627
30
0
11
452.3603080511093
21
2282.6396919488907
31
0
0
LINE
5
AF
330
C
100
AcDbEntity
8
VENTILATION
62
6
100
AcDbLine
10
442.9755299091339
20
2266.3847788870335
30
0
11
446.5979187488556
21
2275.129999935627
31
0
0
LINE
5
B0
330
C
100
AcDbEntity
8
VENTILATION
62
6
100
AcDbLine
10
441.74000012874603
20
2257
30
0
11
442.9755299091339
21
2266.3847788870335
31
0
0
LINE
5
B1
330
C
100
AcDbEntity
8
VENTILATION
62
6
100
AcDbLine
10
442.9755299091339
20
2247.6152211129665
30
0
11
441.74000012874603
21
2257
31
0
0
LINE
5
B2
330
C
100
AcDbEntity
8
VENTILATION
62
6
100
AcDbLine
10
446.5979187488556
20
2238.870000064373
30
0
11
442.9755299091339
21
2247.6152211129665
31
0
0
LINE
5
B3
330
C
100
AcDbEntity
8
VENTILATION
62
6
100
AcDbLine
10
452.3603080511093
20
2231.3603080511093
30
0
11
446.5979187488556
21
2238.870000064373
31
0
0
LINE
5
B4
330
C
100
AcDbEntity
8
VENTILATION
62
6
100
AcDbLine
10
459.870000064373
20
2225.5979187488556
30
0
11
452.3603080511093
21
2231.3603080511093
31
0
0
LINE
5
B5
330
C
100
AcDbEntity
8
VENTILATION
62
6
100
AcDbLine
10
468.61522111296654
20
2221.975529909134
30
0
11
459.870000064373
21
2225.5979187488556
31
0
0
LINE
5
B6
330
C
100
AcDbEntity
8
VENTILATION
62
6
100
AcDbLine
10
478
20
2220.740000128746
30
0
11
468.61522111296654
21
2221.975529909134
31
0
0
LINE
5
B7
330
C
100
AcDbEntity
8
VENTILATION
62
6
100
AcDbLine
10
487.38477888703346
20
2221.975529909134
30
0
11
478
21
2220.740000128746
31
0
0
LINE
5
B8
330
C
100
AcDbEntity
8
VENTILATION
62
6
100
AcDbLine
10
496.129999935627
20
2225.5979187488556
30
0
11
487.38477888703346
21
2221.975529909134
31
0
0
LINE
5
B9
330
C
100
AcDbEntity
8
VENTILATION
62
6
100
AcDbLine
10
503.6396919488907
20
2231.3603080511093
30
0
11
496.129999935627
21
2225.5979187488556
31
0
0
LINE
5
BA
330
C
100
AcDbEntity
8
VENTILATION
62
6
100
AcDbLine
10
509.4020812511444
20
2238.870000064373
30
0
11
503.6396919488907
21
2231.3603080511093
31
0
0
LINE
5
BB
330
C
100
AcDbEntity
8
VENTILATION
62
6
100
AcDbLine
10
513.0244700908661
20
2247.6152211129665
30
0
11
509.4020812511444
21
2238.870000064373
31
0
0
LINE
5
BC
330
C
100
AcDbEntity
8
VENTILATION
62
6
100
AcDbLine
10
514.259999871254
20
2257
30
0
11
513.0244700908661
21
2247.6152211129665
31
0
0
LINE
5
BD
330
C
100
AcDbEntity
8
FURNITURE_PANEL
62
7
100
AcDbLine
10
123.00001144409202
20
149.50000003725293
30
0
11
123.00001144409202
21
144.49999996274713
31
0
0
LINE
5
BE
330
C
100
AcDbEntity
8
FURNITURE_PANEL
62
7
100
AcDbLine
10
546.9999885559082
20
149.50000003725293
30
0
11
123.00001144409202
21
149.50000003725293
31
0
0
LINE
5
BF
330
C
100
AcDbEntity
8
FURNITURE_PANEL
62
7
100
AcDbLine
10
123.00001144409202
20
144.49999996274713
30
0
11
546.9999885559082
21
144.49999996274713
31
0
0
LINE
5
C0
330
C
100
AcDbEntity
8
FURNITURE_PANEL
62
7
100
AcDbLine
10
546.9999885559082
20
144.49999996274713
30
0
11
546.9999885559082
21
149.50000003725293
31
0
0
LINE
5
C1
330
C
100
AcDbEntity
8
FURNITURE_PANEL
62
7
100
AcDbLine
10
546.9999885559082
20
149.50000003725293
30
0
11
546.9999885559082
21
144.49999996274713
31
0
0
LINE
5
C2
330
C
100
AcDbEntity
8
FURNITURE_PANEL
62
7
100
AcDbLine
10
123.00001144409202
20
149.50000003725293
30
0
11
546.9999885559082
21
149.50000003725293
31
0
0
LINE
5
C3
330
C
100
AcDbEntity
8
FURNITURE_PANEL
62
7
100
AcDbLine
10
546.9999885559082
20
144.49999996274713
30
0
11
123.00001144409202
21
144.49999996274713
31
0
0
LINE
5
C4
330
C
100
AcDbEntity
8
FURNITURE_PANEL
62
7
100
AcDbLine
10
123.00001144409202
20
144.49999996274713
30
0
11
123.00001144409202
21
149.50000003725293
31
0
0
LINE
5
C5
330
C
100
AcDbEntity
8
FURNITURE_PANEL
62
7
100
AcDbLine
10
110.00000000000023
20
342.5000042915345
30
0
11
110.00000000000023
21
126.49999570846563
31
0
0
LINE
5
C6
330
C
100
AcDbEntity
8
FURNITURE_PANEL
62
7
100
AcDbLine
10
560
20
342.5000042915345
30
0
11
110.00000000000023
21
342.5000042915345
31
0
0
LINE
5
C7
330
C
100
AcDbEntity
8
FURNITURE_PANEL
62
7
100
AcDbLine
10
110.00000000000023
20
126.49999570846563
30
0
11
560
21
126.49999570846563
31
0
0
LINE
5
C8
330
C
100
AcDbEntity
8
FURNITURE_PANEL
62
7
100
AcDbLine
10
560
20
126.49999570846563
30
0
11
560
21
342.5000042915345
31
0
0
LINE
5
C9
330
C
100
AcDbEntity
8
FURNITURE_PANEL
62
7
100
AcDbLine
10
560
20
342.5000042915345
30
0
11
560
21
126.49999570846563
31
0
0
LINE
5
CA
330
C
100
AcDbEntity
8
FURNITURE_PANEL
62
7
100
AcDbLine
10
110.00000000000023
20
342.5000042915345
30
0
11
560
21
342.5000042915345
31
0
0
LINE
5
CB
330
C
100
AcDbEntity
8
FURNITURE_PANEL
62
7
100
AcDbLine
10
560
20
126.49999570846563
30
0
11
110.00000000000023
21
126.49999570846563
31
0
0
LINE
5
CC
330
C
100
AcDbEntity
8
FURNITURE_PANEL
62
7
100
AcDbLine
10
110.00000000000023
20
126.49999570846563
30
0
11
110.00000000000023
21
342.5000042915345
31
0
0
LINE
5
CD
330
C
100
AcDbEntity
8
FURNITURE_PANEL
62
7
100
AcDbLine
10
110.00000000000023
20
342.5000042915345
30
0
11
110.00000000000023
21
126.49999570846563
31
0
0
LINE
5
CE
330
C
100
AcDbEntity
8
FURNITURE_PANEL
62
7
100
AcDbLine
10
560
20
342.5000042915345
30
0
11
110.00000000000023
21
342.5000042915345
31
0
0
LINE
5
CF
330
C
100
AcDbEntity
8
FURNITURE_PANEL
62
7
100
AcDbLine
10
110.00000000000023
20
126.49999570846563
30
0
11
560
21
126.49999570846563
31
0
0
LINE
5
D0
330
C
100
AcDbEntity
8
FURNITURE_PANEL
62
7
100
AcDbLine
10
560
20
126.49999570846563
30
0
11
560
21
342.5000042915345
31
0
0
LINE
5
D1
330
C
100
AcDbEntity
8
FURNITURE_PANEL
62
7
100
AcDbLine
10
560
20
342.5000042915345
30
0
11
560
21
126.49999570846563
31
0
0
LINE
5
D2
330
C
100
AcDbEntity
8
FURNITURE_PANEL
62
7
100
AcDbLine
10
110.00000000000023
20
342.5000042915345
30
0
11
560
21
342.5000042915345
31
0
0
LINE
5
D3
330
C
100
AcDbEntity
8
FURNITURE_PANEL
62
7
100
AcDbLine
10
560
20
126.49999570846563
30
0
11
110.00000000000023
21
126.49999570846563
31
0
0
LINE
5
D4
330
C
100
AcDbEntity
8
FURNITURE_PANEL
62
7
100
AcDbLine
10
110.00000000000023
20
126.49999570846563
30
0
11
110.00000000000023
21
342.5000042915345
31
0
0
LINE
5
D5
330
C
100
AcDbEntity
8
FURNITURE_PANEL
62
7
100
AcDbLine
10
109.9999996423719
20
342.5000042915345
30
0
11
109.9999996423719
21
126.49999570846563
31
0
0
LINE
5
D6
330
C
100
AcDbEntity
8
FURNITURE_PANEL
62
7
100
AcDbLine
10
128.00000035762764
20
342.5000042915345
30
0
11
109.9999996423719
21
342.5000042915345
31
0
0
LINE
5
D7
330
C
100
AcDbEntity
8
FURNITURE_PANEL
62
7
100
AcDbLine
10
109.9999996423719
20
126.49999570846563
30
0
11
128.00000035762764
21
126.49999570846563
31
0
0
LINE
5
D8
330
C
100
AcDbEntity
8
FURNITURE_PANEL
62
7
100
AcDbLine
10
128.00000035762764
20
126.49999570846563
30
0
11
128.00000035762764
21
342.5000042915345
31
0
0
LINE
5
D9
330
C
100
AcDbEntity
8
FURNITURE_PANEL
62
7
100
AcDbLine
10
128.00000035762764
20
342.5000042915345
30
0
11
128.00000035762764
21
126.49999570846563
31
0
0
LINE
5
DA
330
C
100
AcDbEntity
8
FURNITURE_PANEL
62
7
100
AcDbLine
10
109.9999996423719
20
342.5000042915345
30
0
11
128.00000035762764
21
342.5000042915345
31
0
0
LINE
5
DB
330
C
100
AcDbEntity
8
FURNITURE_PANEL
62
7
100
AcDbLine
10
128.00000035762764
20
126.49999570846563
30
0
11
109.9999996423719
21
126.49999570846563
31
0
0
LINE
5
DC
330
C
100
AcDbEntity
8
FURNITURE_PANEL
62
7
100
AcDbLine
10
109.9999996423719
20
126.49999570846563
30
0
11
109.9999996423719
21
342.5000042915345
31
0
0
LINE
5
DD
330
C
100
AcDbEntity
8
FURNITURE_PANEL
62
7
100
AcDbLine
10
541.9999996423721
20
342.5000042915345
30
0
11
541.9999996423721
21
126.49999570846563
31
0
0
LINE
5
DE
330
C
100
AcDbEntity
8
FURNITURE_PANEL
62
7
100
AcDbLine
10
560.0000003576279
20
342.5000042915345
30
0
11
541.9999996423721
21
342.5000042915345
31
0
0
LINE
5
DF
330
C
100
AcDbEntity
8
FURNITURE_PANEL
62
7
100
AcDbLine
10
541.9999996423721
20
126.49999570846563
30
0
11
560.0000003576279
21
126.49999570846563
31
0
0
LINE
5
E0
330
C
100
AcDbEntity
8
FURNITURE_PANEL
62
7
100
AcDbLine
10
560.0000003576279
20
126.49999570846563
30
0
11
560.0000003576279
21
342.5000042915345
31
0
0
LINE
5
E1
330
C
100
AcDbEntity
8
FURNITURE_PANEL
62
7
100
AcDbLine
10
560.0000003576279
20
342.5000042915345
30
0
11
560.0000003576279
21
126.49999570846563
31
0
0
LINE
5
E2
330
C
100
AcDbEntity
8
FURNITURE_PANEL
62
7
100
AcDbLine
10
541.9999996423721
20
342.5000042915345
30
0
11
560.0000003576279
21
342.5000042915345
31
0
0
LINE
5
E3
330
C
100
AcDbEntity
8
FURNITURE_PANEL
62
7
100
AcDbLine
10
560.0000003576279
20
126.49999570846563
30
0
11
541.9999996423721
21
126.49999570846563
31
0
0
LINE
5
E4
330
C
100
AcDbEntity
8
FURNITURE_PANEL
62
7
100
AcDbLine
10
541.9999996423721
20
126.49999570846563
30
0
11
541.9999996423721
21
342.5000042915345
31
0
0
LINE
5
E5
330
C
100
AcDbEntity
8
FURNITURE_PANEL
62
7
100
AcDbLine
10
71.99998855590843
20
357.5000019073487
30
0
11
71.99998855590843
21
111.49999809265142
31
0
0
LINE
5
E6
330
C
100
AcDbEntity
8
FURNITURE_PANEL
62
7
100
AcDbLine
10
598.0000114440918
20
357.5000019073487
30
0
11
71.99998855590843
21
357.5000019073487
31
0
0
LINE
5
E7
330
C
100
AcDbEntity
8
FURNITURE_PANEL
62
7
100
AcDbLine
10
71.99998855590843
20
111.49999809265142
30
0
11
598.0000114440918
21
111.49999809265142
31
0
0
LINE
5
E8
330
C
100
AcDbEntity
8
FURNITURE_PANEL
62
7
100
AcDbLine
10
598.0000114440918
20
111.49999809265142
30
0
11
598.0000114440918
21
357.5000019073487
31
0
0
LINE
5
E9
330
C
100
AcDbEntity
8
FURNITURE_PANEL
62
7
100
AcDbLine
10
598.0000114440918
20
357.5000019073487
30
0
11
598.0000114440918
21
111.49999809265142
31
0
0
LINE
5
EA
330
C
100
AcDbEntity
8
FURNITURE_PANEL
62
7
100
AcDbLine
10
71.99998855590843
20
357.5000019073487
30
0
11
598.0000114440918
21
357.5000019073487
31
0
0
LINE
5
EB
330
C
100
AcDbEntity
8
FURNITURE_PANEL
62
7
100
AcDbLine
10
598.0000114440918
20
111.49999809265142
30
0
11
71.99998855590843
21
111.49999809265142
31
0
0
LINE
5
EC
330
C
100
AcDbEntity
8
FURNITURE_PANEL
62
7
100
AcDbLine
10
71.99998855590843
20
111.49999809265142
30
0
11
71.99998855590843
21
357.5000019073487
31
0
0
LINE
5
ED
330
C
100
AcDbEntity
8
FURNITURE_PANEL
62
7
100
AcDbLine
10
123.00001144409202
20
428.5000000372529
30
0
11
123.00001144409202
21
423.4999999627471
31
0
0
LINE
5
EE
330
C
100
AcDbEntity
8
FURNITURE_PANEL
62
7
100
AcDbLine
10
546.9999885559082
20
428.5000000372529
30
0
11
123.00001144409202
21
428.5000000372529
31
0
0
LINE
5
EF
330
C
100
AcDbEntity
8
FURNITURE_PANEL
62
7
100
AcDbLine
10
123.00001144409202
20
423.4999999627471
30
0
11
546.9999885559082
21
423.4999999627471
31
0
0
LINE
5
F0
330
C
100
AcDbEntity
8
FURNITURE_PANEL
62
7
100
AcDbLine
10
546.9999885559082
20
423.4999999627471
30
0
11
546.9999885559082
21
428.5000000372529
31
0
0
LINE
5
F1
330
C
100
AcDbEntity
8
FURNITURE_PANEL
62
7
100
AcDbLine
10
546.9999885559082
20
428.5000000372529
30
0
11
546.9999885559082
21
423.4999999627471
31
0
0
LINE
5
F2
330
C
100
AcDbEntity
8
FURNITURE_PANEL
62
7
100
AcDbLine
10
123.00001144409202
20
428.5000000372529
30
0
11
546.9999885559082
21
428.5000000372529
31
0
0
LINE
5
F3
330
C
100
AcDbEntity
8
FURNITURE_PANEL
62
7
100
AcDbLine
10
546.9999885559082
20
423.4999999627471
30
0
11
123.00001144409202
21
423.4999999627471
31
0
0
LINE
5
F4
330
C
100
AcDbEntity
8
FURNITURE_PANEL
62
7
100
AcDbLine
10
123.00001144409202
20
423.4999999627471
30
0
11
123.00001144409202
21
428.5000000372529
31
0
0
LINE
5
F5
330
C
100
AcDbEntity
8
FURNITURE_PANEL
62
7
100
AcDbLine
10
110.00000000000023
20
621.5000042915345
30
0
11
110.00000000000023
21
405.49999570846563
31
0
0
LINE
5
F6
330
C
100
AcDbEntity
8
FURNITURE_PANEL
62
7
100
AcDbLine
10
560
20
621.5000042915345
30
0
11
110.00000000000023
21
621.5000042915345
31
0
0
LINE
5
F7
330
C
100
AcDbEntity
8
FURNITURE_PANEL
62
7
100
AcDbLine
10
110.00000000000023
20
405.49999570846563
30
0
11
560
21
405.49999570846563
31
0
0
LINE
5
F8
330
C
100
AcDbEntity
8
FURNITURE_PANEL
62
7
100
AcDbLine
10
560
20
405.49999570846563
30
0
11
560
21
621.5000042915345
31
0
0
LINE
5
F9
330
C
100
AcDbEntity
8
FURNITURE_PANEL
62
7
100
AcDbLine
10
560
20
621.5000042915345
30
0
11
560
21
405.49999570846563
31
0
0
LINE
5
FA
330
C
100
AcDbEntity
8
FURNITURE_PANEL
62
7
100
AcDbLine
10
110.00000000000023
20
621.5000042915345
30
0
11
560
21
621.5000042915345
31
0
0
LINE
5
FB
330
C
100
AcDbEntity
8
FURNITURE_PANEL
62
7
100
AcDbLine
10
560
20
405.49999570846563
30
0
11
110.00000000000023
21
405.49999570846563
31
0
0
LINE
5
FC
330
C
100
AcDbEntity
8
FURNITURE_PANEL
62
7
100
AcDbLine
10
110.00000000000023
20
405.49999570846563
30
0
11
110.00000000000023
21
621.5000042915345
31
0
0
LINE
5
FD
330
C
100
AcDbEntity
8
FURNITURE_PANEL
62
7
100
AcDbLine
10
110.00000000000023
20
621.5000042915345
30
0
11
110.00000000000023
21
405.49999570846563
31
0
0
LINE
5
FE
330
C
100
AcDbEntity
8
FURNITURE_PANEL
62
7
100
AcDbLine
10
560
20
621.5000042915345
30
0
11
110.00000000000023
21
621.5000042915345
31
0
0
LINE
5
FF
330
C
100
AcDbEntity
8
FURNITURE_PANEL
62
7
100
AcDbLine
10
110.00000000000023
20
405.49999570846563
30
0
11
560
21
405.49999570846563
31
0
0
LINE
5
100
330
C
100
AcDbEntity
8
FURNITURE_PANEL
62
7
100
AcDbLine
10
560
20
405.49999570846563
30
0
11
560
21
621.5000042915345
31
0
0
LINE
5
101
330
C
100
AcDbEntity
8
FURNITURE_PANEL
62
7
100
AcDbLine
10
560
20
621.5000042915345
30
0
11
560
21
405.49999570846563
31
0
0
LINE
5
102
330
C
100
AcDbEntity
8
FURNITURE_PANEL
62
7
100
AcDbLine
10
110.00000000000023
20
621.5000042915345
30
0
11
560
21
621.5000042915345
31
0
0
LINE
5
103
330
C
100
AcDbEntity
8
FURNITURE_PANEL
62
7
100
AcDbLine
10
560
20
405.49999570846563
30
0
11
110.00000000000023
21
405.49999570846563
31
0
0
LINE
5
104
330
C
100
AcDbEntity
8
FURNITURE_PANEL
62
7
100
AcDbLine
10
110.00000000000023
20
405.49999570846563
30
0
11
110.00000000000023
21
621.5000042915345
31
0
0
LINE
5
105
330
C
100
AcDbEntity
8
FURNITURE_PANEL
62
7
100
AcDbLine
10
109.9999996423719
20
621.5000042915345
30
0
11
109.9999996423719
21
405.49999570846563
31
0
0
LINE
5
106
330
C
100
AcDbEntity
8
FURNITURE_PANEL
62
7
100
AcDbLine
10
128.00000035762764
20
621.5000042915345
30
0
11
109.9999996423719
21
621.5000042915345
31
0
0
LINE
5
107
330
C
100
AcDbEntity
8
FURNITURE_PANEL
62
7
100
AcDbLine
10
109.9999996423719
20
405.49999570846563
30
0
11
128.00000035762764
21
405.49999570846563
31
0
0
LINE
5
108
330
C
100
AcDbEntity
8
FURNITURE_PANEL
62
7
100
AcDbLine
10
128.00000035762764
20
405.49999570846563
30
0
11
128.00000035762764
21
621.5000042915345
31
0
0
LINE
5
109
330
C
100
AcDbEntity
8
FURNITURE_PANEL
62
7
100
AcDbLine
10
128.00000035762764
20
621.5000042915345
30
0
11
128.00000035762764
21
405.49999570846563
31
0
0
LINE
5
10A
330
C
100
AcDbEntity
8
FURNITURE_PANEL
62
7
100
AcDbLine
10
109.9999996423719
20
621.5000042915345
30
0
11
128.00000035762764
21
621.5000042915345
31
0
0
LINE
5
10B
330
C
100
AcDbEntity
8
FURNITURE_PANEL
62
7
100
AcDbLine
10
128.00000035762764
20
405.49999570846563
30
0
11
109.9999996423719
21
405.49999570846563
31
0
0
LINE
5
10C
330
C
100
AcDbEntity
8
FURNITURE_PANEL
62
7
100
AcDbLine
10
109.9999996423719
20
405.49999570846563
30
0
11
109.9999996423719
21
621.5000042915345
31
0
0
LINE
5
10D
330
C
100
AcDbEntity
8
FURNITURE_PANEL
62
7
100
AcDbLine
10
541.9999996423721
20
621.5000042915345
30
0
11
541.9999996423721
21
405.49999570846563
31
0
0
LINE
5
10E
330
C
100
AcDbEntity
8
FURNITURE_PANEL
62
7
100
AcDbLine
10
560.0000003576279
20
621.5000042915345
30
0
11
541.9999996423721
21
621.5000042915345
31
0
0
LINE
5
10F
330
C
100
AcDbEntity
8
FURNITURE_PANEL
62
7
100
AcDbLine
10
541.9999996423721
20
405.49999570846563
30
0
11
560.0000003576279
21
405.49999570846563
31
0
0
LINE
5
110
330
C
100
AcDbEntity
8
FURNITURE_PANEL
62
7
100
AcDbLine
10
560.0000003576279
20
405.49999570846563
30
0
11
560.0000003576279
21
621.5000042915345
31
0
0
LINE
5
111
330
C
100
AcDbEntity
8
FURNITURE_PANEL
62
7
100
AcDbLine
10
560.0000003576279
20
621.5000042915345
30
0
11
560.0000003576279
21
405.49999570846563
31
0
0
LINE
5
112
330
C
100
AcDbEntity
8
FURNITURE_PANEL
62
7
100
AcDbLine
10
541.9999996423721
20
621.5000042915345
30
0
11
560.0000003576279
21
621.5000042915345
31
0
0
LINE
5
113
330
C
100
AcDbEntity
8
FURNITURE_PANEL
62
7
100
AcDbLine
10
560.0000003576279
20
405.49999570846563
30
0
11
541.9999996423721
21
405.49999570846563
31
0
0
LINE
5
114
330
C
100
AcDbEntity
8
FURNITURE_PANEL
62
7
100
AcDbLine
10
541.9999996423721
20
405.49999570846563
30
0
11
541.9999996423721
21
621.5000042915345
31
0
0
LINE
5
115
330
C
100
AcDbEntity
8
FURNITURE_PANEL
62
7
100
AcDbLine
10
71.99998855590843
20
636.5000019073487
30
0
11
71.99998855590843
21
390.4999980926514
31
0
0
LINE
5
116
330
C
100
AcDbEntity
8
FURNITURE_PANEL
62
7
100
AcDbLine
10
598.0000114440918
20
636.5000019073487
30
0
11
71.99998855590843
21
636.5000019073487
31
0
0
LINE
5
117
330
C
100
AcDbEntity
8
FURNITURE_PANEL
62
7
100
AcDbLine
10
71.99998855590843
20
390.4999980926514
30
0
11
598.0000114440918
21
390.4999980926514
31
0
0
LINE
5
118
330
C
100
AcDbEntity
8
FURNITURE_PANEL
62
7
100
AcDbLine
10
598.0000114440918
20
390.4999980926514
30
0
11
598.0000114440918
21
636.5000019073487
31
0
0
LINE
5
119
330
C
100
AcDbEntity
8
FURNITURE_PANEL
62
7
100
AcDbLine
10
598.0000114440918
20
636.5000019073487
30
0
11
598.0000114440918
21
390.4999980926514
31
0
0
LINE
5
11A
330
C
100
AcDbEntity
8
FURNITURE_PANEL
62
7
100
AcDbLine
10
71.99998855590843
20
636.5000019073487
30
0
11
598.0000114440918
21
636.5000019073487
31
0
0
LINE
5
11B
330
C
100
AcDbEntity
8
FURNITURE_PANEL
62
7
100
AcDbLine
10
598.0000114440918
20
390.4999980926514
30
0
11
71.99998855590843
21
390.4999980926514
31
0
0
LINE
5
11C
330
C
100
AcDbEntity
8
FURNITURE_PANEL
62
7
100
AcDbLine
10
71.99998855590843
20
390.4999980926514
30
0
11
71.99998855590843
21
636.5000019073487
31
0
0
LINE
5
11D
330
C
100
AcDbEntity
8
DIMENSIONS
62
7
100
AcDbLine
10
252.5000011920929
20
647.0000171661377
30
0
11
252.5000011920929
21
83.00003051757815
31
0
0
LINE
5
11E
330
C
100
AcDbEntity
8
DIMENSIONS
62
7
100
AcDbLine
10
252.5000011920929
20
65.00000000000003
30
0
11
252.5000011920929
21
83.00003051757815
31
0
0
LINE
5
11F
330
C
100
AcDbEntity
8
FURNITURE_PANEL
62
7
100
AcDbLine
10
60.00000000000023
20
2142.000000357628
30
0
11
60.00000000000023
21
2123.999999642372
31
0
0
LINE
5
120
330
C
100
AcDbEntity
8
FURNITURE_PANEL
62
7
100
AcDbLine
10
610
20
2142.000000357628
30
0
11
60.00000000000023
21
2142.000000357628
31
0
0
LINE
5
121
330
C
100
AcDbEntity
8
FURNITURE_PANEL
62
7
100
AcDbLine
10
60.00000000000023
20
2123.999999642372
30
0
11
610
21
2123.999999642372
31
0
0
LINE
5
122
330
C
100
AcDbEntity
8
FURNITURE_PANEL
62
7
100
AcDbLine
10
610
20
2123.999999642372
30
0
11
610
21
2142.000000357628
31
0
0
LINE
5
123
330
C
100
AcDbEntity
8
FURNITURE_PANEL
62
7
100
AcDbLine
10
610
20
2142.000000357628
30
0
11
610
21
2123.999999642372
31
0
0
LINE
5
124
330
C
100
AcDbEntity
8
FURNITURE_PANEL
62
7
100
AcDbLine
10
60.00000000000023
20
2142.000000357628
30
0
11
610
21
2142.000000357628
31
0
0
LINE
5
125
330
C
100
AcDbEntity
8
FURNITURE_PANEL
62
7
100
AcDbLine
10
610
20
2123.999999642372
30
0
11
60.00000000000023
21
2123.999999642372
31
0
0
LINE
5
126
330
C
100
AcDbEntity
8
FURNITURE_PANEL
62
7
100
AcDbLine
10
60.00000000000023
20
2123.999999642372
30
0
11
60.00000000000023
21
2142.000000357628
31
0
0
LINE
5
127
330
C
100
AcDbEntity
8
DIMENSIONS
62
7
100
AcDbLine
10
252.5000011920929
20
2141.9999980926514
30
0
11
252.5000011920929
21
2124.000015258789
31
0
0
LINE
5
128
330
C
100
AcDbEntity
8
DIMENSIONS
62
7
100
AcDbLine
10
252.5000011920929
20
2124.000015258789
30
0
11
252.5000011920929
21
682.9999828338623
31
0
0
LINE
5
129
330
C
100
AcDbEntity
8
DIMENSIONS
62
7
100
AcDbLine
10
252.5000011920929
20
2371.999969482422
30
0
11
252.5000011920929
21
2142.000045776367
31
0
0
LINE
5
12A
330
C
100
AcDbEntity
8
CLOTHING_ROD
62
7
100
AcDbLine
10
60.00000013411045
20
2124
30
0
11
60.00000013411045
21
2049
31
0
0
LINE
5
12B
330
C
100
AcDbEntity
8
CLOTHING_ROD
62
7
100
AcDbLine
10
71.99999986588955
20
2124
30
0
11
60.00000013411045
21
2124
31
0
0
LINE
5
12C
330
C
100
AcDbEntity
8
CLOTHING_ROD
62
7
100
AcDbLine
10
60.00000013411045
20
2049
30
0
11
71.99999986588955
21
2049
31
0
0
LINE
5
12D
330
C
100
AcDbEntity
8
CLOTHING_ROD
62
7
100
AcDbLine
10
71.99999986588955
20
2049
30
0
11
71.99999986588955
21
2124
31
0
0
LINE
5
12E
330
C
100
AcDbEntity
8
CLOTHING_ROD
62
7
100
AcDbLine
10
71.99999986588955
20
2124
30
0
11
71.99999986588955
21
2049
31
0
0
LINE
5
12F
330
C
100
AcDbEntity
8
CLOTHING_ROD
62
7
100
AcDbLine
10
60.00000013411045
20
2124
30
0
11
71.99999986588955
21
2124
31
0
0
LINE
5
130
330
C
100
AcDbEntity
8
CLOTHING_ROD
62
7
100
AcDbLine
10
71.99999986588955
20
2049
30
0
11
60.00000013411045
21
2049
31
0
0
LINE
5
131
330
C
100
AcDbEntity
8
CLOTHING_ROD
62
7
100
AcDbLine
10
60.00000013411045
20
2049
30
0
11
60.00000013411045
21
2124
31
0
0
LINE
5
132
330
C
100
AcDbEntity
8
CLOTHING_ROD
62
7
100
AcDbLine
10
598.0000001341105
20
2124
30
0
11
598.0000001341105
21
2049
31
0
0
LINE
5
133
330
C
100
AcDbEntity
8
CLOTHING_ROD
62
7
100
AcDbLine
10
609.9999998658895
20
2124
30
0
11
598.0000001341105
21
2124
31
0
0
LINE
5
134
330
C
100
AcDbEntity
8
CLOTHING_ROD
62
7
100
AcDbLine
10
598.0000001341105
20
2049
30
0
11
609.9999998658895
21
2049
31
0
0
LINE
5
135
330
C
100
AcDbEntity
8
CLOTHING_ROD
62
7
100
AcDbLine
10
609.9999998658895
20
2049
30
0
11
609.9999998658895
21
2124
31
0
0
LINE
5
136
330
C
100
AcDbEntity
8
CLOTHING_ROD
62
7
100
AcDbLine
10
609.9999998658895
20
2124
30
0
11
609.9999998658895
21
2049
31
0
0
LINE
5
137
330
C
100
AcDbEntity
8
CLOTHING_ROD
62
7
100
AcDbLine
10
598.0000001341105
20
2124
30
0
11
609.9999998658895
21
2124
31
0
0
LINE
5
138
330
C
100
AcDbEntity
8
CLOTHING_ROD
62
7
100
AcDbLine
10
609.9999998658895
20
2049
30
0
11
598.0000001341105
21
2049
31
0
0
LINE
5
139
330
C
100
AcDbEntity
8
CLOTHING_ROD
62
7
100
AcDbLine
10
598.0000001341105
20
2049
30
0
11
598.0000001341105
21
2124
31
0
0
LINE
5
13A
330
C
100
AcDbEntity
8
CLOTHING_ROD
62
7
100
AcDbLine
10
71.99998855590843
20
2084.0000005960464
30
0
11
71.99998855590843
21
2053.9999994039536
31
0
0
LINE
5
13B
330
C
100
AcDbEntity
8
CLOTHING_ROD
62
7
100
AcDbLine
10
598.0000114440918
20
2084.0000005960464
30
0
11
71.99998855590843
21
2084.0000005960464
31
0
0
LINE
5
13C
330
C
100
AcDbEntity
8
CLOTHING_ROD
62
7
100
AcDbLine
10
71.99998855590843
20
2053.9999994039536
30
0
11
598.0000114440918
21
2053.9999994039536
31
0
0
LINE
5
13D
330
C
100
AcDbEntity
8
CLOTHING_ROD
62
7
100
AcDbLine
10
598.0000114440918
20
2053.9999994039536
30
0
11
598.0000114440918
21
2084.0000005960464
31
0
0
LINE
5
13E
330
C
100
AcDbEntity
8
CLOTHING_ROD
62
7
100
AcDbLine
10
598.0000114440918
20
2084.0000005960464
30
0
11
598.0000114440918
21
2053.9999994039536
31
0
0
LINE
5
13F
330
C
100
AcDbEntity
8
CLOTHING_ROD
62
7
100
AcDbLine
10
71.99998855590843
20
2084.0000005960464
30
0
11
598.0000114440918
21
2084.0000005960464
31
0
0
LINE
5
140
330
C
100
AcDbEntity
8
CLOTHING_ROD
62
7
100
AcDbLine
10
598.0000114440918
20
2053.9999994039536
30
0
11
71.99998855590843
21
2053.9999994039536
31
0
0
LINE
5
141
330
C
100
AcDbEntity
8
CLOTHING_ROD
62
7
100
AcDbLine
10
71.99998855590843
20
2053.9999994039536
30
0
11
71.99998855590843
21
2084.0000005960464
31
0
0
LINE
5
142
330
C
100
AcDbEntity
8
FURNITURE_PANEL
62
30
100
AcDbLine
10
60.00000000000023
20
2142.000000357628
30
0
11
60.00000000000023
21
2123.999999642372
31
0
0
LINE
5
143
330
C
100
AcDbEntity
8
FURNITURE_PANEL
62
30
100
AcDbLine
10
610
20
2142.000000357628
30
0
11
60.00000000000023
21
2142.000000357628
31
0
0
LINE
5
144
330
C
100
AcDbEntity
8
FURNITURE_PANEL
62
30
100
AcDbLine
10
60.00000000000023
20
2123.999999642372
30
0
11
610
21
2123.999999642372
31
0
0
LINE
5
145
330
C
100
AcDbEntity
8
FURNITURE_PANEL
62
30
100
AcDbLine
10
610
20
2123.999999642372
30
0
11
610
21
2142.000000357628
31
0
0
LINE
5
146
330
C
100
AcDbEntity
8
FURNITURE_PANEL
62
30
100
AcDbLine
10
610
20
2142.000000357628
30
0
11
610
21
2123.999999642372
31
0
0
LINE
5
147
330
C
100
AcDbEntity
8
FURNITURE_PANEL
62
30
100
AcDbLine
10
60.00000000000023
20
2142.000000357628
30
0
11
610
21
2142.000000357628
31
0
0
LINE
5
148
330
C
100
AcDbEntity
8
FURNITURE_PANEL
62
30
100
AcDbLine
10
610
20
2123.999999642372
30
0
11
60.00000000000023
21
2123.999999642372
31
0
0
LINE
5
149
330
C
100
AcDbEntity
8
FURNITURE_PANEL
62
30
100
AcDbLine
10
60.00000000000023
20
2123.999999642372
30
0
11
60.00000000000023
21
2142.000000357628
31
0
0
LINE
5
14A
330
C
100
AcDbEntity
8
BACK_PANEL
62
252
100
AcDbLine
10
55.00000476837181
20
651.9499885559081
30
0
11
55.00000476837181
21
77.95001144409177
31
0
0
LINE
5
14B
330
C
100
AcDbEntity
8
BACK_PANEL
62
252
100
AcDbLine
10
614.9999952316284
20
651.9499885559081
30
0
11
55.00000476837181
21
651.9499885559081
31
0
0
LINE
5
14C
330
C
100
AcDbEntity
8
BACK_PANEL
62
252
100
AcDbLine
10
55.00000476837181
20
77.95001144409177
30
0
11
614.9999952316284
21
77.95001144409177
31
0
0
LINE
5
14D
330
C
100
AcDbEntity
8
BACK_PANEL
62
252
100
AcDbLine
10
614.9999952316284
20
77.95001144409177
30
0
11
614.9999952316284
21
651.9499885559081
31
0
0
LINE
5
14E
330
C
100
AcDbEntity
8
BACK_PANEL
62
252
100
AcDbLine
10
614.9999952316284
20
651.9499885559081
30
0
11
614.9999952316284
21
77.95001144409177
31
0
0
LINE
5
14F
330
C
100
AcDbEntity
8
BACK_PANEL
62
252
100
AcDbLine
10
55.00000476837181
20
651.9499885559081
30
0
11
614.9999952316284
21
651.9499885559081
31
0
0
LINE
5
150
330
C
100
AcDbEntity
8
BACK_PANEL
62
252
100
AcDbLine
10
614.9999952316284
20
77.95001144409177
30
0
11
55.00000476837181
21
77.95001144409177
31
0
0
LINE
5
151
330
C
100
AcDbEntity
8
BACK_PANEL
62
252
100
AcDbLine
10
55.00000476837181
20
77.95001144409177
30
0
11
55.00000476837181
21
651.9499885559081
31
0
0
LINE
5
152
330
C
100
AcDbEntity
8
BACK_PANEL
62
252
100
AcDbLine
10
55.00000476837181
20
2376.999988555908
30
0
11
55.00000476837181
21
678.0000114440918
31
0
0
LINE
5
153
330
C
100
AcDbEntity
8
BACK_PANEL
62
252
100
AcDbLine
10
614.9999952316284
20
2376.999988555908
30
0
11
55.00000476837181
21
2376.999988555908
31
0
0
LINE
5
154
330
C
100
AcDbEntity
8
BACK_PANEL
62
252
100
AcDbLine
10
55.00000476837181
20
678.0000114440918
30
0
11
614.9999952316284
21
678.0000114440918
31
0
0
LINE
5
155
330
C
100
AcDbEntity
8
BACK_PANEL
62
252
100
AcDbLine
10
614.9999952316284
20
678.0000114440918
30
0
11
614.9999952316284
21
2376.999988555908
31
0
0
LINE
5
156
330
C
100
AcDbEntity
8
BACK_PANEL
62
252
100
AcDbLine
10
614.9999952316284
20
2376.999988555908
30
0
11
614.9999952316284
21
678.0000114440918
31
0
0
LINE
5
157
330
C
100
AcDbEntity
8
BACK_PANEL
62
252
100
AcDbLine
10
55.00000476837181
20
2376.999988555908
30
0
11
614.9999952316284
21
2376.999988555908
31
0
0
LINE
5
158
330
C
100
AcDbEntity
8
BACK_PANEL
62
252
100
AcDbLine
10
614.9999952316284
20
678.0000114440918
30
0
11
55.00000476837181
21
678.0000114440918
31
0
0
LINE
5
159
330
C
100
AcDbEntity
8
BACK_PANEL
62
252
100
AcDbLine
10
55.00000476837181
20
678.0000114440918
30
0
11
55.00000476837181
21
2376.999988555908
31
0
0
LINE
5
15A
330
C
100
AcDbEntity
8
CLOTHING_ROD
62
7
100
AcDbLine
10
60.00000013411045
20
2124
30
0
11
60.00000013411045
21
2049
31
0
0
LINE
5
15B
330
C
100
AcDbEntity
8
CLOTHING_ROD
62
7
100
AcDbLine
10
71.99999986588955
20
2124
30
0
11
60.00000013411045
21
2124
31
0
0
LINE
5
15C
330
C
100
AcDbEntity
8
CLOTHING_ROD
62
7
100
AcDbLine
10
60.00000013411045
20
2049
30
0
11
71.99999986588955
21
2049
31
0
0
LINE
5
15D
330
C
100
AcDbEntity
8
CLOTHING_ROD
62
7
100
AcDbLine
10
71.99999986588955
20
2049
30
0
11
71.99999986588955
21
2124
31
0
0
LINE
5
15E
330
C
100
AcDbEntity
8
CLOTHING_ROD
62
7
100
AcDbLine
10
71.99999986588955
20
2124
30
0
11
71.99999986588955
21
2049
31
0
0
LINE
5
15F
330
C
100
AcDbEntity
8
CLOTHING_ROD
62
7
100
AcDbLine
10
60.00000013411045
20
2124
30
0
11
71.99999986588955
21
2124
31
0
0
LINE
5
160
330
C
100
AcDbEntity
8
CLOTHING_ROD
62
7
100
AcDbLine
10
71.99999986588955
20
2049
30
0
11
60.00000013411045
21
2049
31
0
0
LINE
5
161
330
C
100
AcDbEntity
8
CLOTHING_ROD
62
7
100
AcDbLine
10
60.00000013411045
20
2049
30
0
11
60.00000013411045
21
2124
31
0
0
LINE
5
162
330
C
100
AcDbEntity
8
CLOTHING_ROD
62
7
100
AcDbLine
10
598.0000001341105
20
2124
30
0
11
598.0000001341105
21
2049
31
0
0
LINE
5
163
330
C
100
AcDbEntity
8
CLOTHING_ROD
62
7
100
AcDbLine
10
609.9999998658895
20
2124
30
0
11
598.0000001341105
21
2124
31
0
0
LINE
5
164
330
C
100
AcDbEntity
8
CLOTHING_ROD
62
7
100
AcDbLine
10
598.0000001341105
20
2049
30
0
11
609.9999998658895
21
2049
31
0
0
LINE
5
165
330
C
100
AcDbEntity
8
CLOTHING_ROD
62
7
100
AcDbLine
10
609.9999998658895
20
2049
30
0
11
609.9999998658895
21
2124
31
0
0
LINE
5
166
330
C
100
AcDbEntity
8
CLOTHING_ROD
62
7
100
AcDbLine
10
609.9999998658895
20
2124
30
0
11
609.9999998658895
21
2049
31
0
0
LINE
5
167
330
C
100
AcDbEntity
8
CLOTHING_ROD
62
7
100
AcDbLine
10
598.0000001341105
20
2124
30
0
11
609.9999998658895
21
2124
31
0
0
LINE
5
168
330
C
100
AcDbEntity
8
CLOTHING_ROD
62
7
100
AcDbLine
10
609.9999998658895
20
2049
30
0
11
598.0000001341105
21
2049
31
0
0
LINE
5
169
330
C
100
AcDbEntity
8
CLOTHING_ROD
62
7
100
AcDbLine
10
598.0000001341105
20
2049
30
0
11
598.0000001341105
21
2124
31
0
0
LINE
5
16A
330
C
100
AcDbEntity
8
CLOTHING_ROD
62
7
100
AcDbLine
10
71.99998855590843
20
2084.0000005960464
30
0
11
71.99998855590843
21
2053.9999994039536
31
0
0
LINE
5
16B
330
C
100
AcDbEntity
8
CLOTHING_ROD
62
7
100
AcDbLine
10
598.0000114440918
20
2084.0000005960464
30
0
11
71.99998855590843
21
2084.0000005960464
31
0
0
LINE
5
16C
330
C
100
AcDbEntity
8
CLOTHING_ROD
62
7
100
AcDbLine
10
71.99998855590843
20
2053.9999994039536
30
0
11
598.0000114440918
21
2053.9999994039536
31
0
0
LINE
5
16D
330
C
100
AcDbEntity
8
CLOTHING_ROD
62
7
100
AcDbLine
10
598.0000114440918
20
2053.9999994039536
30
0
11
598.0000114440918
21
2084.0000005960464
31
0
0
LINE
5
16E
330
C
100
AcDbEntity
8
CLOTHING_ROD
62
7
100
AcDbLine
10
598.0000114440918
20
2084.0000005960464
30
0
11
598.0000114440918
21
2053.9999994039536
31
0
0
LINE
5
16F
330
C
100
AcDbEntity
8
CLOTHING_ROD
62
7
100
AcDbLine
10
71.99998855590843
20
2084.0000005960464
30
0
11
598.0000114440918
21
2084.0000005960464
31
0
0
LINE
5
170
330
C
100
AcDbEntity
8
CLOTHING_ROD
62
7
100
AcDbLine
10
598.0000114440918
20
2053.9999994039536
30
0
11
71.99998855590843
21
2053.9999994039536
31
0
0
LINE
5
171
330
C
100
AcDbEntity
8
CLOTHING_ROD
62
7
100
AcDbLine
10
71.99998855590843
20
2053.9999994039536
30
0
11
71.99998855590843
21
2084.0000005960464
31
0
0
LINE
5
172
330
C
100
AcDbEntity
8
ACCESSORIES
62
8
100
AcDbLine
10
42.00000071525551
20
65.00000001490119
30
0
11
42.00000071525551
21
57.999999985098874
31
0
0
LINE
5
173
330
C
100
AcDbEntity
8
ACCESSORIES
62
8
100
AcDbLine
10
105.99999928474404
20
65.00000001490119
30
0
11
42.00000071525551
21
65.00000001490119
31
0
0
LINE
5
174
330
C
100
AcDbEntity
8
ACCESSORIES
62
8
100
AcDbLine
10
42.00000071525551
20
57.999999985098874
30
0
11
105.99999928474404
21
57.999999985098874
31
0
0
LINE
5
175
330
C
100
AcDbEntity
8
ACCESSORIES
62
8
100
AcDbLine
10
105.99999928474404
20
57.999999985098874
30
0
11
105.99999928474404
21
65.00000001490119
31
0
0
LINE
5
176
330
C
100
AcDbEntity
8
ACCESSORIES
62
8
100
AcDbLine
10
105.99999928474404
20
65.00000001490119
30
0
11
105.99999928474404
21
57.999999985098874
31
0
0
LINE
5
177
330
C
100
AcDbEntity
8
ACCESSORIES
62
8
100
AcDbLine
10
42.00000071525551
20
65.00000001490119
30
0
11
105.99999928474404
21
65.00000001490119
31
0
0
LINE
5
178
330
C
100
AcDbEntity
8
ACCESSORIES
62
8
100
AcDbLine
10
105.99999928474404
20
57.999999985098874
30
0
11
42.00000071525551
21
57.999999985098874
31
0
0
LINE
5
179
330
C
100
AcDbEntity
8
ACCESSORIES
62
8
100
AcDbLine
10
42.00000071525551
20
57.999999985098874
30
0
11
42.00000071525551
21
65.00000001490119
31
0
0
LINE
5
17A
330
C
100
AcDbEntity
8
ACCESSORIES
62
8
100
AcDbLine
10
79.46252913773037
20
57.99999916553501
30
0
11
79.46252913773037
21
8.344650637148732e-7
31
0
0
LINE
5
17B
330
C
100
AcDbEntity
8
ACCESSORIES
62
8
100
AcDbLine
10
84.71513593196846
20
57.99999916553501
30
0
11
84.71513593196846
21
8.344650637148732e-7
31
0
0
LINE
5
17C
330
C
100
AcDbEntity
8
ACCESSORIES
62
8
100
AcDbLine
10
89.55596590042092
20
57.99999916553501
30
0
11
89.55596590042092
21
8.344650637148732e-7
31
0
0
LINE
5
17D
330
C
100
AcDbEntity
8
ACCESSORIES
62
8
100
AcDbLine
10
93.79898959398247
20
57.99999916553501
30
0
11
93.79898959398247
21
8.344650637148732e-7
31
0
0
LINE
5
17E
330
C
100
AcDbEntity
8
ACCESSORIES
62
8
100
AcDbLine
10
97.28114956617333
20
57.99999916553501
30
0
11
97.28114956617333
21
8.344650637148732e-7
31
0
0
LINE
5
17F
330
C
100
AcDbEntity
8
ACCESSORIES
62
8
100
AcDbLine
10
99.86862742900826
20
57.99999916553501
30
0
11
99.86862742900826
21
8.344650637148732e-7
31
0
0
LINE
5
180
330
C
100
AcDbEntity
8
ACCESSORIES
62
8
100
AcDbLine
10
101.46198773384072
20
57.99999916553501
30
0
11
101.46198773384072
21
8.344650637148732e-7
31
0
0
LINE
5
181
330
C
100
AcDbEntity
8
ACCESSORIES
62
8
100
AcDbLine
10
102.00000011920906
20
57.99999916553501
30
0
11
102.00000011920906
21
8.344650637148732e-7
31
0
0
LINE
5
182
330
C
100
AcDbEntity
8
ACCESSORIES
62
8
100
AcDbLine
10
101.46198773384072
20
57.99999916553501
30
0
11
101.46198773384072
21
8.344650637148732e-7
31
0
0
LINE
5
183
330
C
100
AcDbEntity
8
ACCESSORIES
62
8
100
AcDbLine
10
99.86862742900826
20
57.99999916553501
30
0
11
99.86862742900826
21
8.344650637148732e-7
31
0
0
LINE
5
184
330
C
100
AcDbEntity
8
ACCESSORIES
62
8
100
AcDbLine
10
97.28114956617333
20
57.99999916553501
30
0
11
97.28114956617333
21
8.344650637148732e-7
31
0
0
LINE
5
185
330
C
100
AcDbEntity
8
ACCESSORIES
62
8
100
AcDbLine
10
93.79898959398247
20
57.99999916553501
30
0
11
93.79898959398247
21
8.344650637148732e-7
31
0
0
LINE
5
186
330
C
100
AcDbEntity
8
ACCESSORIES
62
8
100
AcDbLine
10
89.55596590042092
20
57.99999916553501
30
0
11
89.55596590042092
21
8.344650637148732e-7
31
0
0
LINE
5
187
330
C
100
AcDbEntity
8
ACCESSORIES
62
8
100
AcDbLine
10
84.71513593196846
20
57.99999916553501
30
0
11
84.71513593196846
21
8.344650637148732e-7
31
0
0
LINE
5
188
330
C
100
AcDbEntity
8
ACCESSORIES
62
8
100
AcDbLine
10
79.46252913773037
20
57.99999916553501
30
0
11
79.46252913773037
21
8.344650637148732e-7
31
0
0
LINE
5
189
330
C
100
AcDbEntity
8
ACCESSORIES
62
8
100
AcDbLine
10
73.99999999999977
20
57.99999916553501
30
0
11
73.99999999999977
21
8.344650637148732e-7
31
0
0
LINE
5
18A
330
C
100
AcDbEntity
8
ACCESSORIES
62
8
100
AcDbLine
10
68.53747086226917
20
57.99999916553501
30
0
11
68.53747086226917
21
8.344650637148732e-7
31
0
0
LINE
5
18B
330
C
100
AcDbEntity
8
ACCESSORIES
62
8
100
AcDbLine
10
63.284864068031084
20
57.99999916553501
30
0
11
63.284864068031084
21
8.344650637148732e-7
31
0
0
LINE
5
18C
330
C
100
AcDbEntity
8
ACCESSORIES
62
8
100
AcDbLine
10
58.44403409957863
20
57.99999916553501
30
0
11
58.44403409957863
21
8.344650637148732e-7
31
0
0
LINE
5
18D
330
C
100
AcDbEntity
8
ACCESSORIES
62
8
100
AcDbLine
10
54.201010406017076
20
57.99999916553501
30
0
11
54.201010406017076
21
8.344650637148732e-7
31
0
0
LINE
5
18E
330
C
100
AcDbEntity
8
ACCESSORIES
62
8
100
AcDbLine
10
50.71885043382622
20
57.99999916553501
30
0
11
50.71885043382622
21
8.344650637148732e-7
31
0
0
LINE
5
18F
330
C
100
AcDbEntity
8
ACCESSORIES
62
8
100
AcDbLine
10
48.13137257099129
20
57.99999916553501
30
0
11
48.13137257099129
21
8.344650637148732e-7
31
0
0
LINE
5
190
330
C
100
AcDbEntity
8
ACCESSORIES
62
8
100
AcDbLine
10
46.53801226615883
20
57.99999916553501
30
0
11
46.53801226615883
21
8.344650637148732e-7
31
0
0
LINE
5
191
330
C
100
AcDbEntity
8
ACCESSORIES
62
8
100
AcDbLine
10
45.99999988079048
20
57.99999916553501
30
0
11
45.99999988079048
21
8.344650637148732e-7
31
0
0
LINE
5
192
330
C
100
AcDbEntity
8
ACCESSORIES
62
8
100
AcDbLine
10
46.53801226615883
20
57.99999916553501
30
0
11
46.53801226615883
21
8.344650637148732e-7
31
0
0
LINE
5
193
330
C
100
AcDbEntity
8
ACCESSORIES
62
8
100
AcDbLine
10
48.13137257099129
20
57.99999916553501
30
0
11
48.13137257099129
21
8.344650637148732e-7
31
0
0
LINE
5
194
330
C
100
AcDbEntity
8
ACCESSORIES
62
8
100
AcDbLine
10
50.71885043382622
20
57.99999916553501
30
0
11
50.71885043382622
21
8.344650637148732e-7
31
0
0
LINE
5
195
330
C
100
AcDbEntity
8
ACCESSORIES
62
8
100
AcDbLine
10
54.201010406017076
20
57.99999916553501
30
0
11
54.201010406017076
21
8.344650637148732e-7
31
0
0
LINE
5
196
330
C
100
AcDbEntity
8
ACCESSORIES
62
8
100
AcDbLine
10
58.44403409957863
20
57.99999916553501
30
0
11
58.44403409957863
21
8.344650637148732e-7
31
0
0
LINE
5
197
330
C
100
AcDbEntity
8
ACCESSORIES
62
8
100
AcDbLine
10
63.284864068031084
20
57.99999916553501
30
0
11
63.284864068031084
21
8.344650637148732e-7
31
0
0
LINE
5
198
330
C
100
AcDbEntity
8
ACCESSORIES
62
8
100
AcDbLine
10
68.53747086226917
20
57.99999916553501
30
0
11
68.53747086226917
21
8.344650637148732e-7
31
0
0
LINE
5
199
330
C
100
AcDbEntity
8
ACCESSORIES
62
8
100
AcDbLine
10
73.99999999999977
20
8.344650637148732e-7
30
0
11
73.99999999999977
21
57.99999916553501
31
0
0
LINE
5
19A
330
C
100
AcDbEntity
8
ACCESSORIES
62
8
100
AcDbLine
10
73.99999999999977
20
57.99999916553501
30
0
11
79.46252913773037
21
57.99999916553501
31
0
0
LINE
5
19B
330
C
100
AcDbEntity
8
ACCESSORIES
62
8
100
AcDbLine
10
79.46252913773037
20
57.99999916553501
30
0
11
84.71513593196846
21
57.99999916553501
31
0
0
LINE
5
19C
330
C
100
AcDbEntity
8
ACCESSORIES
62
8
100
AcDbLine
10
84.71513593196846
20
57.99999916553501
30
0
11
89.55596590042092
21
57.99999916553501
31
0
0
LINE
5
19D
330
C
100
AcDbEntity
8
ACCESSORIES
62
8
100
AcDbLine
10
89.55596590042092
20
57.99999916553501
30
0
11
93.79898959398247
21
57.99999916553501
31
0
0
LINE
5
19E
330
C
100
AcDbEntity
8
ACCESSORIES
62
8
100
AcDbLine
10
93.79898959398247
20
57.99999916553501
30
0
11
97.28114956617333
21
57.99999916553501
31
0
0
LINE
5
19F
330
C
100
AcDbEntity
8
ACCESSORIES
62
8
100
AcDbLine
10
97.28114956617333
20
57.99999916553501
30
0
11
99.86862742900826
21
57.99999916553501
31
0
0
LINE
5
1A0
330
C
100
AcDbEntity
8
ACCESSORIES
62
8
100
AcDbLine
10
99.86862742900826
20
57.99999916553501
30
0
11
101.46198773384072
21
57.99999916553501
31
0
0
LINE
5
1A1
330
C
100
AcDbEntity
8
ACCESSORIES
62
8
100
AcDbLine
10
101.46198773384072
20
57.99999916553501
30
0
11
99.86862742900826
21
57.99999916553501
31
0
0
LINE
5
1A2
330
C
100
AcDbEntity
8
ACCESSORIES
62
8
100
AcDbLine
10
99.86862742900826
20
57.99999916553501
30
0
11
97.28114956617333
21
57.99999916553501
31
0
0
LINE
5
1A3
330
C
100
AcDbEntity
8
ACCESSORIES
62
8
100
AcDbLine
10
97.28114956617333
20
57.99999916553501
30
0
11
93.79898959398247
21
57.99999916553501
31
0
0
LINE
5
1A4
330
C
100
AcDbEntity
8
ACCESSORIES
62
8
100
AcDbLine
10
93.79898959398247
20
57.99999916553501
30
0
11
89.55596590042092
21
57.99999916553501
31
0
0
LINE
5
1A5
330
C
100
AcDbEntity
8
ACCESSORIES
62
8
100
AcDbLine
10
89.55596590042092
20
57.99999916553501
30
0
11
84.71513593196846
21
57.99999916553501
31
0
0
LINE
5
1A6
330
C
100
AcDbEntity
8
ACCESSORIES
62
8
100
AcDbLine
10
84.71513593196846
20
57.99999916553501
30
0
11
79.46252913773037
21
57.99999916553501
31
0
0
LINE
5
1A7
330
C
100
AcDbEntity
8
ACCESSORIES
62
8
100
AcDbLine
10
79.46252913773037
20
57.99999916553501
30
0
11
73.99999999999977
21
57.99999916553501
31
0
0
LINE
5
1A8
330
C
100
AcDbEntity
8
ACCESSORIES
62
8
100
AcDbLine
10
73.99999999999977
20
57.99999916553501
30
0
11
68.53747086226917
21
57.99999916553501
31
0
0
LINE
5
1A9
330
C
100
AcDbEntity
8
ACCESSORIES
62
8
100
AcDbLine
10
68.53747086226917
20
57.99999916553501
30
0
11
63.284864068031084
21
57.99999916553501
31
0
0
LINE
5
1AA
330
C
100
AcDbEntity
8
ACCESSORIES
62
8
100
AcDbLine
10
63.284864068031084
20
57.99999916553501
30
0
11
58.44403409957863
21
57.99999916553501
31
0
0
LINE
5
1AB
330
C
100
AcDbEntity
8
ACCESSORIES
62
8
100
AcDbLine
10
58.44403409957863
20
57.99999916553501
30
0
11
54.201010406017076
21
57.99999916553501
31
0
0
LINE
5
1AC
330
C
100
AcDbEntity
8
ACCESSORIES
62
8
100
AcDbLine
10
54.201010406017076
20
57.99999916553501
30
0
11
50.71885043382622
21
57.99999916553501
31
0
0
LINE
5
1AD
330
C
100
AcDbEntity
8
ACCESSORIES
62
8
100
AcDbLine
10
50.71885043382622
20
57.99999916553501
30
0
11
48.13137257099129
21
57.99999916553501
31
0
0
LINE
5
1AE
330
C
100
AcDbEntity
8
ACCESSORIES
62
8
100
AcDbLine
10
48.13137257099129
20
57.99999916553501
30
0
11
46.53801226615883
21
57.99999916553501
31
0
0
LINE
5
1AF
330
C
100
AcDbEntity
8
ACCESSORIES
62
8
100
AcDbLine
10
46.53801226615883
20
57.99999916553501
30
0
11
48.13137257099129
21
57.99999916553501
31
0
0
LINE
5
1B0
330
C
100
AcDbEntity
8
ACCESSORIES
62
8
100
AcDbLine
10
48.13137257099129
20
57.99999916553501
30
0
11
50.71885043382622
21
57.99999916553501
31
0
0
LINE
5
1B1
330
C
100
AcDbEntity
8
ACCESSORIES
62
8
100
AcDbLine
10
50.71885043382622
20
57.99999916553501
30
0
11
54.201010406017076
21
57.99999916553501
31
0
0
LINE
5
1B2
330
C
100
AcDbEntity
8
ACCESSORIES
62
8
100
AcDbLine
10
54.201010406017076
20
57.99999916553501
30
0
11
58.44403409957863
21
57.99999916553501
31
0
0
LINE
5
1B3
330
C
100
AcDbEntity
8
ACCESSORIES
62
8
100
AcDbLine
10
58.44403409957863
20
57.99999916553501
30
0
11
63.284864068031084
21
57.99999916553501
31
0
0
LINE
5
1B4
330
C
100
AcDbEntity
8
ACCESSORIES
62
8
100
AcDbLine
10
63.284864068031084
20
57.99999916553501
30
0
11
68.53747086226917
21
57.99999916553501
31
0
0
LINE
5
1B5
330
C
100
AcDbEntity
8
ACCESSORIES
62
8
100
AcDbLine
10
68.53747086226917
20
57.99999916553501
30
0
11
73.99999999999977
21
57.99999916553501
31
0
0
LINE
5
1B6
330
C
100
AcDbEntity
8
ACCESSORIES
62
8
100
AcDbLine
10
79.46252913773037
20
8.344650637148732e-7
30
0
11
73.99999999999977
21
8.344650637148732e-7
31
0
0
LINE
5
1B7
330
C
100
AcDbEntity
8
ACCESSORIES
62
8
100
AcDbLine
10
84.71513593196846
20
8.344650637148732e-7
30
0
11
79.46252913773037
21
8.344650637148732e-7
31
0
0
LINE
5
1B8
330
C
100
AcDbEntity
8
ACCESSORIES
62
8
100
AcDbLine
10
89.55596590042092
20
8.344650637148732e-7
30
0
11
84.71513593196846
21
8.344650637148732e-7
31
0
0
LINE
5
1B9
330
C
100
AcDbEntity
8
ACCESSORIES
62
8
100
AcDbLine
10
93.79898959398247
20
8.344650637148732e-7
30
0
11
89.55596590042092
21
8.344650637148732e-7
31
0
0
LINE
5
1BA
330
C
100
AcDbEntity
8
ACCESSORIES
62
8
100
AcDbLine
10
97.28114956617333
20
8.344650637148732e-7
30
0
11
93.79898959398247
21
8.344650637148732e-7
31
0
0
LINE
5
1BB
330
C
100
AcDbEntity
8
ACCESSORIES
62
8
100
AcDbLine
10
99.86862742900826
20
8.344650637148732e-7
30
0
11
97.28114956617333
21
8.344650637148732e-7
31
0
0
LINE
5
1BC
330
C
100
AcDbEntity
8
ACCESSORIES
62
8
100
AcDbLine
10
101.46198773384072
20
8.344650637148732e-7
30
0
11
99.86862742900826
21
8.344650637148732e-7
31
0
0
LINE
5
1BD
330
C
100
AcDbEntity
8
ACCESSORIES
62
8
100
AcDbLine
10
99.86862742900826
20
8.344650637148732e-7
30
0
11
101.46198773384072
21
8.344650637148732e-7
31
0
0
LINE
5
1BE
330
C
100
AcDbEntity
8
ACCESSORIES
62
8
100
AcDbLine
10
97.28114956617333
20
8.344650637148732e-7
30
0
11
99.86862742900826
21
8.344650637148732e-7
31
0
0
LINE
5
1BF
330
C
100
AcDbEntity
8
ACCESSORIES
62
8
100
AcDbLine
10
93.79898959398247
20
8.344650637148732e-7
30
0
11
97.28114956617333
21
8.344650637148732e-7
31
0
0
LINE
5
1C0
330
C
100
AcDbEntity
8
ACCESSORIES
62
8
100
AcDbLine
10
89.55596590042092
20
8.344650637148732e-7
30
0
11
93.79898959398247
21
8.344650637148732e-7
31
0
0
LINE
5
1C1
330
C
100
AcDbEntity
8
ACCESSORIES
62
8
100
AcDbLine
10
84.71513593196846
20
8.344650637148732e-7
30
0
11
89.55596590042092
21
8.344650637148732e-7
31
0
0
LINE
5
1C2
330
C
100
AcDbEntity
8
ACCESSORIES
62
8
100
AcDbLine
10
79.46252913773037
20
8.344650637148732e-7
30
0
11
84.71513593196846
21
8.344650637148732e-7
31
0
0
LINE
5
1C3
330
C
100
AcDbEntity
8
ACCESSORIES
62
8
100
AcDbLine
10
73.99999999999977
20
8.344650637148732e-7
30
0
11
79.46252913773037
21
8.344650637148732e-7
31
0
0
LINE
5
1C4
330
C
100
AcDbEntity
8
ACCESSORIES
62
8
100
AcDbLine
10
68.53747086226917
20
8.344650637148732e-7
30
0
11
73.99999999999977
21
8.344650637148732e-7
31
0
0
LINE
5
1C5
330
C
100
AcDbEntity
8
ACCESSORIES
62
8
100
AcDbLine
10
63.284864068031084
20
8.344650637148732e-7
30
0
11
68.53747086226917
21
8.344650637148732e-7
31
0
0
LINE
5
1C6
330
C
100
AcDbEntity
8
ACCESSORIES
62
8
100
AcDbLine
10
58.44403409957863
20
8.344650637148732e-7
30
0
11
63.284864068031084
21
8.344650637148732e-7
31
0
0
LINE
5
1C7
330
C
100
AcDbEntity
8
ACCESSORIES
62
8
100
AcDbLine
10
54.201010406017076
20
8.344650637148732e-7
30
0
11
58.44403409957863
21
8.344650637148732e-7
31
0
0
LINE
5
1C8
330
C
100
AcDbEntity
8
ACCESSORIES
62
8
100
AcDbLine
10
50.71885043382622
20
8.344650637148732e-7
30
0
11
54.201010406017076
21
8.344650637148732e-7
31
0
0
LINE
5
1C9
330
C
100
AcDbEntity
8
ACCESSORIES
62
8
100
AcDbLine
10
48.13137257099129
20
8.344650637148732e-7
30
0
11
50.71885043382622
21
8.344650637148732e-7
31
0
0
LINE
5
1CA
330
C
100
AcDbEntity
8
ACCESSORIES
62
8
100
AcDbLine
10
46.53801226615883
20
8.344650637148732e-7
30
0
11
48.13137257099129
21
8.344650637148732e-7
31
0
0
LINE
5
1CB
330
C
100
AcDbEntity
8
ACCESSORIES
62
8
100
AcDbLine
10
48.13137257099129
20
8.344650637148732e-7
30
0
11
46.53801226615883
21
8.344650637148732e-7
31
0
0
LINE
5
1CC
330
C
100
AcDbEntity
8
ACCESSORIES
62
8
100
AcDbLine
10
50.71885043382622
20
8.344650637148732e-7
30
0
11
48.13137257099129
21
8.344650637148732e-7
31
0
0
LINE
5
1CD
330
C
100
AcDbEntity
8
ACCESSORIES
62
8
100
AcDbLine
10
54.201010406017076
20
8.344650637148732e-7
30
0
11
50.71885043382622
21
8.344650637148732e-7
31
0
0
LINE
5
1CE
330
C
100
AcDbEntity
8
ACCESSORIES
62
8
100
AcDbLine
10
58.44403409957863
20
8.344650637148732e-7
30
0
11
54.201010406017076
21
8.344650637148732e-7
31
0
0
LINE
5
1CF
330
C
100
AcDbEntity
8
ACCESSORIES
62
8
100
AcDbLine
10
63.284864068031084
20
8.344650637148732e-7
30
0
11
58.44403409957863
21
8.344650637148732e-7
31
0
0
LINE
5
1D0
330
C
100
AcDbEntity
8
ACCESSORIES
62
8
100
AcDbLine
10
68.53747086226917
20
8.344650637148732e-7
30
0
11
63.284864068031084
21
8.344650637148732e-7
31
0
0
LINE
5
1D1
330
C
100
AcDbEntity
8
ACCESSORIES
62
8
100
AcDbLine
10
73.99999999999977
20
8.344650637148732e-7
30
0
11
68.53747086226917
21
8.344650637148732e-7
31
0
0
LINE
5
1D2
330
C
100
AcDbEntity
8
ACCESSORIES
62
8
100
AcDbLine
10
564.0000007152557
20
65.00000001490119
30
0
11
564.0000007152557
21
57.999999985098874
31
0
0
LINE
5
1D3
330
C
100
AcDbEntity
8
ACCESSORIES
62
8
100
AcDbLine
10
627.9999992847443
20
65.00000001490119
30
0
11
564.0000007152557
21
65.00000001490119
31
0
0
LINE
5
1D4
330
C
100
AcDbEntity
8
ACCESSORIES
62
8
100
AcDbLine
10
564.0000007152557
20
57.999999985098874
30
0
11
627.9999992847443
21
57.999999985098874
31
0
0
LINE
5
1D5
330
C
100
AcDbEntity
8
ACCESSORIES
62
8
100
AcDbLine
10
627.9999992847443
20
57.999999985098874
30
0
11
627.9999992847443
21
65.00000001490119
31
0
0
LINE
5
1D6
330
C
100
AcDbEntity
8
ACCESSORIES
62
8
100
AcDbLine
10
627.9999992847443
20
65.00000001490119
30
0
11
627.9999992847443
21
57.999999985098874
31
0
0
LINE
5
1D7
330
C
100
AcDbEntity
8
ACCESSORIES
62
8
100
AcDbLine
10
564.0000007152557
20
65.00000001490119
30
0
11
627.9999992847443
21
65.00000001490119
31
0
0
LINE
5
1D8
330
C
100
AcDbEntity
8
ACCESSORIES
62
8
100
AcDbLine
10
627.9999992847443
20
57.999999985098874
30
0
11
564.0000007152557
21
57.999999985098874
31
0
0
LINE
5
1D9
330
C
100
AcDbEntity
8
ACCESSORIES
62
8
100
AcDbLine
10
564.0000007152557
20
57.999999985098874
30
0
11
564.0000007152557
21
65.00000001490119
31
0
0
LINE
5
1DA
330
C
100
AcDbEntity
8
ACCESSORIES
62
8
100
AcDbLine
10
601.4625291377306
20
57.99999916553501
30
0
11
601.4625291377306
21
8.344650637148732e-7
31
0
0
LINE
5
1DB
330
C
100
AcDbEntity
8
ACCESSORIES
62
8
100
AcDbLine
10
606.7151359319687
20
57.99999916553501
30
0
11
606.7151359319687
21
8.344650637148732e-7
31
0
0
LINE
5
1DC
330
C
100
AcDbEntity
8
ACCESSORIES
62
8
100
AcDbLine
10
611.5559659004211
20
57.99999916553501
30
0
11
611.5559659004211
21
8.344650637148732e-7
31
0
0
LINE
5
1DD
330
C
100
AcDbEntity
8
ACCESSORIES
62
8
100
AcDbLine
10
615.7989895939827
20
57.99999916553501
30
0
11
615.7989895939827
21
8.344650637148732e-7
31
0
0
LINE
5
1DE
330
C
100
AcDbEntity
8
ACCESSORIES
62
8
100
AcDbLine
10
619.2811495661736
20
57.99999916553501
30
0
11
619.2811495661736
21
8.344650637148732e-7
31
0
0
LINE
5
1DF
330
C
100
AcDbEntity
8
ACCESSORIES
62
8
100
AcDbLine
10
621.8686274290085
20
57.99999916553501
30
0
11
621.8686274290085
21
8.344650637148732e-7
31
0
0
LINE
5
1E0
330
C
100
AcDbEntity
8
ACCESSORIES
62
8
100
AcDbLine
10
623.4619877338409
20
57.99999916553501
30
0
11
623.4619877338409
21
8.344650637148732e-7
31
0
0
LINE
5
1E1
330
C
100
AcDbEntity
8
ACCESSORIES
62
8
100
AcDbLine
10
624.0000001192093
20
57.99999916553501
30
0
11
624.0000001192093
21
8.344650637148732e-7
31
0
0
LINE
5
1E2
330
C
100
AcDbEntity
8
ACCESSORIES
62
8
100
AcDbLine
10
623.4619877338409
20
57.99999916553501
30
0
11
623.4619877338409
21
8.344650637148732e-7
31
0
0
LINE
5
1E3
330
C
100
AcDbEntity
8
ACCESSORIES
62
8
100
AcDbLine
10
621.8686274290085
20
57.99999916553501
30
0
11
621.8686274290085
21
8.344650637148732e-7
31
0
0
LINE
5
1E4
330
C
100
AcDbEntity
8
ACCESSORIES
62
8
100
AcDbLine
10
619.2811495661736
20
57.99999916553501
30
0
11
619.2811495661736
21
8.344650637148732e-7
31
0
0
LINE
5
1E5
330
C
100
AcDbEntity
8
ACCESSORIES
62
8
100
AcDbLine
10
615.7989895939827
20
57.99999916553501
30
0
11
615.7989895939827
21
8.344650637148732e-7
31
0
0
LINE
5
1E6
330
C
100
AcDbEntity
8
ACCESSORIES
62
8
100
AcDbLine
10
611.5559659004211
20
57.99999916553501
30
0
11
611.5559659004211
21
8.344650637148732e-7
31
0
0
LINE
5
1E7
330
C
100
AcDbEntity
8
ACCESSORIES
62
8
100
AcDbLine
10
606.7151359319687
20
57.99999916553501
30
0
11
606.7151359319687
21
8.344650637148732e-7
31
0
0
LINE
5
1E8
330
C
100
AcDbEntity
8
ACCESSORIES
62
8
100
AcDbLine
10
601.4625291377306
20
57.99999916553501
30
0
11
601.4625291377306
21
8.344650637148732e-7
31
0
0
LINE
5
1E9
330
C
100
AcDbEntity
8
ACCESSORIES
62
8
100
AcDbLine
10
596
20
57.99999916553501
30
0
11
596
21
8.344650637148732e-7
31
0
0
LINE
5
1EA
330
C
100
AcDbEntity
8
ACCESSORIES
62
8
100
AcDbLine
10
590.5374708622694
20
57.99999916553501
30
0
11
590.5374708622694
21
8.344650637148732e-7
31
0
0
LINE
5
1EB
330
C
100
AcDbEntity
8
ACCESSORIES
62
8
100
AcDbLine
10
585.2848640680313
20
57.99999916553501
30
0
11
585.2848640680313
21
8.344650637148732e-7
31
0
0
LINE
5
1EC
330
C
100
AcDbEntity
8
ACCESSORIES
62
8
100
AcDbLine
10
580.4440340995789
20
57.99999916553501
30
0
11
580.4440340995789
21
8.344650637148732e-7
31
0
0
LINE
5
1ED
330
C
100
AcDbEntity
8
ACCESSORIES
62
8
100
AcDbLine
10
576.2010104060173
20
57.99999916553501
30
0
11
576.2010104060173
21
8.344650637148732e-7
31
0
0
LINE
5
1EE
330
C
100
AcDbEntity
8
ACCESSORIES
62
8
100
AcDbLine
10
572.7188504338264
20
57.99999916553501
30
0
11
572.7188504338264
21
8.344650637148732e-7
31
0
0
LINE
5
1EF
330
C
100
AcDbEntity
8
ACCESSORIES
62
8
100
AcDbLine
10
570.1313725709915
20
57.99999916553501
30
0
11
570.1313725709915
21
8.344650637148732e-7
31
0
0
LINE
5
1F0
330
C
100
AcDbEntity
8
ACCESSORIES
62
8
100
AcDbLine
10
568.5380122661591
20
57.99999916553501
30
0
11
568.5380122661591
21
8.344650637148732e-7
31
0
0
LINE
5
1F1
330
C
100
AcDbEntity
8
ACCESSORIES
62
8
100
AcDbLine
10
567.9999998807907
20
57.99999916553501
30
0
11
567.9999998807907
21
8.344650637148732e-7
31
0
0
LINE
5
1F2
330
C
100
AcDbEntity
8
ACCESSORIES
62
8
100
AcDbLine
10
568.5380122661591
20
57.99999916553501
30
0
11
568.5380122661591
21
8.344650637148732e-7
31
0
0
LINE
5
1F3
330
C
100
AcDbEntity
8
ACCESSORIES
62
8
100
AcDbLine
10
570.1313725709915
20
57.99999916553501
30
0
11
570.1313725709915
21
8.344650637148732e-7
31
0
0
LINE
5
1F4
330
C
100
AcDbEntity
8
ACCESSORIES
62
8
100
AcDbLine
10
572.7188504338264
20
57.99999916553501
30
0
11
572.7188504338264
21
8.344650637148732e-7
31
0
0
LINE
5
1F5
330
C
100
AcDbEntity
8
ACCESSORIES
62
8
100
AcDbLine
10
576.2010104060173
20
57.99999916553501
30
0
11
576.2010104060173
21
8.344650637148732e-7
31
0
0
LINE
5
1F6
330
C
100
AcDbEntity
8
ACCESSORIES
62
8
100
AcDbLine
10
580.4440340995789
20
57.99999916553501
30
0
11
580.4440340995789
21
8.344650637148732e-7
31
0
0
LINE
5
1F7
330
C
100
AcDbEntity
8
ACCESSORIES
62
8
100
AcDbLine
10
585.2848640680313
20
57.99999916553501
30
0
11
585.2848640680313
21
8.344650637148732e-7
31
0
0
LINE
5
1F8
330
C
100
AcDbEntity
8
ACCESSORIES
62
8
100
AcDbLine
10
590.5374708622694
20
57.99999916553501
30
0
11
590.5374708622694
21
8.344650637148732e-7
31
0
0
LINE
5
1F9
330
C
100
AcDbEntity
8
ACCESSORIES
62
8
100
AcDbLine
10
596
20
8.344650637148732e-7
30
0
11
596
21
57.99999916553501
31
0
0
LINE
5
1FA
330
C
100
AcDbEntity
8
ACCESSORIES
62
8
100
AcDbLine
10
596
20
57.99999916553501
30
0
11
601.4625291377306
21
57.99999916553501
31
0
0
LINE
5
1FB
330
C
100
AcDbEntity
8
ACCESSORIES
62
8
100
AcDbLine
10
601.4625291377306
20
57.99999916553501
30
0
11
606.7151359319687
21
57.99999916553501
31
0
0
LINE
5
1FC
330
C
100
AcDbEntity
8
ACCESSORIES
62
8
100
AcDbLine
10
606.7151359319687
20
57.99999916553501
30
0
11
611.5559659004211
21
57.99999916553501
31
0
0
LINE
5
1FD
330
C
100
AcDbEntity
8
ACCESSORIES
62
8
100
AcDbLine
10
611.5559659004211
20
57.99999916553501
30
0
11
615.7989895939827
21
57.99999916553501
31
0
0
LINE
5
1FE
330
C
100
AcDbEntity
8
ACCESSORIES
62
8
100
AcDbLine
10
615.7989895939827
20
57.99999916553501
30
0
11
619.2811495661736
21
57.99999916553501
31
0
0
LINE
5
1FF
330
C
100
AcDbEntity
8
ACCESSORIES
62
8
100
AcDbLine
10
619.2811495661736
20
57.99999916553501
30
0
11
621.8686274290085
21
57.99999916553501
31
0
0
LINE
5
200
330
C
100
AcDbEntity
8
ACCESSORIES
62
8
100
AcDbLine
10
621.8686274290085
20
57.99999916553501
30
0
11
623.4619877338409
21
57.99999916553501
31
0
0
LINE
5
201
330
C
100
AcDbEntity
8
ACCESSORIES
62
8
100
AcDbLine
10
623.4619877338409
20
57.99999916553501
30
0
11
621.8686274290085
21
57.99999916553501
31
0
0
LINE
5
202
330
C
100
AcDbEntity
8
ACCESSORIES
62
8
100
AcDbLine
10
621.8686274290085
20
57.99999916553501
30
0
11
619.2811495661736
21
57.99999916553501
31
0
0
LINE
5
203
330
C
100
AcDbEntity
8
ACCESSORIES
62
8
100
AcDbLine
10
619.2811495661736
20
57.99999916553501
30
0
11
615.7989895939827
21
57.99999916553501
31
0
0
LINE
5
204
330
C
100
AcDbEntity
8
ACCESSORIES
62
8
100
AcDbLine
10
615.7989895939827
20
57.99999916553501
30
0
11
611.5559659004211
21
57.99999916553501
31
0
0
LINE
5
205
330
C
100
AcDbEntity
8
ACCESSORIES
62
8
100
AcDbLine
10
611.5559659004211
20
57.99999916553501
30
0
11
606.7151359319687
21
57.99999916553501
31
0
0
LINE
5
206
330
C
100
AcDbEntity
8
ACCESSORIES
62
8
100
AcDbLine
10
606.7151359319687
20
57.99999916553501
30
0
11
601.4625291377306
21
57.99999916553501
31
0
0
LINE
5
207
330
C
100
AcDbEntity
8
ACCESSORIES
62
8
100
AcDbLine
10
601.4625291377306
20
57.99999916553501
30
0
11
596
21
57.99999916553501
31
0
0
LINE
5
208
330
C
100
AcDbEntity
8
ACCESSORIES
62
8
100
AcDbLine
10
596
20
57.99999916553501
30
0
11
590.5374708622694
21
57.99999916553501
31
0
0
LINE
5
209
330
C
100
AcDbEntity
8
ACCESSORIES
62
8
100
AcDbLine
10
590.5374708622694
20
57.99999916553501
30
0
11
585.2848640680313
21
57.99999916553501
31
0
0
LINE
5
20A
330
C
100
AcDbEntity
8
ACCESSORIES
62
8
100
AcDbLine
10
585.2848640680313
20
57.99999916553501
30
0
11
580.4440340995789
21
57.99999916553501
31
0
0
LINE
5
20B
330
C
100
AcDbEntity
8
ACCESSORIES
62
8
100
AcDbLine
10
580.4440340995789
20
57.99999916553501
30
0
11
576.2010104060173
21
57.99999916553501
31
0
0
LINE
5
20C
330
C
100
AcDbEntity
8
ACCESSORIES
62
8
100
AcDbLine
10
576.2010104060173
20
57.99999916553501
30
0
11
572.7188504338264
21
57.99999916553501
31
0
0
LINE
5
20D
330
C
100
AcDbEntity
8
ACCESSORIES
62
8
100
AcDbLine
10
572.7188504338264
20
57.99999916553501
30
0
11
570.1313725709915
21
57.99999916553501
31
0
0
LINE
5
20E
330
C
100
AcDbEntity
8
ACCESSORIES
62
8
100
AcDbLine
10
570.1313725709915
20
57.99999916553501
30
0
11
568.5380122661591
21
57.99999916553501
31
0
0
LINE
5
20F
330
C
100
AcDbEntity
8
ACCESSORIES
62
8
100
AcDbLine
10
568.5380122661591
20
57.99999916553501
30
0
11
570.1313725709915
21
57.99999916553501
31
0
0
LINE
5
210
330
C
100
AcDbEntity
8
ACCESSORIES
62
8
100
AcDbLine
10
570.1313725709915
20
57.99999916553501
30
0
11
572.7188504338264
21
57.99999916553501
31
0
0
LINE
5
211
330
C
100
AcDbEntity
8
ACCESSORIES
62
8
100
AcDbLine
10
572.7188504338264
20
57.99999916553501
30
0
11
576.2010104060173
21
57.99999916553501
31
0
0
LINE
5
212
330
C
100
AcDbEntity
8
ACCESSORIES
62
8
100
AcDbLine
10
576.2010104060173
20
57.99999916553501
30
0
11
580.4440340995789
21
57.99999916553501
31
0
0
LINE
5
213
330
C
100
AcDbEntity
8
ACCESSORIES
62
8
100
AcDbLine
10
580.4440340995789
20
57.99999916553501
30
0
11
585.2848640680313
21
57.99999916553501
31
0
0
LINE
5
214
330
C
100
AcDbEntity
8
ACCESSORIES
62
8
100
AcDbLine
10
585.2848640680313
20
57.99999916553501
30
0
11
590.5374708622694
21
57.99999916553501
31
0
0
LINE
5
215
330
C
100
AcDbEntity
8
ACCESSORIES
62
8
100
AcDbLine
10
590.5374708622694
20
57.99999916553501
30
0
11
596
21
57.99999916553501
31
0
0
LINE
5
216
330
C
100
AcDbEntity
8
ACCESSORIES
62
8
100
AcDbLine
10
601.4625291377306
20
8.344650637148732e-7
30
0
11
596
21
8.344650637148732e-7
31
0
0
LINE
5
217
330
C
100
AcDbEntity
8
ACCESSORIES
62
8
100
AcDbLine
10
606.7151359319687
20
8.344650637148732e-7
30
0
11
601.4625291377306
21
8.344650637148732e-7
31
0
0
LINE
5
218
330
C
100
AcDbEntity
8
ACCESSORIES
62
8
100
AcDbLine
10
611.5559659004211
20
8.344650637148732e-7
30
0
11
606.7151359319687
21
8.344650637148732e-7
31
0
0
LINE
5
219
330
C
100
AcDbEntity
8
ACCESSORIES
62
8
100
AcDbLine
10
615.7989895939827
20
8.344650637148732e-7
30
0
11
611.5559659004211
21
8.344650637148732e-7
31
0
0
LINE
5
21A
330
C
100
AcDbEntity
8
ACCESSORIES
62
8
100
AcDbLine
10
619.2811495661736
20
8.344650637148732e-7
30
0
11
615.7989895939827
21
8.344650637148732e-7
31
0
0
LINE
5
21B
330
C
100
AcDbEntity
8
ACCESSORIES
62
8
100
AcDbLine
10
621.8686274290085
20
8.344650637148732e-7
30
0
11
619.2811495661736
21
8.344650637148732e-7
31
0
0
LINE
5
21C
330
C
100
AcDbEntity
8
ACCESSORIES
62
8
100
AcDbLine
10
623.4619877338409
20
8.344650637148732e-7
30
0
11
621.8686274290085
21
8.344650637148732e-7
31
0
0
LINE
5
21D
330
C
100
AcDbEntity
8
ACCESSORIES
62
8
100
AcDbLine
10
621.8686274290085
20
8.344650637148732e-7
30
0
11
623.4619877338409
21
8.344650637148732e-7
31
0
0
LINE
5
21E
330
C
100
AcDbEntity
8
ACCESSORIES
62
8
100
AcDbLine
10
619.2811495661736
20
8.344650637148732e-7
30
0
11
621.8686274290085
21
8.344650637148732e-7
31
0
0
LINE
5
21F
330
C
100
AcDbEntity
8
ACCESSORIES
62
8
100
AcDbLine
10
615.7989895939827
20
8.344650637148732e-7
30
0
11
619.2811495661736
21
8.344650637148732e-7
31
0
0
LINE
5
220
330
C
100
AcDbEntity
8
ACCESSORIES
62
8
100
AcDbLine
10
611.5559659004211
20
8.344650637148732e-7
30
0
11
615.7989895939827
21
8.344650637148732e-7
31
0
0
LINE
5
221
330
C
100
AcDbEntity
8
ACCESSORIES
62
8
100
AcDbLine
10
606.7151359319687
20
8.344650637148732e-7
30
0
11
611.5559659004211
21
8.344650637148732e-7
31
0
0
LINE
5
222
330
C
100
AcDbEntity
8
ACCESSORIES
62
8
100
AcDbLine
10
601.4625291377306
20
8.344650637148732e-7
30
0
11
606.7151359319687
21
8.344650637148732e-7
31
0
0
LINE
5
223
330
C
100
AcDbEntity
8
ACCESSORIES
62
8
100
AcDbLine
10
596
20
8.344650637148732e-7
30
0
11
601.4625291377306
21
8.344650637148732e-7
31
0
0
LINE
5
224
330
C
100
AcDbEntity
8
ACCESSORIES
62
8
100
AcDbLine
10
590.5374708622694
20
8.344650637148732e-7
30
0
11
596
21
8.344650637148732e-7
31
0
0
LINE
5
225
330
C
100
AcDbEntity
8
ACCESSORIES
62
8
100
AcDbLine
10
585.2848640680313
20
8.344650637148732e-7
30
0
11
590.5374708622694
21
8.344650637148732e-7
31
0
0
LINE
5
226
330
C
100
AcDbEntity
8
ACCESSORIES
62
8
100
AcDbLine
10
580.4440340995789
20
8.344650637148732e-7
30
0
11
585.2848640680313
21
8.344650637148732e-7
31
0
0
LINE
5
227
330
C
100
AcDbEntity
8
ACCESSORIES
62
8
100
AcDbLine
10
576.2010104060173
20
8.344650637148732e-7
30
0
11
580.4440340995789
21
8.344650637148732e-7
31
0
0
LINE
5
228
330
C
100
AcDbEntity
8
ACCESSORIES
62
8
100
AcDbLine
10
572.7188504338264
20
8.344650637148732e-7
30
0
11
576.2010104060173
21
8.344650637148732e-7
31
0
0
LINE
5
229
330
C
100
AcDbEntity
8
ACCESSORIES
62
8
100
AcDbLine
10
570.1313725709915
20
8.344650637148732e-7
30
0
11
572.7188504338264
21
8.344650637148732e-7
31
0
0
LINE
5
22A
330
C
100
AcDbEntity
8
ACCESSORIES
62
8
100
AcDbLine
10
568.5380122661591
20
8.344650637148732e-7
30
0
11
570.1313725709915
21
8.344650637148732e-7
31
0
0
LINE
5
22B
330
C
100
AcDbEntity
8
ACCESSORIES
62
8
100
AcDbLine
10
570.1313725709915
20
8.344650637148732e-7
30
0
11
568.5380122661591
21
8.344650637148732e-7
31
0
0
LINE
5
22C
330
C
100
AcDbEntity
8
ACCESSORIES
62
8
100
AcDbLine
10
572.7188504338264
20
8.344650637148732e-7
30
0
11
570.1313725709915
21
8.344650637148732e-7
31
0
0
LINE
5
22D
330
C
100
AcDbEntity
8
ACCESSORIES
62
8
100
AcDbLine
10
576.2010104060173
20
8.344650637148732e-7
30
0
11
572.7188504338264
21
8.344650637148732e-7
31
0
0
LINE
5
22E
330
C
100
AcDbEntity
8
ACCESSORIES
62
8
100
AcDbLine
10
580.4440340995789
20
8.344650637148732e-7
30
0
11
576.2010104060173
21
8.344650637148732e-7
31
0
0
LINE
5
22F
330
C
100
AcDbEntity
8
ACCESSORIES
62
8
100
AcDbLine
10
585.2848640680313
20
8.344650637148732e-7
30
0
11
580.4440340995789
21
8.344650637148732e-7
31
0
0
LINE
5
230
330
C
100
AcDbEntity
8
ACCESSORIES
62
8
100
AcDbLine
10
590.5374708622694
20
8.344650637148732e-7
30
0
11
585.2848640680313
21
8.344650637148732e-7
31
0
0
LINE
5
231
330
C
100
AcDbEntity
8
ACCESSORIES
62
8
100
AcDbLine
10
596
20
8.344650637148732e-7
30
0
11
590.5374708622694
21
8.344650637148732e-7
31
0
0
LINE
5
232
330
C
100
AcDbEntity
8
ACCESSORIES
62
8
100
AcDbLine
10
42.00000071525551
20
65.00000001490119
30
0
11
42.00000071525551
21
57.999999985098874
31
0
0
LINE
5
233
330
C
100
AcDbEntity
8
ACCESSORIES
62
8
100
AcDbLine
10
105.99999928474404
20
65.00000001490119
30
0
11
42.00000071525551
21
65.00000001490119
31
0
0
LINE
5
234
330
C
100
AcDbEntity
8
ACCESSORIES
62
8
100
AcDbLine
10
42.00000071525551
20
57.999999985098874
30
0
11
105.99999928474404
21
57.999999985098874
31
0
0
LINE
5
235
330
C
100
AcDbEntity
8
ACCESSORIES
62
8
100
AcDbLine
10
105.99999928474404
20
57.999999985098874
30
0
11
105.99999928474404
21
65.00000001490119
31
0
0
LINE
5
236
330
C
100
AcDbEntity
8
ACCESSORIES
62
8
100
AcDbLine
10
105.99999928474404
20
65.00000001490119
30
0
11
105.99999928474404
21
57.999999985098874
31
0
0
LINE
5
237
330
C
100
AcDbEntity
8
ACCESSORIES
62
8
100
AcDbLine
10
42.00000071525551
20
65.00000001490119
30
0
11
105.99999928474404
21
65.00000001490119
31
0
0
LINE
5
238
330
C
100
AcDbEntity
8
ACCESSORIES
62
8
100
AcDbLine
10
105.99999928474404
20
57.999999985098874
30
0
11
42.00000071525551
21
57.999999985098874
31
0
0
LINE
5
239
330
C
100
AcDbEntity
8
ACCESSORIES
62
8
100
AcDbLine
10
42.00000071525551
20
57.999999985098874
30
0
11
42.00000071525551
21
65.00000001490119
31
0
0
LINE
5
23A
330
C
100
AcDbEntity
8
ACCESSORIES
62
8
100
AcDbLine
10
79.46252913773037
20
57.99999916553501
30
0
11
79.46252913773037
21
8.344650637148732e-7
31
0
0
LINE
5
23B
330
C
100
AcDbEntity
8
ACCESSORIES
62
8
100
AcDbLine
10
84.71513593196846
20
57.99999916553501
30
0
11
84.71513593196846
21
8.344650637148732e-7
31
0
0
LINE
5
23C
330
C
100
AcDbEntity
8
ACCESSORIES
62
8
100
AcDbLine
10
89.55596590042092
20
57.99999916553501
30
0
11
89.55596590042092
21
8.344650637148732e-7
31
0
0
LINE
5
23D
330
C
100
AcDbEntity
8
ACCESSORIES
62
8
100
AcDbLine
10
93.79898959398247
20
57.99999916553501
30
0
11
93.79898959398247
21
8.344650637148732e-7
31
0
0
LINE
5
23E
330
C
100
AcDbEntity
8
ACCESSORIES
62
8
100
AcDbLine
10
97.28114956617333
20
57.99999916553501
30
0
11
97.28114956617333
21
8.344650637148732e-7
31
0
0
LINE
5
23F
330
C
100
AcDbEntity
8
ACCESSORIES
62
8
100
AcDbLine
10
99.86862742900826
20
57.99999916553501
30
0
11
99.86862742900826
21
8.344650637148732e-7
31
0
0
LINE
5
240
330
C
100
AcDbEntity
8
ACCESSORIES
62
8
100
AcDbLine
10
101.46198773384072
20
57.99999916553501
30
0
11
101.46198773384072
21
8.344650637148732e-7
31
0
0
LINE
5
241
330
C
100
AcDbEntity
8
ACCESSORIES
62
8
100
AcDbLine
10
102.00000011920906
20
57.99999916553501
30
0
11
102.00000011920906
21
8.344650637148732e-7
31
0
0
LINE
5
242
330
C
100
AcDbEntity
8
ACCESSORIES
62
8
100
AcDbLine
10
101.46198773384072
20
57.99999916553501
30
0
11
101.46198773384072
21
8.344650637148732e-7
31
0
0
LINE
5
243
330
C
100
AcDbEntity
8
ACCESSORIES
62
8
100
AcDbLine
10
99.86862742900826
20
57.99999916553501
30
0
11
99.86862742900826
21
8.344650637148732e-7
31
0
0
LINE
5
244
330
C
100
AcDbEntity
8
ACCESSORIES
62
8
100
AcDbLine
10
97.28114956617333
20
57.99999916553501
30
0
11
97.28114956617333
21
8.344650637148732e-7
31
0
0
LINE
5
245
330
C
100
AcDbEntity
8
ACCESSORIES
62
8
100
AcDbLine
10
93.79898959398247
20
57.99999916553501
30
0
11
93.79898959398247
21
8.344650637148732e-7
31
0
0
LINE
5
246
330
C
100
AcDbEntity
8
ACCESSORIES
62
8
100
AcDbLine
10
89.55596590042092
20
57.99999916553501
30
0
11
89.55596590042092
21
8.344650637148732e-7
31
0
0
LINE
5
247
330
C
100
AcDbEntity
8
ACCESSORIES
62
8
100
AcDbLine
10
84.71513593196846
20
57.99999916553501
30
0
11
84.71513593196846
21
8.344650637148732e-7
31
0
0
LINE
5
248
330
C
100
AcDbEntity
8
ACCESSORIES
62
8
100
AcDbLine
10
79.46252913773037
20
57.99999916553501
30
0
11
79.46252913773037
21
8.344650637148732e-7
31
0
0
LINE
5
249
330
C
100
AcDbEntity
8
ACCESSORIES
62
8
100
AcDbLine
10
73.99999999999977
20
57.99999916553501
30
0
11
73.99999999999977
21
8.344650637148732e-7
31
0
0
LINE
5
24A
330
C
100
AcDbEntity
8
ACCESSORIES
62
8
100
AcDbLine
10
68.53747086226917
20
57.99999916553501
30
0
11
68.53747086226917
21
8.344650637148732e-7
31
0
0
LINE
5
24B
330
C
100
AcDbEntity
8
ACCESSORIES
62
8
100
AcDbLine
10
63.284864068031084
20
57.99999916553501
30
0
11
63.284864068031084
21
8.344650637148732e-7
31
0
0
LINE
5
24C
330
C
100
AcDbEntity
8
ACCESSORIES
62
8
100
AcDbLine
10
58.44403409957863
20
57.99999916553501
30
0
11
58.44403409957863
21
8.344650637148732e-7
31
0
0
LINE
5
24D
330
C
100
AcDbEntity
8
ACCESSORIES
62
8
100
AcDbLine
10
54.201010406017076
20
57.99999916553501
30
0
11
54.201010406017076
21
8.344650637148732e-7
31
0
0
LINE
5
24E
330
C
100
AcDbEntity
8
ACCESSORIES
62
8
100
AcDbLine
10
50.71885043382622
20
57.99999916553501
30
0
11
50.71885043382622
21
8.344650637148732e-7
31
0
0
LINE
5
24F
330
C
100
AcDbEntity
8
ACCESSORIES
62
8
100
AcDbLine
10
48.13137257099129
20
57.99999916553501
30
0
11
48.13137257099129
21
8.344650637148732e-7
31
0
0
LINE
5
250
330
C
100
AcDbEntity
8
ACCESSORIES
62
8
100
AcDbLine
10
46.53801226615883
20
57.99999916553501
30
0
11
46.53801226615883
21
8.344650637148732e-7
31
0
0
LINE
5
251
330
C
100
AcDbEntity
8
ACCESSORIES
62
8
100
AcDbLine
10
45.99999988079048
20
57.99999916553501
30
0
11
45.99999988079048
21
8.344650637148732e-7
31
0
0
LINE
5
252
330
C
100
AcDbEntity
8
ACCESSORIES
62
8
100
AcDbLine
10
46.53801226615883
20
57.99999916553501
30
0
11
46.53801226615883
21
8.344650637148732e-7
31
0
0
LINE
5
253
330
C
100
AcDbEntity
8
ACCESSORIES
62
8
100
AcDbLine
10
48.13137257099129
20
57.99999916553501
30
0
11
48.13137257099129
21
8.344650637148732e-7
31
0
0
LINE
5
254
330
C
100
AcDbEntity
8
ACCESSORIES
62
8
100
AcDbLine
10
50.71885043382622
20
57.99999916553501
30
0
11
50.71885043382622
21
8.344650637148732e-7
31
0
0
LINE
5
255
330
C
100
AcDbEntity
8
ACCESSORIES
62
8
100
AcDbLine
10
54.201010406017076
20
57.99999916553501
30
0
11
54.201010406017076
21
8.344650637148732e-7
31
0
0
LINE
5
256
330
C
100
AcDbEntity
8
ACCESSORIES
62
8
100
AcDbLine
10
58.44403409957863
20
57.99999916553501
30
0
11
58.44403409957863
21
8.344650637148732e-7
31
0
0
LINE
5
257
330
C
100
AcDbEntity
8
ACCESSORIES
62
8
100
AcDbLine
10
63.284864068031084
20
57.99999916553501
30
0
11
63.284864068031084
21
8.344650637148732e-7
31
0
0
LINE
5
258
330
C
100
AcDbEntity
8
ACCESSORIES
62
8
100
AcDbLine
10
68.53747086226917
20
57.99999916553501
30
0
11
68.53747086226917
21
8.344650637148732e-7
31
0
0
LINE
5
259
330
C
100
AcDbEntity
8
ACCESSORIES
62
8
100
AcDbLine
10
73.99999999999977
20
8.344650637148732e-7
30
0
11
73.99999999999977
21
57.99999916553501
31
0
0
LINE
5
25A
330
C
100
AcDbEntity
8
ACCESSORIES
62
8
100
AcDbLine
10
73.99999999999977
20
57.99999916553501
30
0
11
79.46252913773037
21
57.99999916553501
31
0
0
LINE
5
25B
330
C
100
AcDbEntity
8
ACCESSORIES
62
8
100
AcDbLine
10
79.46252913773037
20
57.99999916553501
30
0
11
84.71513593196846
21
57.99999916553501
31
0
0
LINE
5
25C
330
C
100
AcDbEntity
8
ACCESSORIES
62
8
100
AcDbLine
10
84.71513593196846
20
57.99999916553501
30
0
11
89.55596590042092
21
57.99999916553501
31
0
0
LINE
5
25D
330
C
100
AcDbEntity
8
ACCESSORIES
62
8
100
AcDbLine
10
89.55596590042092
20
57.99999916553501
30
0
11
93.79898959398247
21
57.99999916553501
31
0
0
LINE
5
25E
330
C
100
AcDbEntity
8
ACCESSORIES
62
8
100
AcDbLine
10
93.79898959398247
20
57.99999916553501
30
0
11
97.28114956617333
21
57.99999916553501
31
0
0
LINE
5
25F
330
C
100
AcDbEntity
8
ACCESSORIES
62
8
100
AcDbLine
10
97.28114956617333
20
57.99999916553501
30
0
11
99.86862742900826
21
57.99999916553501
31
0
0
LINE
5
260
330
C
100
AcDbEntity
8
ACCESSORIES
62
8
100
AcDbLine
10
99.86862742900826
20
57.99999916553501
30
0
11
101.46198773384072
21
57.99999916553501
31
0
0
LINE
5
261
330
C
100
AcDbEntity
8
ACCESSORIES
62
8
100
AcDbLine
10
101.46198773384072
20
57.99999916553501
30
0
11
99.86862742900826
21
57.99999916553501
31
0
0
LINE
5
262
330
C
100
AcDbEntity
8
ACCESSORIES
62
8
100
AcDbLine
10
99.86862742900826
20
57.99999916553501
30
0
11
97.28114956617333
21
57.99999916553501
31
0
0
LINE
5
263
330
C
100
AcDbEntity
8
ACCESSORIES
62
8
100
AcDbLine
10
97.28114956617333
20
57.99999916553501
30
0
11
93.79898959398247
21
57.99999916553501
31
0
0
LINE
5
264
330
C
100
AcDbEntity
8
ACCESSORIES
62
8
100
AcDbLine
10
93.79898959398247
20
57.99999916553501
30
0
11
89.55596590042092
21
57.99999916553501
31
0
0
LINE
5
265
330
C
100
AcDbEntity
8
ACCESSORIES
62
8
100
AcDbLine
10
89.55596590042092
20
57.99999916553501
30
0
11
84.71513593196846
21
57.99999916553501
31
0
0
LINE
5
266
330
C
100
AcDbEntity
8
ACCESSORIES
62
8
100
AcDbLine
10
84.71513593196846
20
57.99999916553501
30
0
11
79.46252913773037
21
57.99999916553501
31
0
0
LINE
5
267
330
C
100
AcDbEntity
8
ACCESSORIES
62
8
100
AcDbLine
10
79.46252913773037
20
57.99999916553501
30
0
11
73.99999999999977
21
57.99999916553501
31
0
0
LINE
5
268
330
C
100
AcDbEntity
8
ACCESSORIES
62
8
100
AcDbLine
10
73.99999999999977
20
57.99999916553501
30
0
11
68.53747086226917
21
57.99999916553501
31
0
0
LINE
5
269
330
C
100
AcDbEntity
8
ACCESSORIES
62
8
100
AcDbLine
10
68.53747086226917
20
57.99999916553501
30
0
11
63.284864068031084
21
57.99999916553501
31
0
0
LINE
5
26A
330
C
100
AcDbEntity
8
ACCESSORIES
62
8
100
AcDbLine
10
63.284864068031084
20
57.99999916553501
30
0
11
58.44403409957863
21
57.99999916553501
31
0
0
LINE
5
26B
330
C
100
AcDbEntity
8
ACCESSORIES
62
8
100
AcDbLine
10
58.44403409957863
20
57.99999916553501
30
0
11
54.201010406017076
21
57.99999916553501
31
0
0
LINE
5
26C
330
C
100
AcDbEntity
8
ACCESSORIES
62
8
100
AcDbLine
10
54.201010406017076
20
57.99999916553501
30
0
11
50.71885043382622
21
57.99999916553501
31
0
0
LINE
5
26D
330
C
100
AcDbEntity
8
ACCESSORIES
62
8
100
AcDbLine
10
50.71885043382622
20
57.99999916553501
30
0
11
48.13137257099129
21
57.99999916553501
31
0
0
LINE
5
26E
330
C
100
AcDbEntity
8
ACCESSORIES
62
8
100
AcDbLine
10
48.13137257099129
20
57.99999916553501
30
0
11
46.53801226615883
21
57.99999916553501
31
0
0
LINE
5
26F
330
C
100
AcDbEntity
8
ACCESSORIES
62
8
100
AcDbLine
10
46.53801226615883
20
57.99999916553501
30
0
11
48.13137257099129
21
57.99999916553501
31
0
0
LINE
5
270
330
C
100
AcDbEntity
8
ACCESSORIES
62
8
100
AcDbLine
10
48.13137257099129
20
57.99999916553501
30
0
11
50.71885043382622
21
57.99999916553501
31
0
0
LINE
5
271
330
C
100
AcDbEntity
8
ACCESSORIES
62
8
100
AcDbLine
10
50.71885043382622
20
57.99999916553501
30
0
11
54.201010406017076
21
57.99999916553501
31
0
0
LINE
5
272
330
C
100
AcDbEntity
8
ACCESSORIES
62
8
100
AcDbLine
10
54.201010406017076
20
57.99999916553501
30
0
11
58.44403409957863
21
57.99999916553501
31
0
0
LINE
5
273
330
C
100
AcDbEntity
8
ACCESSORIES
62
8
100
AcDbLine
10
58.44403409957863
20
57.99999916553501
30
0
11
63.284864068031084
21
57.99999916553501
31
0
0
LINE
5
274
330
C
100
AcDbEntity
8
ACCESSORIES
62
8
100
AcDbLine
10
63.284864068031084
20
57.99999916553501
30
0
11
68.53747086226917
21
57.99999916553501
31
0
0
LINE
5
275
330
C
100
AcDbEntity
8
ACCESSORIES
62
8
100
AcDbLine
10
68.53747086226917
20
57.99999916553501
30
0
11
73.99999999999977
21
57.99999916553501
31
0
0
LINE
5
276
330
C
100
AcDbEntity
8
ACCESSORIES
62
8
100
AcDbLine
10
79.46252913773037
20
8.344650637148732e-7
30
0
11
73.99999999999977
21
8.344650637148732e-7
31
0
0
LINE
5
277
330
C
100
AcDbEntity
8
ACCESSORIES
62
8
100
AcDbLine
10
84.71513593196846
20
8.344650637148732e-7
30
0
11
79.46252913773037
21
8.344650637148732e-7
31
0
0
LINE
5
278
330
C
100
AcDbEntity
8
ACCESSORIES
62
8
100
AcDbLine
10
89.55596590042092
20
8.344650637148732e-7
30
0
11
84.71513593196846
21
8.344650637148732e-7
31
0
0
LINE
5
279
330
C
100
AcDbEntity
8
ACCESSORIES
62
8
100
AcDbLine
10
93.79898959398247
20
8.344650637148732e-7
30
0
11
89.55596590042092
21
8.344650637148732e-7
31
0
0
LINE
5
27A
330
C
100
AcDbEntity
8
ACCESSORIES
62
8
100
AcDbLine
10
97.28114956617333
20
8.344650637148732e-7
30
0
11
93.79898959398247
21
8.344650637148732e-7
31
0
0
LINE
5
27B
330
C
100
AcDbEntity
8
ACCESSORIES
62
8
100
AcDbLine
10
99.86862742900826
20
8.344650637148732e-7
30
0
11
97.28114956617333
21
8.344650637148732e-7
31
0
0
LINE
5
27C
330
C
100
AcDbEntity
8
ACCESSORIES
62
8
100
AcDbLine
10
101.46198773384072
20
8.344650637148732e-7
30
0
11
99.86862742900826
21
8.344650637148732e-7
31
0
0
LINE
5
27D
330
C
100
AcDbEntity
8
ACCESSORIES
62
8
100
AcDbLine
10
99.86862742900826
20
8.344650637148732e-7
30
0
11
101.46198773384072
21
8.344650637148732e-7
31
0
0
LINE
5
27E
330
C
100
AcDbEntity
8
ACCESSORIES
62
8
100
AcDbLine
10
97.28114956617333
20
8.344650637148732e-7
30
0
11
99.86862742900826
21
8.344650637148732e-7
31
0
0
LINE
5
27F
330
C
100
AcDbEntity
8
ACCESSORIES
62
8
100
AcDbLine
10
93.79898959398247
20
8.344650637148732e-7
30
0
11
97.28114956617333
21
8.344650637148732e-7
31
0
0
LINE
5
280
330
C
100
AcDbEntity
8
ACCESSORIES
62
8
100
AcDbLine
10
89.55596590042092
20
8.344650637148732e-7
30
0
11
93.79898959398247
21
8.344650637148732e-7
31
0
0
LINE
5
281
330
C
100
AcDbEntity
8
ACCESSORIES
62
8
100
AcDbLine
10
84.71513593196846
20
8.344650637148732e-7
30
0
11
89.55596590042092
21
8.344650637148732e-7
31
0
0
LINE
5
282
330
C
100
AcDbEntity
8
ACCESSORIES
62
8
100
AcDbLine
10
79.46252913773037
20
8.344650637148732e-7
30
0
11
84.71513593196846
21
8.344650637148732e-7
31
0
0
LINE
5
283
330
C
100
AcDbEntity
8
ACCESSORIES
62
8
100
AcDbLine
10
73.99999999999977
20
8.344650637148732e-7
30
0
11
79.46252913773037
21
8.344650637148732e-7
31
0
0
LINE
5
284
330
C
100
AcDbEntity
8
ACCESSORIES
62
8
100
AcDbLine
10
68.53747086226917
20
8.344650637148732e-7
30
0
11
73.99999999999977
21
8.344650637148732e-7
31
0
0
LINE
5
285
330
C
100
AcDbEntity
8
ACCESSORIES
62
8
100
AcDbLine
10
63.284864068031084
20
8.344650637148732e-7
30
0
11
68.53747086226917
21
8.344650637148732e-7
31
0
0
LINE
5
286
330
C
100
AcDbEntity
8
ACCESSORIES
62
8
100
AcDbLine
10
58.44403409957863
20
8.344650637148732e-7
30
0
11
63.284864068031084
21
8.344650637148732e-7
31
0
0
LINE
5
287
330
C
100
AcDbEntity
8
ACCESSORIES
62
8
100
AcDbLine
10
54.201010406017076
20
8.344650637148732e-7
30
0
11
58.44403409957863
21
8.344650637148732e-7
31
0
0
LINE
5
288
330
C
100
AcDbEntity
8
ACCESSORIES
62
8
100
AcDbLine
10
50.71885043382622
20
8.344650637148732e-7
30
0
11
54.201010406017076
21
8.344650637148732e-7
31
0
0
LINE
5
289
330
C
100
AcDbEntity
8
ACCESSORIES
62
8
100
AcDbLine
10
48.13137257099129
20
8.344650637148732e-7
30
0
11
50.71885043382622
21
8.344650637148732e-7
31
0
0
LINE
5
28A
330
C
100
AcDbEntity
8
ACCESSORIES
62
8
100
AcDbLine
10
46.53801226615883
20
8.344650637148732e-7
30
0
11
48.13137257099129
21
8.344650637148732e-7
31
0
0
LINE
5
28B
330
C
100
AcDbEntity
8
ACCESSORIES
62
8
100
AcDbLine
10
48.13137257099129
20
8.344650637148732e-7
30
0
11
46.53801226615883
21
8.344650637148732e-7
31
0
0
LINE
5
28C
330
C
100
AcDbEntity
8
ACCESSORIES
62
8
100
AcDbLine
10
50.71885043382622
20
8.344650637148732e-7
30
0
11
48.13137257099129
21
8.344650637148732e-7
31
0
0
LINE
5
28D
330
C
100
AcDbEntity
8
ACCESSORIES
62
8
100
AcDbLine
10
54.201010406017076
20
8.344650637148732e-7
30
0
11
50.71885043382622
21
8.344650637148732e-7
31
0
0
LINE
5
28E
330
C
100
AcDbEntity
8
ACCESSORIES
62
8
100
AcDbLine
10
58.44403409957863
20
8.344650637148732e-7
30
0
11
54.201010406017076
21
8.344650637148732e-7
31
0
0
LINE
5
28F
330
C
100
AcDbEntity
8
ACCESSORIES
62
8
100
AcDbLine
10
63.284864068031084
20
8.344650637148732e-7
30
0
11
58.44403409957863
21
8.344650637148732e-7
31
0
0
LINE
5
290
330
C
100
AcDbEntity
8
ACCESSORIES
62
8
100
AcDbLine
10
68.53747086226917
20
8.344650637148732e-7
30
0
11
63.284864068031084
21
8.344650637148732e-7
31
0
0
LINE
5
291
330
C
100
AcDbEntity
8
ACCESSORIES
62
8
100
AcDbLine
10
73.99999999999977
20
8.344650637148732e-7
30
0
11
68.53747086226917
21
8.344650637148732e-7
31
0
0
LINE
5
292
330
C
100
AcDbEntity
8
ACCESSORIES
62
8
100
AcDbLine
10
564.0000007152557
20
65.00000001490119
30
0
11
564.0000007152557
21
57.999999985098874
31
0
0
LINE
5
293
330
C
100
AcDbEntity
8
ACCESSORIES
62
8
100
AcDbLine
10
627.9999992847443
20
65.00000001490119
30
0
11
564.0000007152557
21
65.00000001490119
31
0
0
LINE
5
294
330
C
100
AcDbEntity
8
ACCESSORIES
62
8
100
AcDbLine
10
564.0000007152557
20
57.999999985098874
30
0
11
627.9999992847443
21
57.999999985098874
31
0
0
LINE
5
295
330
C
100
AcDbEntity
8
ACCESSORIES
62
8
100
AcDbLine
10
627.9999992847443
20
57.999999985098874
30
0
11
627.9999992847443
21
65.00000001490119
31
0
0
LINE
5
296
330
C
100
AcDbEntity
8
ACCESSORIES
62
8
100
AcDbLine
10
627.9999992847443
20
65.00000001490119
30
0
11
627.9999992847443
21
57.999999985098874
31
0
0
LINE
5
297
330
C
100
AcDbEntity
8
ACCESSORIES
62
8
100
AcDbLine
10
564.0000007152557
20
65.00000001490119
30
0
11
627.9999992847443
21
65.00000001490119
31
0
0
LINE
5
298
330
C
100
AcDbEntity
8
ACCESSORIES
62
8
100
AcDbLine
10
627.9999992847443
20
57.999999985098874
30
0
11
564.0000007152557
21
57.999999985098874
31
0
0
LINE
5
299
330
C
100
AcDbEntity
8
ACCESSORIES
62
8
100
AcDbLine
10
564.0000007152557
20
57.999999985098874
30
0
11
564.0000007152557
21
65.00000001490119
31
0
0
LINE
5
29A
330
C
100
AcDbEntity
8
ACCESSORIES
62
8
100
AcDbLine
10
601.4625291377306
20
57.99999916553501
30
0
11
601.4625291377306
21
8.344650637148732e-7
31
0
0
LINE
5
29B
330
C
100
AcDbEntity
8
ACCESSORIES
62
8
100
AcDbLine
10
606.7151359319687
20
57.99999916553501
30
0
11
606.7151359319687
21
8.344650637148732e-7
31
0
0
LINE
5
29C
330
C
100
AcDbEntity
8
ACCESSORIES
62
8
100
AcDbLine
10
611.5559659004211
20
57.99999916553501
30
0
11
611.5559659004211
21
8.344650637148732e-7
31
0
0
LINE
5
29D
330
C
100
AcDbEntity
8
ACCESSORIES
62
8
100
AcDbLine
10
615.7989895939827
20
57.99999916553501
30
0
11
615.7989895939827
21
8.344650637148732e-7
31
0
0
LINE
5
29E
330
C
100
AcDbEntity
8
ACCESSORIES
62
8
100
AcDbLine
10
619.2811495661736
20
57.99999916553501
30
0
11
619.2811495661736
21
8.344650637148732e-7
31
0
0
LINE
5
29F
330
C
100
AcDbEntity
8
ACCESSORIES
62
8
100
AcDbLine
10
621.8686274290085
20
57.99999916553501
30
0
11
621.8686274290085
21
8.344650637148732e-7
31
0
0
LINE
5
2A0
330
C
100
AcDbEntity
8
ACCESSORIES
62
8
100
AcDbLine
10
623.4619877338409
20
57.99999916553501
30
0
11
623.4619877338409
21
8.344650637148732e-7
31
0
0
LINE
5
2A1
330
C
100
AcDbEntity
8
ACCESSORIES
62
8
100
AcDbLine
10
624.0000001192093
20
57.99999916553501
30
0
11
624.0000001192093
21
8.344650637148732e-7
31
0
0
LINE
5
2A2
330
C
100
AcDbEntity
8
ACCESSORIES
62
8
100
AcDbLine
10
623.4619877338409
20
57.99999916553501
30
0
11
623.4619877338409
21
8.344650637148732e-7
31
0
0
LINE
5
2A3
330
C
100
AcDbEntity
8
ACCESSORIES
62
8
100
AcDbLine
10
621.8686274290085
20
57.99999916553501
30
0
11
621.8686274290085
21
8.344650637148732e-7
31
0
0
LINE
5
2A4
330
C
100
AcDbEntity
8
ACCESSORIES
62
8
100
AcDbLine
10
619.2811495661736
20
57.99999916553501
30
0
11
619.2811495661736
21
8.344650637148732e-7
31
0
0
LINE
5
2A5
330
C
100
AcDbEntity
8
ACCESSORIES
62
8
100
AcDbLine
10
615.7989895939827
20
57.99999916553501
30
0
11
615.7989895939827
21
8.344650637148732e-7
31
0
0
LINE
5
2A6
330
C
100
AcDbEntity
8
ACCESSORIES
62
8
100
AcDbLine
10
611.5559659004211
20
57.99999916553501
30
0
11
611.5559659004211
21
8.344650637148732e-7
31
0
0
LINE
5
2A7
330
C
100
AcDbEntity
8
ACCESSORIES
62
8
100
AcDbLine
10
606.7151359319687
20
57.99999916553501
30
0
11
606.7151359319687
21
8.344650637148732e-7
31
0
0
LINE
5
2A8
330
C
100
AcDbEntity
8
ACCESSORIES
62
8
100
AcDbLine
10
601.4625291377306
20
57.99999916553501
30
0
11
601.4625291377306
21
8.344650637148732e-7
31
0
0
LINE
5
2A9
330
C
100
AcDbEntity
8
ACCESSORIES
62
8
100
AcDbLine
10
596
20
57.99999916553501
30
0
11
596
21
8.344650637148732e-7
31
0
0
LINE
5
2AA
330
C
100
AcDbEntity
8
ACCESSORIES
62
8
100
AcDbLine
10
590.5374708622694
20
57.99999916553501
30
0
11
590.5374708622694
21
8.344650637148732e-7
31
0
0
LINE
5
2AB
330
C
100
AcDbEntity
8
ACCESSORIES
62
8
100
AcDbLine
10
585.2848640680313
20
57.99999916553501
30
0
11
585.2848640680313
21
8.344650637148732e-7
31
0
0
LINE
5
2AC
330
C
100
AcDbEntity
8
ACCESSORIES
62
8
100
AcDbLine
10
580.4440340995789
20
57.99999916553501
30
0
11
580.4440340995789
21
8.344650637148732e-7
31
0
0
LINE
5
2AD
330
C
100
AcDbEntity
8
ACCESSORIES
62
8
100
AcDbLine
10
576.2010104060173
20
57.99999916553501
30
0
11
576.2010104060173
21
8.344650637148732e-7
31
0
0
LINE
5
2AE
330
C
100
AcDbEntity
8
ACCESSORIES
62
8
100
AcDbLine
10
572.7188504338264
20
57.99999916553501
30
0
11
572.7188504338264
21
8.344650637148732e-7
31
0
0
LINE
5
2AF
330
C
100
AcDbEntity
8
ACCESSORIES
62
8
100
AcDbLine
10
570.1313725709915
20
57.99999916553501
30
0
11
570.1313725709915
21
8.344650637148732e-7
31
0
0
LINE
5
2B0
330
C
100
AcDbEntity
8
ACCESSORIES
62
8
100
AcDbLine
10
568.5380122661591
20
57.99999916553501
30
0
11
568.5380122661591
21
8.344650637148732e-7
31
0
0
LINE
5
2B1
330
C
100
AcDbEntity
8
ACCESSORIES
62
8
100
AcDbLine
10
567.9999998807907
20
57.99999916553501
30
0
11
567.9999998807907
21
8.344650637148732e-7
31
0
0
LINE
5
2B2
330
C
100
AcDbEntity
8
ACCESSORIES
62
8
100
AcDbLine
10
568.5380122661591
20
57.99999916553501
30
0
11
568.5380122661591
21
8.344650637148732e-7
31
0
0
LINE
5
2B3
330
C
100
AcDbEntity
8
ACCESSORIES
62
8
100
AcDbLine
10
570.1313725709915
20
57.99999916553501
30
0
11
570.1313725709915
21
8.344650637148732e-7
31
0
0
LINE
5
2B4
330
C
100
AcDbEntity
8
ACCESSORIES
62
8
100
AcDbLine
10
572.7188504338264
20
57.99999916553501
30
0
11
572.7188504338264
21
8.344650637148732e-7
31
0
0
LINE
5
2B5
330
C
100
AcDbEntity
8
ACCESSORIES
62
8
100
AcDbLine
10
576.2010104060173
20
57.99999916553501
30
0
11
576.2010104060173
21
8.344650637148732e-7
31
0
0
LINE
5
2B6
330
C
100
AcDbEntity
8
ACCESSORIES
62
8
100
AcDbLine
10
580.4440340995789
20
57.99999916553501
30
0
11
580.4440340995789
21
8.344650637148732e-7
31
0
0
LINE
5
2B7
330
C
100
AcDbEntity
8
ACCESSORIES
62
8
100
AcDbLine
10
585.2848640680313
20
57.99999916553501
30
0
11
585.2848640680313
21
8.344650637148732e-7
31
0
0
LINE
5
2B8
330
C
100
AcDbEntity
8
ACCESSORIES
62
8
100
AcDbLine
10
590.5374708622694
20
57.99999916553501
30
0
11
590.5374708622694
21
8.344650637148732e-7
31
0
0
LINE
5
2B9
330
C
100
AcDbEntity
8
ACCESSORIES
62
8
100
AcDbLine
10
596
20
8.344650637148732e-7
30
0
11
596
21
57.99999916553501
31
0
0
LINE
5
2BA
330
C
100
AcDbEntity
8
ACCESSORIES
62
8
100
AcDbLine
10
596
20
57.99999916553501
30
0
11
601.4625291377306
21
57.99999916553501
31
0
0
LINE
5
2BB
330
C
100
AcDbEntity
8
ACCESSORIES
62
8
100
AcDbLine
10
601.4625291377306
20
57.99999916553501
30
0
11
606.7151359319687
21
57.99999916553501
31
0
0
LINE
5
2BC
330
C
100
AcDbEntity
8
ACCESSORIES
62
8
100
AcDbLine
10
606.7151359319687
20
57.99999916553501
30
0
11
611.5559659004211
21
57.99999916553501
31
0
0
LINE
5
2BD
330
C
100
AcDbEntity
8
ACCESSORIES
62
8
100
AcDbLine
10
611.5559659004211
20
57.99999916553501
30
0
11
615.7989895939827
21
57.99999916553501
31
0
0
LINE
5
2BE
330
C
100
AcDbEntity
8
ACCESSORIES
62
8
100
AcDbLine
10
615.7989895939827
20
57.99999916553501
30
0
11
619.2811495661736
21
57.99999916553501
31
0
0
LINE
5
2BF
330
C
100
AcDbEntity
8
ACCESSORIES
62
8
100
AcDbLine
10
619.2811495661736
20
57.99999916553501
30
0
11
621.8686274290085
21
57.99999916553501
31
0
0
LINE
5
2C0
330
C
100
AcDbEntity
8
ACCESSORIES
62
8
100
AcDbLine
10
621.8686274290085
20
57.99999916553501
30
0
11
623.4619877338409
21
57.99999916553501
31
0
0
LINE
5
2C1
330
C
100
AcDbEntity
8
ACCESSORIES
62
8
100
AcDbLine
10
623.4619877338409
20
57.99999916553501
30
0
11
621.8686274290085
21
57.99999916553501
31
0
0
LINE
5
2C2
330
C
100
AcDbEntity
8
ACCESSORIES
62
8
100
AcDbLine
10
621.8686274290085
20
57.99999916553501
30
0
11
619.2811495661736
21
57.99999916553501
31
0
0
LINE
5
2C3
330
C
100
AcDbEntity
8
ACCESSORIES
62
8
100
AcDbLine
10
619.2811495661736
20
57.99999916553501
30
0
11
615.7989895939827
21
57.99999916553501
31
0
0
LINE
5
2C4
330
C
100
AcDbEntity
8
ACCESSORIES
62
8
100
AcDbLine
10
615.7989895939827
20
57.99999916553501
30
0
11
611.5559659004211
21
57.99999916553501
31
0
0
LINE
5
2C5
330
C
100
AcDbEntity
8
ACCESSORIES
62
8
100
AcDbLine
10
611.5559659004211
20
57.99999916553501
30
0
11
606.7151359319687
21
57.99999916553501
31
0
0
LINE
5
2C6
330
C
100
AcDbEntity
8
ACCESSORIES
62
8
100
AcDbLine
10
606.7151359319687
20
57.99999916553501
30
0
11
601.4625291377306
21
57.99999916553501
31
0
0
LINE
5
2C7
330
C
100
AcDbEntity
8
ACCESSORIES
62
8
100
AcDbLine
10
601.4625291377306
20
57.99999916553501
30
0
11
596
21
57.99999916553501
31
0
0
LINE
5
2C8
330
C
100
AcDbEntity
8
ACCESSORIES
62
8
100
AcDbLine
10
596
20
57.99999916553501
30
0
11
590.5374708622694
21
57.99999916553501
31
0
0
LINE
5
2C9
330
C
100
AcDbEntity
8
ACCESSORIES
62
8
100
AcDbLine
10
590.5374708622694
20
57.99999916553501
30
0
11
585.2848640680313
21
57.99999916553501
31
0
0
LINE
5
2CA
330
C
100
AcDbEntity
8
ACCESSORIES
62
8
100
AcDbLine
10
585.2848640680313
20
57.99999916553501
30
0
11
580.4440340995789
21
57.99999916553501
31
0
0
LINE
5
2CB
330
C
100
AcDbEntity
8
ACCESSORIES
62
8
100
AcDbLine
10
580.4440340995789
20
57.99999916553501
30
0
11
576.2010104060173
21
57.99999916553501
31
0
0
LINE
5
2CC
330
C
100
AcDbEntity
8
ACCESSORIES
62
8
100
AcDbLine
10
576.2010104060173
20
57.99999916553501
30
0
11
572.7188504338264
21
57.99999916553501
31
0
0
LINE
5
2CD
330
C
100
AcDbEntity
8
ACCESSORIES
62
8
100
AcDbLine
10
572.7188504338264
20
57.99999916553501
30
0
11
570.1313725709915
21
57.99999916553501
31
0
0
LINE
5
2CE
330
C
100
AcDbEntity
8
ACCESSORIES
62
8
100
AcDbLine
10
570.1313725709915
20
57.99999916553501
30
0
11
568.5380122661591
21
57.99999916553501
31
0
0
LINE
5
2CF
330
C
100
AcDbEntity
8
ACCESSORIES
62
8
100
AcDbLine
10
568.5380122661591
20
57.99999916553501
30
0
11
570.1313725709915
21
57.99999916553501
31
0
0
LINE
5
2D0
330
C
100
AcDbEntity
8
ACCESSORIES
62
8
100
AcDbLine
10
570.1313725709915
20
57.99999916553501
30
0
11
572.7188504338264
21
57.99999916553501
31
0
0
LINE
5
2D1
330
C
100
AcDbEntity
8
ACCESSORIES
62
8
100
AcDbLine
10
572.7188504338264
20
57.99999916553501
30
0
11
576.2010104060173
21
57.99999916553501
31
0
0
LINE
5
2D2
330
C
100
AcDbEntity
8
ACCESSORIES
62
8
100
AcDbLine
10
576.2010104060173
20
57.99999916553501
30
0
11
580.4440340995789
21
57.99999916553501
31
0
0
LINE
5
2D3
330
C
100
AcDbEntity
8
ACCESSORIES
62
8
100
AcDbLine
10
580.4440340995789
20
57.99999916553501
30
0
11
585.2848640680313
21
57.99999916553501
31
0
0
LINE
5
2D4
330
C
100
AcDbEntity
8
ACCESSORIES
62
8
100
AcDbLine
10
585.2848640680313
20
57.99999916553501
30
0
11
590.5374708622694
21
57.99999916553501
31
0
0
LINE
5
2D5
330
C
100
AcDbEntity
8
ACCESSORIES
62
8
100
AcDbLine
10
590.5374708622694
20
57.99999916553501
30
0
11
596
21
57.99999916553501
31
0
0
LINE
5
2D6
330
C
100
AcDbEntity
8
ACCESSORIES
62
8
100
AcDbLine
10
601.4625291377306
20
8.344650637148732e-7
30
0
11
596
21
8.344650637148732e-7
31
0
0
LINE
5
2D7
330
C
100
AcDbEntity
8
ACCESSORIES
62
8
100
AcDbLine
10
606.7151359319687
20
8.344650637148732e-7
30
0
11
601.4625291377306
21
8.344650637148732e-7
31
0
0
LINE
5
2D8
330
C
100
AcDbEntity
8
ACCESSORIES
62
8
100
AcDbLine
10
611.5559659004211
20
8.344650637148732e-7
30
0
11
606.7151359319687
21
8.344650637148732e-7
31
0
0
LINE
5
2D9
330
C
100
AcDbEntity
8
ACCESSORIES
62
8
100
AcDbLine
10
615.7989895939827
20
8.344650637148732e-7
30
0
11
611.5559659004211
21
8.344650637148732e-7
31
0
0
LINE
5
2DA
330
C
100
AcDbEntity
8
ACCESSORIES
62
8
100
AcDbLine
10
619.2811495661736
20
8.344650637148732e-7
30
0
11
615.7989895939827
21
8.344650637148732e-7
31
0
0
LINE
5
2DB
330
C
100
AcDbEntity
8
ACCESSORIES
62
8
100
AcDbLine
10
621.8686274290085
20
8.344650637148732e-7
30
0
11
619.2811495661736
21
8.344650637148732e-7
31
0
0
LINE
5
2DC
330
C
100
AcDbEntity
8
ACCESSORIES
62
8
100
AcDbLine
10
623.4619877338409
20
8.344650637148732e-7
30
0
11
621.8686274290085
21
8.344650637148732e-7
31
0
0
LINE
5
2DD
330
C
100
AcDbEntity
8
ACCESSORIES
62
8
100
AcDbLine
10
621.8686274290085
20
8.344650637148732e-7
30
0
11
623.4619877338409
21
8.344650637148732e-7
31
0
0
LINE
5
2DE
330
C
100
AcDbEntity
8
ACCESSORIES
62
8
100
AcDbLine
10
619.2811495661736
20
8.344650637148732e-7
30
0
11
621.8686274290085
21
8.344650637148732e-7
31
0
0
LINE
5
2DF
330
C
100
AcDbEntity
8
ACCESSORIES
62
8
100
AcDbLine
10
615.7989895939827
20
8.344650637148732e-7
30
0
11
619.2811495661736
21
8.344650637148732e-7
31
0
0
LINE
5
2E0
330
C
100
AcDbEntity
8
ACCESSORIES
62
8
100
AcDbLine
10
611.5559659004211
20
8.344650637148732e-7
30
0
11
615.7989895939827
21
8.344650637148732e-7
31
0
0
LINE
5
2E1
330
C
100
AcDbEntity
8
ACCESSORIES
62
8
100
AcDbLine
10
606.7151359319687
20
8.344650637148732e-7
30
0
11
611.5559659004211
21
8.344650637148732e-7
31
0
0
LINE
5
2E2
330
C
100
AcDbEntity
8
ACCESSORIES
62
8
100
AcDbLine
10
601.4625291377306
20
8.344650637148732e-7
30
0
11
606.7151359319687
21
8.344650637148732e-7
31
0
0
LINE
5
2E3
330
C
100
AcDbEntity
8
ACCESSORIES
62
8
100
AcDbLine
10
596
20
8.344650637148732e-7
30
0
11
601.4625291377306
21
8.344650637148732e-7
31
0
0
LINE
5
2E4
330
C
100
AcDbEntity
8
ACCESSORIES
62
8
100
AcDbLine
10
590.5374708622694
20
8.344650637148732e-7
30
0
11
596
21
8.344650637148732e-7
31
0
0
LINE
5
2E5
330
C
100
AcDbEntity
8
ACCESSORIES
62
8
100
AcDbLine
10
585.2848640680313
20
8.344650637148732e-7
30
0
11
590.5374708622694
21
8.344650637148732e-7
31
0
0
LINE
5
2E6
330
C
100
AcDbEntity
8
ACCESSORIES
62
8
100
AcDbLine
10
580.4440340995789
20
8.344650637148732e-7
30
0
11
585.2848640680313
21
8.344650637148732e-7
31
0
0
LINE
5
2E7
330
C
100
AcDbEntity
8
ACCESSORIES
62
8
100
AcDbLine
10
576.2010104060173
20
8.344650637148732e-7
30
0
11
580.4440340995789
21
8.344650637148732e-7
31
0
0
LINE
5
2E8
330
C
100
AcDbEntity
8
ACCESSORIES
62
8
100
AcDbLine
10
572.7188504338264
20
8.344650637148732e-7
30
0
11
576.2010104060173
21
8.344650637148732e-7
31
0
0
LINE
5
2E9
330
C
100
AcDbEntity
8
ACCESSORIES
62
8
100
AcDbLine
10
570.1313725709915
20
8.344650637148732e-7
30
0
11
572.7188504338264
21
8.344650637148732e-7
31
0
0
LINE
5
2EA
330
C
100
AcDbEntity
8
ACCESSORIES
62
8
100
AcDbLine
10
568.5380122661591
20
8.344650637148732e-7
30
0
11
570.1313725709915
21
8.344650637148732e-7
31
0
0
LINE
5
2EB
330
C
100
AcDbEntity
8
ACCESSORIES
62
8
100
AcDbLine
10
570.1313725709915
20
8.344650637148732e-7
30
0
11
568.5380122661591
21
8.344650637148732e-7
31
0
0
LINE
5
2EC
330
C
100
AcDbEntity
8
ACCESSORIES
62
8
100
AcDbLine
10
572.7188504338264
20
8.344650637148732e-7
30
0
11
570.1313725709915
21
8.344650637148732e-7
31
0
0
LINE
5
2ED
330
C
100
AcDbEntity
8
ACCESSORIES
62
8
100
AcDbLine
10
576.2010104060173
20
8.344650637148732e-7
30
0
11
572.7188504338264
21
8.344650637148732e-7
31
0
0
LINE
5
2EE
330
C
100
AcDbEntity
8
ACCESSORIES
62
8
100
AcDbLine
10
580.4440340995789
20
8.344650637148732e-7
30
0
11
576.2010104060173
21
8.344650637148732e-7
31
0
0
LINE
5
2EF
330
C
100
AcDbEntity
8
ACCESSORIES
62
8
100
AcDbLine
10
585.2848640680313
20
8.344650637148732e-7
30
0
11
580.4440340995789
21
8.344650637148732e-7
31
0
0
LINE
5
2F0
330
C
100
AcDbEntity
8
ACCESSORIES
62
8
100
AcDbLine
10
590.5374708622694
20
8.344650637148732e-7
30
0
11
585.2848640680313
21
8.344650637148732e-7
31
0
0
LINE
5
2F1
330
C
100
AcDbEntity
8
ACCESSORIES
62
8
100
AcDbLine
10
596
20
8.344650637148732e-7
30
0
11
590.5374708622694
21
8.344650637148732e-7
31
0
0
LINE
5
2F2
330
C
100
AcDbEntity
8
FURNITURE_PANEL
62
30
100
AcDbLine
10
41.999999642371904
20
665
30
0
11
41.999999642371904
21
65.00000000000003
31
0
0
LINE
5
2F3
330
C
100
AcDbEntity
8
FURNITURE_PANEL
62
30
100
AcDbLine
10
60.00000035762764
20
665
30
0
11
41.999999642371904
21
665
31
0
0
LINE
5
2F4
330
C
100
AcDbEntity
8
FURNITURE_PANEL
62
30
100
AcDbLine
10
41.999999642371904
20
65.00000000000003
30
0
11
60.00000035762764
21
65.00000000000003
31
0
0
LINE
5
2F5
330
C
100
AcDbEntity
8
FURNITURE_PANEL
62
30
100
AcDbLine
10
60.00000035762764
20
65.00000000000003
30
0
11
60.00000035762764
21
665
31
0
0
LINE
5
2F6
330
C
100
AcDbEntity
8
FURNITURE_PANEL
62
30
100
AcDbLine
10
60.00000035762764
20
665
30
0
11
60.00000035762764
21
65.00000000000003
31
0
0
LINE
5
2F7
330
C
100
AcDbEntity
8
FURNITURE_PANEL
62
30
100
AcDbLine
10
41.999999642371904
20
665
30
0
11
60.00000035762764
21
665
31
0
0
LINE
5
2F8
330
C
100
AcDbEntity
8
FURNITURE_PANEL
62
30
100
AcDbLine
10
60.00000035762764
20
65.00000000000003
30
0
11
41.999999642371904
21
65.00000000000003
31
0
0
LINE
5
2F9
330
C
100
AcDbEntity
8
FURNITURE_PANEL
62
30
100
AcDbLine
10
41.999999642371904
20
65.00000000000003
30
0
11
41.999999642371904
21
665
31
0
0
LINE
5
2FA
330
C
100
AcDbEntity
8
FURNITURE_PANEL
62
30
100
AcDbLine
10
41.999999642371904
20
2390
30
0
11
41.999999642371904
21
665
31
0
0
LINE
5
2FB
330
C
100
AcDbEntity
8
FURNITURE_PANEL
62
30
100
AcDbLine
10
60.00000035762764
20
2390
30
0
11
41.999999642371904
21
2390
31
0
0
LINE
5
2FC
330
C
100
AcDbEntity
8
FURNITURE_PANEL
62
30
100
AcDbLine
10
41.999999642371904
20
665
30
0
11
60.00000035762764
21
665
31
0
0
LINE
5
2FD
330
C
100
AcDbEntity
8
FURNITURE_PANEL
62
30
100
AcDbLine
10
60.00000035762764
20
665
30
0
11
60.00000035762764
21
2390
31
0
0
LINE
5
2FE
330
C
100
AcDbEntity
8
FURNITURE_PANEL
62
30
100
AcDbLine
10
60.00000035762764
20
2390
30
0
11
60.00000035762764
21
665
31
0
0
LINE
5
2FF
330
C
100
AcDbEntity
8
FURNITURE_PANEL
62
30
100
AcDbLine
10
41.999999642371904
20
2390
30
0
11
60.00000035762764
21
2390
31
0
0
LINE
5
300
330
C
100
AcDbEntity
8
FURNITURE_PANEL
62
30
100
AcDbLine
10
60.00000035762764
20
665
30
0
11
41.999999642371904
21
665
31
0
0
LINE
5
301
330
C
100
AcDbEntity
8
FURNITURE_PANEL
62
30
100
AcDbLine
10
41.999999642371904
20
665
30
0
11
41.999999642371904
21
2390
31
0
0
LINE
5
302
330
C
100
AcDbEntity
8
FURNITURE_PANEL
62
30
100
AcDbLine
10
609.9999996423721
20
665
30
0
11
609.9999996423721
21
65.00000000000003
31
0
0
LINE
5
303
330
C
100
AcDbEntity
8
FURNITURE_PANEL
62
30
100
AcDbLine
10
628.0000003576279
20
665
30
0
11
609.9999996423721
21
665
31
0
0
LINE
5
304
330
C
100
AcDbEntity
8
FURNITURE_PANEL
62
30
100
AcDbLine
10
609.9999996423721
20
65.00000000000003
30
0
11
628.0000003576279
21
65.00000000000003
31
0
0
LINE
5
305
330
C
100
AcDbEntity
8
FURNITURE_PANEL
62
30
100
AcDbLine
10
628.0000003576279
20
65.00000000000003
30
0
11
628.0000003576279
21
665
31
0
0
LINE
5
306
330
C
100
AcDbEntity
8
FURNITURE_PANEL
62
30
100
AcDbLine
10
628.0000003576279
20
665
30
0
11
628.0000003576279
21
65.00000000000003
31
0
0
LINE
5
307
330
C
100
AcDbEntity
8
FURNITURE_PANEL
62
30
100
AcDbLine
10
609.9999996423721
20
665
30
0
11
628.0000003576279
21
665
31
0
0
LINE
5
308
330
C
100
AcDbEntity
8
FURNITURE_PANEL
62
30
100
AcDbLine
10
628.0000003576279
20
65.00000000000003
30
0
11
609.9999996423721
21
65.00000000000003
31
0
0
LINE
5
309
330
C
100
AcDbEntity
8
FURNITURE_PANEL
62
30
100
AcDbLine
10
609.9999996423721
20
65.00000000000003
30
0
11
609.9999996423721
21
665
31
0
0
LINE
5
30A
330
C
100
AcDbEntity
8
FURNITURE_PANEL
62
30
100
AcDbLine
10
609.9999996423721
20
2390
30
0
11
609.9999996423721
21
665
31
0
0
LINE
5
30B
330
C
100
AcDbEntity
8
FURNITURE_PANEL
62
30
100
AcDbLine
10
628.0000003576279
20
2390
30
0
11
609.9999996423721
21
2390
31
0
0
LINE
5
30C
330
C
100
AcDbEntity
8
FURNITURE_PANEL
62
30
100
AcDbLine
10
609.9999996423721
20
665
30
0
11
628.0000003576279
21
665
31
0
0
LINE
5
30D
330
C
100
AcDbEntity
8
FURNITURE_PANEL
62
30
100
AcDbLine
10
628.0000003576279
20
665
30
0
11
628.0000003576279
21
2390
31
0
0
LINE
5
30E
330
C
100
AcDbEntity
8
FURNITURE_PANEL
62
30
100
AcDbLine
10
628.0000003576279
20
2390
30
0
11
628.0000003576279
21
665
31
0
0
LINE
5
30F
330
C
100
AcDbEntity
8
FURNITURE_PANEL
62
30
100
AcDbLine
10
609.9999996423721
20
2390
30
0
11
628.0000003576279
21
2390
31
0
0
LINE
5
310
330
C
100
AcDbEntity
8
FURNITURE_PANEL
62
30
100
AcDbLine
10
628.0000003576279
20
665
30
0
11
609.9999996423721
21
665
31
0
0
LINE
5
311
330
C
100
AcDbEntity
8
FURNITURE_PANEL
62
30
100
AcDbLine
10
609.9999996423721
20
665
30
0
11
609.9999996423721
21
2390
31
0
0
LINE
5
312
330
C
100
AcDbEntity
8
FURNITURE_PANEL
62
30
100
AcDbLine
10
60.00000000000023
20
664.9000002563
30
0
11
60.00000000000023
21
646.9999997437001
31
0
0
LINE
5
313
330
C
100
AcDbEntity
8
FURNITURE_PANEL
62
30
100
AcDbLine
10
610
20
664.9000002563
30
0
11
60.00000000000023
21
664.9000002563
31
0
0
LINE
5
314
330
C
100
AcDbEntity
8
FURNITURE_PANEL
62
30
100
AcDbLine
10
60.00000000000023
20
646.9999997437001
30
0
11
610
21
646.9999997437001
31
0
0
LINE
5
315
330
C
100
AcDbEntity
8
FURNITURE_PANEL
62
30
100
AcDbLine
10
610
20
646.9999997437001
30
0
11
610
21
664.9000002563
31
0
0
LINE
5
316
330
C
100
AcDbEntity
8
FURNITURE_PANEL
62
30
100
AcDbLine
10
610
20
664.9000002563
30
0
11
610
21
646.9999997437001
31
0
0
LINE
5
317
330
C
100
AcDbEntity
8
FURNITURE_PANEL
62
30
100
AcDbLine
10
60.00000000000023
20
664.9000002563
30
0
11
610
21
664.9000002563
31
0
0
LINE
5
318
330
C
100
AcDbEntity
8
FURNITURE_PANEL
62
30
100
AcDbLine
10
610
20
646.9999997437001
30
0
11
60.00000000000023
21
646.9999997437001
31
0
0
LINE
5
319
330
C
100
AcDbEntity
8
FURNITURE_PANEL
62
30
100
AcDbLine
10
60.00000000000023
20
646.9999997437001
30
0
11
60.00000000000023
21
664.9000002563
31
0
0
LINE
5
31A
330
C
100
AcDbEntity
8
FURNITURE_PANEL
62
30
100
AcDbLine
10
60.00000000000023
20
683.0500003576278
30
0
11
60.00000000000023
21
665.0499996423721
31
0
0
LINE
5
31B
330
C
100
AcDbEntity
8
FURNITURE_PANEL
62
30
100
AcDbLine
10
610
20
683.0500003576278
30
0
11
60.00000000000023
21
683.0500003576278
31
0
0
LINE
5
31C
330
C
100
AcDbEntity
8
FURNITURE_PANEL
62
30
100
AcDbLine
10
60.00000000000023
20
665.0499996423721
30
0
11
610
21
665.0499996423721
31
0
0
LINE
5
31D
330
C
100
AcDbEntity
8
FURNITURE_PANEL
62
30
100
AcDbLine
10
610
20
665.0499996423721
30
0
11
610
21
683.0500003576278
31
0
0
LINE
5
31E
330
C
100
AcDbEntity
8
FURNITURE_PANEL
62
30
100
AcDbLine
10
610
20
683.0500003576278
30
0
11
610
21
665.0499996423721
31
0
0
LINE
5
31F
330
C
100
AcDbEntity
8
FURNITURE_PANEL
62
30
100
AcDbLine
10
60.00000000000023
20
683.0500003576278
30
0
11
610
21
683.0500003576278
31
0
0
LINE
5
320
330
C
100
AcDbEntity
8
FURNITURE_PANEL
62
30
100
AcDbLine
10
610
20
665.0499996423721
30
0
11
60.00000000000023
21
665.0499996423721
31
0
0
LINE
5
321
330
C
100
AcDbEntity
8
FURNITURE_PANEL
62
30
100
AcDbLine
10
60.00000000000023
20
665.0499996423721
30
0
11
60.00000000000023
21
683.0500003576278
31
0
0
LINE
5
322
330
C
100
AcDbEntity
8
FURNITURE_PANEL
62
30
100
AcDbLine
10
60.00000000000023
20
2390.000000357628
30
0
11
60.00000000000023
21
2371.999999642372
31
0
0
LINE
5
323
330
C
100
AcDbEntity
8
FURNITURE_PANEL
62
30
100
AcDbLine
10
610
20
2390.000000357628
30
0
11
60.00000000000023
21
2390.000000357628
31
0
0
LINE
5
324
330
C
100
AcDbEntity
8
FURNITURE_PANEL
62
30
100
AcDbLine
10
60.00000000000023
20
2371.999999642372
30
0
11
610
21
2371.999999642372
31
0
0
LINE
5
325
330
C
100
AcDbEntity
8
FURNITURE_PANEL
62
30
100
AcDbLine
10
610
20
2371.999999642372
30
0
11
610
21
2390.000000357628
31
0
0
LINE
5
326
330
C
100
AcDbEntity
8
FURNITURE_PANEL
62
30
100
AcDbLine
10
610
20
2390.000000357628
30
0
11
610
21
2371.999999642372
31
0
0
LINE
5
327
330
C
100
AcDbEntity
8
FURNITURE_PANEL
62
30
100
AcDbLine
10
60.00000000000023
20
2390.000000357628
30
0
11
610
21
2390.000000357628
31
0
0
LINE
5
328
330
C
100
AcDbEntity
8
FURNITURE_PANEL
62
30
100
AcDbLine
10
610
20
2371.999999642372
30
0
11
60.00000000000023
21
2371.999999642372
31
0
0
LINE
5
329
330
C
100
AcDbEntity
8
FURNITURE_PANEL
62
30
100
AcDbLine
10
60.00000000000023
20
2371.999999642372
30
0
11
60.00000000000023
21
2390.000000357628
31
0
0
LINE
5
32A
330
C
100
AcDbEntity
8
FURNITURE_PANEL
62
30
100
AcDbLine
10
60.00000000000023
20
83.0000003576279
30
0
11
60.00000000000023
21
64.99999964237216
31
0
0
LINE
5
32B
330
C
100
AcDbEntity
8
FURNITURE_PANEL
62
30
100
AcDbLine
10
610
20
83.0000003576279
30
0
11
60.00000000000023
21
83.0000003576279
31
0
0
LINE
5
32C
330
C
100
AcDbEntity
8
FURNITURE_PANEL
62
30
100
AcDbLine
10
60.00000000000023
20
64.99999964237216
30
0
11
610
21
64.99999964237216
31
0
0
LINE
5
32D
330
C
100
AcDbEntity
8
FURNITURE_PANEL
62
30
100
AcDbLine
10
610
20
64.99999964237216
30
0
11
610
21
83.0000003576279
31
0
0
LINE
5
32E
330
C
100
AcDbEntity
8
FURNITURE_PANEL
62
30
100
AcDbLine
10
610
20
83.0000003576279
30
0
11
610
21
64.99999964237216
31
0
0
LINE
5
32F
330
C
100
AcDbEntity
8
FURNITURE_PANEL
62
30
100
AcDbLine
10
60.00000000000023
20
83.0000003576279
30
0
11
610
21
83.0000003576279
31
0
0
LINE
5
330
330
C
100
AcDbEntity
8
FURNITURE_PANEL
62
30
100
AcDbLine
10
610
20
64.99999964237216
30
0
11
60.00000000000023
21
64.99999964237216
31
0
0
LINE
5
331
330
C
100
AcDbEntity
8
FURNITURE_PANEL
62
30
100
AcDbLine
10
60.00000000000023
20
64.99999964237216
30
0
11
60.00000000000023
21
83.0000003576279
31
0
0
LINE
5
332
330
C
100
AcDbEntity
8
FURNITURE_PANEL
62
30
100
AcDbLine
10
123.00001144409202
20
149.50000003725293
30
0
11
123.00001144409202
21
144.49999996274713
31
0
0
LINE
5
333
330
C
100
AcDbEntity
8
FURNITURE_PANEL
62
30
100
AcDbLine
10
546.9999885559082
20
149.50000003725293
30
0
11
123.00001144409202
21
149.50000003725293
31
0
0
LINE
5
334
330
C
100
AcDbEntity
8
FURNITURE_PANEL
62
30
100
AcDbLine
10
123.00001144409202
20
144.49999996274713
30
0
11
546.9999885559082
21
144.49999996274713
31
0
0
LINE
5
335
330
C
100
AcDbEntity
8
FURNITURE_PANEL
62
30
100
AcDbLine
10
546.9999885559082
20
144.49999996274713
30
0
11
546.9999885559082
21
149.50000003725293
31
0
0
LINE
5
336
330
C
100
AcDbEntity
8
FURNITURE_PANEL
62
30
100
AcDbLine
10
546.9999885559082
20
149.50000003725293
30
0
11
546.9999885559082
21
144.49999996274713
31
0
0
LINE
5
337
330
C
100
AcDbEntity
8
FURNITURE_PANEL
62
30
100
AcDbLine
10
123.00001144409202
20
149.50000003725293
30
0
11
546.9999885559082
21
149.50000003725293
31
0
0
LINE
5
338
330
C
100
AcDbEntity
8
FURNITURE_PANEL
62
30
100
AcDbLine
10
546.9999885559082
20
144.49999996274713
30
0
11
123.00001144409202
21
144.49999996274713
31
0
0
LINE
5
339
330
C
100
AcDbEntity
8
FURNITURE_PANEL
62
30
100
AcDbLine
10
123.00001144409202
20
144.49999996274713
30
0
11
123.00001144409202
21
149.50000003725293
31
0
0
LINE
5
33A
330
C
100
AcDbEntity
8
FURNITURE_PANEL
62
30
100
AcDbLine
10
110.00000000000023
20
342.5000042915345
30
0
11
110.00000000000023
21
126.49999570846563
31
0
0
LINE
5
33B
330
C
100
AcDbEntity
8
FURNITURE_PANEL
62
30
100
AcDbLine
10
560
20
342.5000042915345
30
0
11
110.00000000000023
21
342.5000042915345
31
0
0
LINE
5
33C
330
C
100
AcDbEntity
8
FURNITURE_PANEL
62
30
100
AcDbLine
10
110.00000000000023
20
126.49999570846563
30
0
11
560
21
126.49999570846563
31
0
0
LINE
5
33D
330
C
100
AcDbEntity
8
FURNITURE_PANEL
62
30
100
AcDbLine
10
560
20
126.49999570846563
30
0
11
560
21
342.5000042915345
31
0
0
LINE
5
33E
330
C
100
AcDbEntity
8
FURNITURE_PANEL
62
30
100
AcDbLine
10
560
20
342.5000042915345
30
0
11
560
21
126.49999570846563
31
0
0
LINE
5
33F
330
C
100
AcDbEntity
8
FURNITURE_PANEL
62
30
100
AcDbLine
10
110.00000000000023
20
342.5000042915345
30
0
11
560
21
342.5000042915345
31
0
0
LINE
5
340
330
C
100
AcDbEntity
8
FURNITURE_PANEL
62
30
100
AcDbLine
10
560
20
126.49999570846563
30
0
11
110.00000000000023
21
126.49999570846563
31
0
0
LINE
5
341
330
C
100
AcDbEntity
8
FURNITURE_PANEL
62
30
100
AcDbLine
10
110.00000000000023
20
126.49999570846563
30
0
11
110.00000000000023
21
342.5000042915345
31
0
0
LINE
5
342
330
C
100
AcDbEntity
8
FURNITURE_PANEL
62
30
100
AcDbLine
10
110.00000000000023
20
342.5000042915345
30
0
11
110.00000000000023
21
126.49999570846563
31
0
0
LINE
5
343
330
C
100
AcDbEntity
8
FURNITURE_PANEL
62
30
100
AcDbLine
10
560
20
342.5000042915345
30
0
11
110.00000000000023
21
342.5000042915345
31
0
0
LINE
5
344
330
C
100
AcDbEntity
8
FURNITURE_PANEL
62
30
100
AcDbLine
10
110.00000000000023
20
126.49999570846563
30
0
11
560
21
126.49999570846563
31
0
0
LINE
5
345
330
C
100
AcDbEntity
8
FURNITURE_PANEL
62
30
100
AcDbLine
10
560
20
126.49999570846563
30
0
11
560
21
342.5000042915345
31
0
0
LINE
5
346
330
C
100
AcDbEntity
8
FURNITURE_PANEL
62
30
100
AcDbLine
10
560
20
342.5000042915345
30
0
11
560
21
126.49999570846563
31
0
0
LINE
5
347
330
C
100
AcDbEntity
8
FURNITURE_PANEL
62
30
100
AcDbLine
10
110.00000000000023
20
342.5000042915345
30
0
11
560
21
342.5000042915345
31
0
0
LINE
5
348
330
C
100
AcDbEntity
8
FURNITURE_PANEL
62
30
100
AcDbLine
10
560
20
126.49999570846563
30
0
11
110.00000000000023
21
126.49999570846563
31
0
0
LINE
5
349
330
C
100
AcDbEntity
8
FURNITURE_PANEL
62
30
100
AcDbLine
10
110.00000000000023
20
126.49999570846563
30
0
11
110.00000000000023
21
342.5000042915345
31
0
0
LINE
5
34A
330
C
100
AcDbEntity
8
FURNITURE_PANEL
62
30
100
AcDbLine
10
109.9999996423719
20
342.5000042915345
30
0
11
109.9999996423719
21
126.49999570846563
31
0
0
LINE
5
34B
330
C
100
AcDbEntity
8
FURNITURE_PANEL
62
30
100
AcDbLine
10
128.00000035762764
20
342.5000042915345
30
0
11
109.9999996423719
21
342.5000042915345
31
0
0
LINE
5
34C
330
C
100
AcDbEntity
8
FURNITURE_PANEL
62
30
100
AcDbLine
10
109.9999996423719
20
126.49999570846563
30
0
11
128.00000035762764
21
126.49999570846563
31
0
0
LINE
5
34D
330
C
100
AcDbEntity
8
FURNITURE_PANEL
62
30
100
AcDbLine
10
128.00000035762764
20
126.49999570846563
30
0
11
128.00000035762764
21
342.5000042915345
31
0
0
LINE
5
34E
330
C
100
AcDbEntity
8
FURNITURE_PANEL
62
30
100
AcDbLine
10
128.00000035762764
20
342.5000042915345
30
0
11
128.00000035762764
21
126.49999570846563
31
0
0
LINE
5
34F
330
C
100
AcDbEntity
8
FURNITURE_PANEL
62
30
100
AcDbLine
10
109.9999996423719
20
342.5000042915345
30
0
11
128.00000035762764
21
342.5000042915345
31
0
0
LINE
5
350
330
C
100
AcDbEntity
8
FURNITURE_PANEL
62
30
100
AcDbLine
10
128.00000035762764
20
126.49999570846563
30
0
11
109.9999996423719
21
126.49999570846563
31
0
0
LINE
5
351
330
C
100
AcDbEntity
8
FURNITURE_PANEL
62
30
100
AcDbLine
10
109.9999996423719
20
126.49999570846563
30
0
11
109.9999996423719
21
342.5000042915345
31
0
0
LINE
5
352
330
C
100
AcDbEntity
8
FURNITURE_PANEL
62
30
100
AcDbLine
10
541.9999996423721
20
342.5000042915345
30
0
11
541.9999996423721
21
126.49999570846563
31
0
0
LINE
5
353
330
C
100
AcDbEntity
8
FURNITURE_PANEL
62
30
100
AcDbLine
10
560.0000003576279
20
342.5000042915345
30
0
11
541.9999996423721
21
342.5000042915345
31
0
0
LINE
5
354
330
C
100
AcDbEntity
8
FURNITURE_PANEL
62
30
100
AcDbLine
10
541.9999996423721
20
126.49999570846563
30
0
11
560.0000003576279
21
126.49999570846563
31
0
0
LINE
5
355
330
C
100
AcDbEntity
8
FURNITURE_PANEL
62
30
100
AcDbLine
10
560.0000003576279
20
126.49999570846563
30
0
11
560.0000003576279
21
342.5000042915345
31
0
0
LINE
5
356
330
C
100
AcDbEntity
8
FURNITURE_PANEL
62
30
100
AcDbLine
10
560.0000003576279
20
342.5000042915345
30
0
11
560.0000003576279
21
126.49999570846563
31
0
0
LINE
5
357
330
C
100
AcDbEntity
8
FURNITURE_PANEL
62
30
100
AcDbLine
10
541.9999996423721
20
342.5000042915345
30
0
11
560.0000003576279
21
342.5000042915345
31
0
0
LINE
5
358
330
C
100
AcDbEntity
8
FURNITURE_PANEL
62
30
100
AcDbLine
10
560.0000003576279
20
126.49999570846563
30
0
11
541.9999996423721
21
126.49999570846563
31
0
0
LINE
5
359
330
C
100
AcDbEntity
8
FURNITURE_PANEL
62
30
100
AcDbLine
10
541.9999996423721
20
126.49999570846563
30
0
11
541.9999996423721
21
342.5000042915345
31
0
0
LINE
5
35A
330
C
100
AcDbEntity
8
FURNITURE_PANEL
62
30
100
AcDbLine
10
71.99998855590843
20
357.5000019073487
30
0
11
71.99998855590843
21
111.49999809265142
31
0
0
LINE
5
35B
330
C
100
AcDbEntity
8
FURNITURE_PANEL
62
30
100
AcDbLine
10
598.0000114440918
20
357.5000019073487
30
0
11
71.99998855590843
21
357.5000019073487
31
0
0
LINE
5
35C
330
C
100
AcDbEntity
8
FURNITURE_PANEL
62
30
100
AcDbLine
10
71.99998855590843
20
111.49999809265142
30
0
11
598.0000114440918
21
111.49999809265142
31
0
0
LINE
5
35D
330
C
100
AcDbEntity
8
FURNITURE_PANEL
62
30
100
AcDbLine
10
598.0000114440918
20
111.49999809265142
30
0
11
598.0000114440918
21
357.5000019073487
31
0
0
LINE
5
35E
330
C
100
AcDbEntity
8
FURNITURE_PANEL
62
30
100
AcDbLine
10
598.0000114440918
20
357.5000019073487
30
0
11
598.0000114440918
21
111.49999809265142
31
0
0
LINE
5
35F
330
C
100
AcDbEntity
8
FURNITURE_PANEL
62
30
100
AcDbLine
10
71.99998855590843
20
357.5000019073487
30
0
11
598.0000114440918
21
357.5000019073487
31
0
0
LINE
5
360
330
C
100
AcDbEntity
8
FURNITURE_PANEL
62
30
100
AcDbLine
10
598.0000114440918
20
111.49999809265142
30
0
11
71.99998855590843
21
111.49999809265142
31
0
0
LINE
5
361
330
C
100
AcDbEntity
8
FURNITURE_PANEL
62
30
100
AcDbLine
10
71.99998855590843
20
111.49999809265142
30
0
11
71.99998855590843
21
357.5000019073487
31
0
0
LINE
5
362
330
C
100
AcDbEntity
8
FURNITURE_PANEL
62
30
100
AcDbLine
10
123.00001144409202
20
428.5000000372529
30
0
11
123.00001144409202
21
423.4999999627471
31
0
0
LINE
5
363
330
C
100
AcDbEntity
8
FURNITURE_PANEL
62
30
100
AcDbLine
10
546.9999885559082
20
428.5000000372529
30
0
11
123.00001144409202
21
428.5000000372529
31
0
0
LINE
5
364
330
C
100
AcDbEntity
8
FURNITURE_PANEL
62
30
100
AcDbLine
10
123.00001144409202
20
423.4999999627471
30
0
11
546.9999885559082
21
423.4999999627471
31
0
0
LINE
5
365
330
C
100
AcDbEntity
8
FURNITURE_PANEL
62
30
100
AcDbLine
10
546.9999885559082
20
423.4999999627471
30
0
11
546.9999885559082
21
428.5000000372529
31
0
0
LINE
5
366
330
C
100
AcDbEntity
8
FURNITURE_PANEL
62
30
100
AcDbLine
10
546.9999885559082
20
428.5000000372529
30
0
11
546.9999885559082
21
423.4999999627471
31
0
0
LINE
5
367
330
C
100
AcDbEntity
8
FURNITURE_PANEL
62
30
100
AcDbLine
10
123.00001144409202
20
428.5000000372529
30
0
11
546.9999885559082
21
428.5000000372529
31
0
0
LINE
5
368
330
C
100
AcDbEntity
8
FURNITURE_PANEL
62
30
100
AcDbLine
10
546.9999885559082
20
423.4999999627471
30
0
11
123.00001144409202
21
423.4999999627471
31
0
0
LINE
5
369
330
C
100
AcDbEntity
8
FURNITURE_PANEL
62
30
100
AcDbLine
10
123.00001144409202
20
423.4999999627471
30
0
11
123.00001144409202
21
428.5000000372529
31
0
0
LINE
5
36A
330
C
100
AcDbEntity
8
FURNITURE_PANEL
62
30
100
AcDbLine
10
110.00000000000023
20
621.5000042915345
30
0
11
110.00000000000023
21
405.49999570846563
31
0
0
LINE
5
36B
330
C
100
AcDbEntity
8
FURNITURE_PANEL
62
30
100
AcDbLine
10
560
20
621.5000042915345
30
0
11
110.00000000000023
21
621.5000042915345
31
0
0
LINE
5
36C
330
C
100
AcDbEntity
8
FURNITURE_PANEL
62
30
100
AcDbLine
10
110.00000000000023
20
405.49999570846563
30
0
11
560
21
405.49999570846563
31
0
0
LINE
5
36D
330
C
100
AcDbEntity
8
FURNITURE_PANEL
62
30
100
AcDbLine
10
560
20
405.49999570846563
30
0
11
560
21
621.5000042915345
31
0
0
LINE
5
36E
330
C
100
AcDbEntity
8
FURNITURE_PANEL
62
30
100
AcDbLine
10
560
20
621.5000042915345
30
0
11
560
21
405.49999570846563
31
0
0
LINE
5
36F
330
C
100
AcDbEntity
8
FURNITURE_PANEL
62
30
100
AcDbLine
10
110.00000000000023
20
621.5000042915345
30
0
11
560
21
621.5000042915345
31
0
0
LINE
5
370
330
C
100
AcDbEntity
8
FURNITURE_PANEL
62
30
100
AcDbLine
10
560
20
405.49999570846563
30
0
11
110.00000000000023
21
405.49999570846563
31
0
0
LINE
5
371
330
C
100
AcDbEntity
8
FURNITURE_PANEL
62
30
100
AcDbLine
10
110.00000000000023
20
405.49999570846563
30
0
11
110.00000000000023
21
621.5000042915345
31
0
0
LINE
5
372
330
C
100
AcDbEntity
8
FURNITURE_PANEL
62
30
100
AcDbLine
10
110.00000000000023
20
621.5000042915345
30
0
11
110.00000000000023
21
405.49999570846563
31
0
0
LINE
5
373
330
C
100
AcDbEntity
8
FURNITURE_PANEL
62
30
100
AcDbLine
10
560
20
621.5000042915345
30
0
11
110.00000000000023
21
621.5000042915345
31
0
0
LINE
5
374
330
C
100
AcDbEntity
8
FURNITURE_PANEL
62
30
100
AcDbLine
10
110.00000000000023
20
405.49999570846563
30
0
11
560
21
405.49999570846563
31
0
0
LINE
5
375
330
C
100
AcDbEntity
8
FURNITURE_PANEL
62
30
100
AcDbLine
10
560
20
405.49999570846563
30
0
11
560
21
621.5000042915345
31
0
0
LINE
5
376
330
C
100
AcDbEntity
8
FURNITURE_PANEL
62
30
100
AcDbLine
10
560
20
621.5000042915345
30
0
11
560
21
405.49999570846563
31
0
0
LINE
5
377
330
C
100
AcDbEntity
8
FURNITURE_PANEL
62
30
100
AcDbLine
10
110.00000000000023
20
621.5000042915345
30
0
11
560
21
621.5000042915345
31
0
0
LINE
5
378
330
C
100
AcDbEntity
8
FURNITURE_PANEL
62
30
100
AcDbLine
10
560
20
405.49999570846563
30
0
11
110.00000000000023
21
405.49999570846563
31
0
0
LINE
5
379
330
C
100
AcDbEntity
8
FURNITURE_PANEL
62
30
100
AcDbLine
10
110.00000000000023
20
405.49999570846563
30
0
11
110.00000000000023
21
621.5000042915345
31
0
0
LINE
5
37A
330
C
100
AcDbEntity
8
FURNITURE_PANEL
62
30
100
AcDbLine
10
109.9999996423719
20
621.5000042915345
30
0
11
109.9999996423719
21
405.49999570846563
31
0
0
LINE
5
37B
330
C
100
AcDbEntity
8
FURNITURE_PANEL
62
30
100
AcDbLine
10
128.00000035762764
20
621.5000042915345
30
0
11
109.9999996423719
21
621.5000042915345
31
0
0
LINE
5
37C
330
C
100
AcDbEntity
8
FURNITURE_PANEL
62
30
100
AcDbLine
10
109.9999996423719
20
405.49999570846563
30
0
11
128.00000035762764
21
405.49999570846563
31
0
0
LINE
5
37D
330
C
100
AcDbEntity
8
FURNITURE_PANEL
62
30
100
AcDbLine
10
128.00000035762764
20
405.49999570846563
30
0
11
128.00000035762764
21
621.5000042915345
31
0
0
LINE
5
37E
330
C
100
AcDbEntity
8
FURNITURE_PANEL
62
30
100
AcDbLine
10
128.00000035762764
20
621.5000042915345
30
0
11
128.00000035762764
21
405.49999570846563
31
0
0
LINE
5
37F
330
C
100
AcDbEntity
8
FURNITURE_PANEL
62
30
100
AcDbLine
10
109.9999996423719
20
621.5000042915345
30
0
11
128.00000035762764
21
621.5000042915345
31
0
0
LINE
5
380
330
C
100
AcDbEntity
8
FURNITURE_PANEL
62
30
100
AcDbLine
10
128.00000035762764
20
405.49999570846563
30
0
11
109.9999996423719
21
405.49999570846563
31
0
0
LINE
5
381
330
C
100
AcDbEntity
8
FURNITURE_PANEL
62
30
100
AcDbLine
10
109.9999996423719
20
405.49999570846563
30
0
11
109.9999996423719
21
621.5000042915345
31
0
0
LINE
5
382
330
C
100
AcDbEntity
8
FURNITURE_PANEL
62
30
100
AcDbLine
10
541.9999996423721
20
621.5000042915345
30
0
11
541.9999996423721
21
405.49999570846563
31
0
0
LINE
5
383
330
C
100
AcDbEntity
8
FURNITURE_PANEL
62
30
100
AcDbLine
10
560.0000003576279
20
621.5000042915345
30
0
11
541.9999996423721
21
621.5000042915345
31
0
0
LINE
5
384
330
C
100
AcDbEntity
8
FURNITURE_PANEL
62
30
100
AcDbLine
10
541.9999996423721
20
405.49999570846563
30
0
11
560.0000003576279
21
405.49999570846563
31
0
0
LINE
5
385
330
C
100
AcDbEntity
8
FURNITURE_PANEL
62
30
100
AcDbLine
10
560.0000003576279
20
405.49999570846563
30
0
11
560.0000003576279
21
621.5000042915345
31
0
0
LINE
5
386
330
C
100
AcDbEntity
8
FURNITURE_PANEL
62
30
100
AcDbLine
10
560.0000003576279
20
621.5000042915345
30
0
11
560.0000003576279
21
405.49999570846563
31
0
0
LINE
5
387
330
C
100
AcDbEntity
8
FURNITURE_PANEL
62
30
100
AcDbLine
10
541.9999996423721
20
621.5000042915345
30
0
11
560.0000003576279
21
621.5000042915345
31
0
0
LINE
5
388
330
C
100
AcDbEntity
8
FURNITURE_PANEL
62
30
100
AcDbLine
10
560.0000003576279
20
405.49999570846563
30
0
11
541.9999996423721
21
405.49999570846563
31
0
0
LINE
5
389
330
C
100
AcDbEntity
8
FURNITURE_PANEL
62
30
100
AcDbLine
10
541.9999996423721
20
405.49999570846563
30
0
11
541.9999996423721
21
621.5000042915345
31
0
0
LINE
5
38A
330
C
100
AcDbEntity
8
FURNITURE_PANEL
62
30
100
AcDbLine
10
71.99998855590843
20
636.5000019073487
30
0
11
71.99998855590843
21
390.4999980926514
31
0
0
LINE
5
38B
330
C
100
AcDbEntity
8
FURNITURE_PANEL
62
30
100
AcDbLine
10
598.0000114440918
20
636.5000019073487
30
0
11
71.99998855590843
21
636.5000019073487
31
0
0
LINE
5
38C
330
C
100
AcDbEntity
8
FURNITURE_PANEL
62
30
100
AcDbLine
10
71.99998855590843
20
390.4999980926514
30
0
11
598.0000114440918
21
390.4999980926514
31
0
0
LINE
5
38D
330
C
100
AcDbEntity
8
FURNITURE_PANEL
62
30
100
AcDbLine
10
598.0000114440918
20
390.4999980926514
30
0
11
598.0000114440918
21
636.5000019073487
31
0
0
LINE
5
38E
330
C
100
AcDbEntity
8
FURNITURE_PANEL
62
30
100
AcDbLine
10
598.0000114440918
20
636.5000019073487
30
0
11
598.0000114440918
21
390.4999980926514
31
0
0
LINE
5
38F
330
C
100
AcDbEntity
8
FURNITURE_PANEL
62
30
100
AcDbLine
10
71.99998855590843
20
636.5000019073487
30
0
11
598.0000114440918
21
636.5000019073487
31
0
0
LINE
5
390
330
C
100
AcDbEntity
8
FURNITURE_PANEL
62
30
100
AcDbLine
10
598.0000114440918
20
390.4999980926514
30
0
11
71.99998855590843
21
390.4999980926514
31
0
0
LINE
5
391
330
C
100
AcDbEntity
8
FURNITURE_PANEL
62
30
100
AcDbLine
10
71.99998855590843
20
390.4999980926514
30
0
11
71.99998855590843
21
636.5000019073487
31
0
0
LINE
5
392
330
C
100
AcDbEntity
8
DIMENSIONS
62
7
100
AcDbLine
10
0
20
2800
30
0
11
3600
21
2800
31
0
0
LINE
5
393
330
C
100
AcDbEntity
8
DIMENSIONS
62
7
100
AcDbLine
10
0
20
2400
30
0
11
0
21
2850
31
0
0
LINE
5
394
330
C
100
AcDbEntity
8
DIMENSIONS
62
7
100
AcDbLine
10
3600
20
2400
30
0
11
3600
21
2850
31
0
0
LINE
5
395
330
C
100
AcDbEntity
8
DIMENSIONS
62
7
100
AcDbLine
10
-400
20
0
30
0
11
-400
21
2400
31
0
0
LINE
5
396
330
C
100
AcDbEntity
8
DIMENSIONS
62
7
100
AcDbLine
10
0
20
0
30
0
11
-450
21
0
31
0
0
LINE
5
397
330
C
100
AcDbEntity
8
DIMENSIONS
62
7
100
AcDbLine
10
0
20
2400
30
0
11
-450
21
2400
31
0
0
LINE
5
398
330
C
100
AcDbEntity
8
DIMENSIONS
62
7
100
AcDbLine
10
0
20
2680
30
0
11
42
21
2680
31
0
0
LINE
5
399
330
C
100
AcDbEntity
8
DIMENSIONS
62
7
100
AcDbLine
10
0
20
2400
30
0
11
0
21
2730
31
0
0
LINE
5
39A
330
C
100
AcDbEntity
8
DIMENSIONS
62
7
100
AcDbLine
10
42
20
2400
30
0
11
42
21
2730
31
0
0
LINE
5
39B
330
C
100
AcDbEntity
8
DIMENSIONS
62
7
100
AcDbLine
10
3558
20
2680
30
0
11
3600
21
2680
31
0
0
LINE
5
39C
330
C
100
AcDbEntity
8
DIMENSIONS
62
7
100
AcDbLine
10
3600
20
2400
30
0
11
3600
21
2730
31
0
0
LINE
5
39D
330
C
100
AcDbEntity
8
DIMENSIONS
62
7
100
AcDbLine
10
3558
20
2400
30
0
11
3558
21
2730
31
0
0
LINE
5
39E
330
C
100
AcDbEntity
8
DIMENSIONS
62
7
100
AcDbLine
10
42
20
2680
30
0
11
3558
21
2680
31
0
0
LINE
5
39F
330
C
100
AcDbEntity
8
DIMENSIONS
62
7
100
AcDbLine
10
42
20
2560
30
0
11
628
21
2560
31
0
0
LINE
5
3A0
330
C
100
AcDbEntity
8
DIMENSIONS
62
7
100
AcDbLine
10
42
20
2400
30
0
11
42
21
2610
31
0
0
LINE
5
3A1
330
C
100
AcDbEntity
8
DIMENSIONS
62
7
100
AcDbLine
10
628
20
2400
30
0
11
628
21
2610
31
0
0
LINE
5
3A2
330
C
100
AcDbEntity
8
DIMENSIONS
62
7
100
AcDbLine
10
4000
20
2390
30
0
11
4000
21
2400
31
0
0
LINE
5
3A3
330
C
100
AcDbEntity
8
DIMENSIONS
62
7
100
AcDbLine
10
3600
20
2400
30
0
11
4050
21
2400
31
0
0
LINE
5
3A4
330
C
100
AcDbEntity
8
DIMENSIONS
62
7
100
AcDbLine
10
3600
20
2390
30
0
11
4050
21
2390
31
0
0
LINE
5
3A5
330
C
100
AcDbEntity
8
DIMENSIONS
62
7
100
AcDbLine
10
4040
20
65
30
0
11
4040
21
2390
31
0
0
LINE
5
3A6
330
C
100
AcDbEntity
8
DIMENSIONS
62
7
100
AcDbLine
10
3600
20
65
30
0
11
4090
21
65
31
0
0
LINE
5
3A7
330
C
100
AcDbEntity
8
DIMENSIONS
62
7
100
AcDbLine
10
4000
20
0
30
0
11
4000
21
65
31
0
0
LINE
5
3A8
330
C
100
AcDbEntity
8
DIMENSIONS
62
7
100
AcDbLine
10
3600
20
0
30
0
11
4050
21
0
31
0
0
LINE
5
3A9
330
C
100
AcDbEntity
8
SPACE_FRAME
62
3
100
AcDbLine
10
0
20
0
30
0
11
42
21
0
31
0
0
LINE
5
3AA
330
C
100
AcDbEntity
8
SPACE_FRAME
62
3
100
AcDbLine
10
42
20
0
30
0
11
42
21
2400
31
0
0
LINE
5
3AB
330
C
100
AcDbEntity
8
SPACE_FRAME
62
3
100
AcDbLine
10
42
20
2400
30
0
11
0
21
2400
31
0
0
LINE
5
3AC
330
C
100
AcDbEntity
8
SPACE_FRAME
62
3
100
AcDbLine
10
0
20
2400
30
0
11
0
21
0
31
0
0
LINE
5
3AD
330
C
100
AcDbEntity
8
SPACE_FRAME
62
3
100
AcDbLine
10
3558
20
0
30
0
11
3600
21
0
31
0
0
LINE
5
3AE
330
C
100
AcDbEntity
8
SPACE_FRAME
62
3
100
AcDbLine
10
3600
20
0
30
0
11
3600
21
2400
31
0
0
LINE
5
3AF
330
C
100
AcDbEntity
8
SPACE_FRAME
62
3
100
AcDbLine
10
3600
20
2400
30
0
11
3558
21
2400
31
0
0
LINE
5
3B0
330
C
100
AcDbEntity
8
SPACE_FRAME
62
3
100
AcDbLine
10
3558
20
2400
30
0
11
3558
21
0
31
0
0
LINE
5
3B1
330
C
100
AcDbEntity
8
SPACE_FRAME
62
3
100
AcDbLine
10
42
20
2390
30
0
11
3558
21
2390
31
0
0
LINE
5
3B2
330
C
100
AcDbEntity
8
SPACE_FRAME
62
3
100
AcDbLine
10
3558
20
2390
30
0
11
3558
21
2400
31
0
0
LINE
5
3B3
330
C
100
AcDbEntity
8
SPACE_FRAME
62
3
100
AcDbLine
10
3558
20
2400
30
0
11
42
21
2400
31
0
0
LINE
5
3B4
330
C
100
AcDbEntity
8
SPACE_FRAME
62
3
100
AcDbLine
10
42
20
2400
30
0
11
42
21
2390
31
0
0
LINE
5
3B5
330
C
100
AcDbEntity
8
SPACE_FRAME
62
3
100
AcDbLine
10
42
20
0
30
0
11
3558
21
0
31
0
0
LINE
5
3B6
330
C
100
AcDbEntity
8
SPACE_FRAME
62
3
100
AcDbLine
10
3558
20
0
30
0
11
3558
21
65
31
0
0
LINE
5
3B7
330
C
100
AcDbEntity
8
SPACE_FRAME
62
3
100
AcDbLine
10
3558
20
65
30
0
11
42
21
65
31
0
0
LINE
5
3B8
330
C
100
AcDbEntity
8
SPACE_FRAME
62
3
100
AcDbLine
10
42
20
65
30
0
11
42
21
0
31
0
0
TEXT
5
3B9
330
C
100
AcDbEntity
8
DIMENSIONS
62
7
100
AcDbText
10
172.50000000000023
20
2381
30
0
40
25
1
18
7
STANDARD
100
AcDbText
0
TEXT
5
3BA
330
C
100
AcDbEntity
8
DIMENSIONS
62
7
100
AcDbText
10
172.50000000000023
20
74.00000000000003
30
0
40
25
1
18
7
STANDARD
100
AcDbText
0
TEXT
5
3BB
330
C
100
AcDbEntity
8
DIMENSIONS
62
7
100
AcDbText
10
335
20
234.50000000000006
30
0
40
25
1
D517
7
STANDARD
100
AcDbText
0
TEXT
5
3BC
330
C
100
AcDbEntity
8
DIMENSIONS
62
7
100
AcDbText
10
335
20
513.5000000000001
30
0
40
25
1
D517
7
STANDARD
100
AcDbText
0
TEXT
5
3BD
330
C
100
AcDbEntity
8
DIMENSIONS
62
7
100
AcDbText
10
172.50000000000023
20
365.00000000000006
30
0
40
25
1
564
7
STANDARD
100
AcDbText
0
TEXT
5
3BE
330
C
100
AcDbEntity
8
DIMENSIONS
62
7
100
AcDbText
10
172.50000000000023
20
74.00000000000003
30
0
40
25
1
18
7
STANDARD
100
AcDbText
0
TEXT
5
3BF
330
C
100
AcDbEntity
8
DIMENSIONS
62
7
100
AcDbText
10
172.50000000000023
20
2133
30
0
40
25
1
18
7
STANDARD
100
AcDbText
0
TEXT
5
3C0
330
C
100
AcDbEntity
8
DIMENSIONS
62
7
100
AcDbText
10
172.50000000000023
20
1403.5
30
0
40
25
1
1441
7
STANDARD
100
AcDbText
0
TEXT
5
3C1
330
C
100
AcDbEntity
8
DIMENSIONS
62
7
100
AcDbText
10
172.50000000000023
20
2257
30
0
40
25
1
230
7
STANDARD
100
AcDbText
0
TEXT
5
3C2
330
C
100
AcDbEntity
8
DIMENSIONS
62
7
100
AcDbText
10
1800
20
2815
30
0
40
25
1
3600
7
STANDARD
100
AcDbText
0
TEXT
5
3C3
330
C
100
AcDbEntity
8
DIMENSIONS
62
7
100
AcDbText
10
-415
20
1200
30
0
40
25
1
2400
7
STANDARD
100
AcDbText
0
TEXT
5
3C4
330
C
100
AcDbEntity
8
DIMENSIONS
62
7
100
AcDbText
10
21
20
2695
30
0
40
20
1
42
7
STANDARD
100
AcDbText
0
TEXT
5
3C5
330
C
100
AcDbEntity
8
DIMENSIONS
62
7
100
AcDbText
10
3579
20
2695
30
0
40
20
1
42
7
STANDARD
100
AcDbText
0
TEXT
5
3C6
330
C
100
AcDbEntity
8
DIMENSIONS
62
7
100
AcDbText
10
1800
20
2695
30
0
40
20
1
3516
7
STANDARD
100
AcDbText
0
TEXT
5
3C7
330
C
100
AcDbEntity
8
DIMENSIONS
62
7
100
AcDbText
10
335
20
2575
30
0
40
20
1
586
7
STANDARD
100
AcDbText
0
TEXT
5
3C8
330
C
100
AcDbEntity
8
DIMENSIONS
62
7
100
AcDbText
10
4015
20
2395
30
0
40
20
1
10
7
STANDARD
100
AcDbText
0
TEXT
5
3C9
330
C
100
AcDbEntity
8
DIMENSIONS
62
7
100
AcDbText
10
4055
20
1227.5
30
0
40
20
1
2325
7
STANDARD
100
AcDbText
0
TEXT
5
3CA
330
C
100
AcDbEntity
8
DIMENSIONS
62
7
100
AcDbText
10
4015
20
32.5
30
0
40
20
1
65
7
STANDARD
100
AcDbText
0
ENDSEC
0
SECTION
2
OBJECTS
0
DICTIONARY
5
A
330
0
100
AcDbDictionary
281
1
3
ACAD_GROUP
350
B
0
DICTIONARY
5
B
330
A
100
AcDbDictionary
281
0
0
ENDSEC
0
EOF