0
SECTION
2
HEADER
9
$MEASUREMENT
70
1
9
$INSUNITS
70
4
0
ENDSEC
0
SECTION
2
TABLES
0
TABLE
2
LTYPE
0
LTYPE
2
CONTINUOUS
70
0
3
Solid line
72
65
73
0
40
0.0
0
ENDTAB
0
TABLE
2
LAYER
0
LAYER
2
0
70
0
62
7
6
CONTINUOUS
0
LAYER
2
FURNITURE
70
0
62
3
6
CONTINUOUS
0
LAYER
2
DIMENSIONS
70
0
62
1
6
CONTINUOUS
0
LAYER
2
TEXT
70
0
62
5
6
CONTINUOUS
0
ENDTAB
0
ENDSEC
0
SECTION
2
ENTITIES
0
LINE
8
FURNITURE
10
0.00
20
0.00
11
3000.00
21
0.00
0
LINE
8
FURNITURE
10
3000.00
20
0.00
11
3000.00
21
2500.00
0
LINE
8
FURNITURE
10
3000.00
20
2500.00
11
0.00
21
2500.00
0
LINE
8
FURNITURE
10
0.00
20
2500.00
11
0.00
21
0.00
0
LINE
8
FURNITURE
10
600.00
20
300.00
11
1500.00
21
300.00
0
LINE
8
FURNITURE
10
1500.00
20
300.00
11
1500.00
21
450.00
0
LINE
8
FURNITURE
10
1500.00
20
450.00
11
600.00
21
450.00
0
LINE
8
FURNITURE
10
600.00
20
450.00
11
600.00
21
300.00
0
LINE
8
FURNITURE
10
600.00
20
300.00
11
600.00
21
450.00
0
LINE
8
FURNITURE
10
1500.00
20
300.00
11
1500.00
21
450.00
0
LINE
8
FURNITURE
10
600.00
20
450.00
11
1500.00
21
450.00
0
LINE
8
FURNITURE
10
1500.00
20
450.00
11
1500.00
21
1950.00
0
LINE
8
FURNITURE
10
1500.00
20
1950.00
11
600.00
21
1950.00
0
LINE
8
FURNITURE
10
600.00
20
1950.00
11
600.00
21
450.00
0
LINE
8
FURNITURE
10
1050.00
20
450.00
11
1050.00
21
1950.00
0
LINE
8
DIMENSIONS
10
600.00
20
300.00
11
1500.00
21
300.00
0
LINE
8
DIMENSIONS
10
600.00
20
290.00
11
600.00
21
310.00
0
LINE
8
DIMENSIONS
10
1500.00
20
290.00
11
1500.00
21
310.00
0
LINE
8
DIMENSIONS
10
600.00
20
450.00
11
600.00
21
310.00
0
LINE
8
DIMENSIONS
10
1500.00
20
450.00
11
1500.00
21
310.00
0
TEXT
8
TEXT
10
1050.00
20
270.00
40
30.00
1
900mm
0
LINE
8
DIMENSIONS
10
1600.00
20
450.00
11
1600.00
21
1950.00
0
LINE
8
DIMENSIONS
10
1590.00
20
450.00
11
1610.00
21
450.00
0
LINE
8
DIMENSIONS
10
1590.00
20
1950.00
11
1610.00
21
1950.00
0
LINE
8
DIMENSIONS
10
1500.00
20
450.00
11
1610.00
21
450.00
0
LINE
8
DIMENSIONS
10
1500.00
20
1950.00
11
1610.00
21
1950.00
0
TEXT
8
TEXT
10
1630.00
20
1200.00
40
30.00
1
1500mm
0
LINE
8
FURNITURE
10
1600.00
20
300.00
11
2050.00
21
300.00
0
LINE
8
FURNITURE
10
2050.00
20
300.00
11
2050.00
21
450.00
0
LINE
8
FURNITURE
10
2050.00
20
450.00
11
1600.00
21
450.00
0
LINE
8
FURNITURE
10
1600.00
20
450.00
11
1600.00
21
300.00
0
LINE
8
FURNITURE
10
1600.00
20
300.00
11
1600.00
21
450.00
0
LINE
8
FURNITURE
10
2050.00
20
300.00
11
2050.00
21
450.00
0
LINE
8
FURNITURE
10
1600.00
20
450.00
11
2050.00
21
450.00
0
LINE
8
FURNITURE
10
2050.00
20
450.00
11
2050.00
21
1250.00
0
LINE
8
FURNITURE
10
2050.00
20
1250.00
11
1600.00
21
1250.00
0
LINE
8
FURNITURE
10
1600.00
20
1250.00
11
1600.00
21
450.00
0
LINE
8
FURNITURE
10
1600.00
20
850.00
11
2050.00
21
850.00
0
LINE
8
DIMENSIONS
10
1600.00
20
300.00
11
2050.00
21
300.00
0
LINE
8
DIMENSIONS
10
1600.00
20
290.00
11
1600.00
21
310.00
0
LINE
8
DIMENSIONS
10
2050.00
20
290.00
11
2050.00
21
310.00
0
LINE
8
DIMENSIONS
10
1600.00
20
450.00
11
1600.00
21
310.00
0
LINE
8
DIMENSIONS
10
2050.00
20
450.00
11
2050.00
21
310.00
0
TEXT
8
TEXT
10
1825.00
20
270.00
40
30.00
1
450mm
0
LINE
8
DIMENSIONS
10
2150.00
20
450.00
11
2150.00
21
1250.00
0
LINE
8
DIMENSIONS
10
2140.00
20
450.00
11
2160.00
21
450.00
0
LINE
8
DIMENSIONS
10
2140.00
20
1250.00
11
2160.00
21
1250.00
0
LINE
8
DIMENSIONS
10
2050.00
20
450.00
11
2160.00
21
450.00
0
LINE
8
DIMENSIONS
10
2050.00
20
1250.00
11
2160.00
21
1250.00
0
TEXT
8
TEXT
10
2180.00
20
850.00
40
30.00
1
800mm
0
TEXT
8
TEXT
10
1500.00
20
2200.00
40
80.00
1
Complete Set with Base Frame
0
TEXT
8
TEXT
10
1500.00
20
2100.00
40
50.00
1
Base Frame Height: 150mm
0
TEXT
8
TEXT
10
1500.00
20
2000.00
40
40.00
1
STEP 6: Floor/Base Lines
0
TEXT
8
TEXT
10
1500.00
20
1950.00
40
40.00
1
STEP 7: Dimension Lines (dimH/dimV)
0
ENDSEC
0
EOF